<svg width="154" height="40" viewBox="0 0 154 40" fill="none" xmlns="http://www.w3.org/2000/svg">
<path d="M18.5666 26.8237C18.4319 27.0162 18.2971 27.1895 18.1624 27.3435C18.0276 27.4782 17.9121 27.5937 17.8159 27.69L17.6138 27.8921C17.5753 27.9114 17.5271 27.9402 17.4694 27.9787C17.4309 28.0172 17.3924 28.0557 17.3539 28.0943C17.3154 28.1712 17.2769 28.2482 17.2384 28.3252C17.2191 28.383 17.1903 28.4504 17.1518 28.5274C17.0555 28.7584 16.9304 28.9605 16.7764 29.1337C16.7571 29.153 16.7379 29.1819 16.7186 29.2204C16.7186 29.2589 16.709 29.2685 16.6898 29.2492C16.6705 29.23 16.6609 29.2011 16.6609 29.1626L16.4876 29.4225C16.4684 29.461 16.4395 29.4995 16.401 29.538C16.401 29.538 16.3914 29.5476 16.3721 29.5669C16.3721 29.5669 16.3625 29.5669 16.3433 29.5669C16.324 29.5669 16.3144 29.5765 16.3144 29.5957C16.3144 29.5957 16.3048 29.5957 16.2855 29.5957C16.2663 29.8075 16.2566 30.1348 16.2566 30.5775C16.2566 31.0203 16.247 31.5015 16.2278 32.0213C16.2278 32.541 16.2181 33.0223 16.1989 33.465C16.1989 33.9078 16.1893 34.235 16.17 34.4468C16.17 34.466 16.1508 34.4853 16.1123 34.5045C16.0738 34.5238 16.0545 34.5238 16.0545 34.5045C16.0353 34.2928 16.016 33.9559 15.9968 33.4939C15.9968 33.0319 15.9968 32.5314 15.9968 31.9924C15.9968 31.4726 15.9871 30.9818 15.9679 30.5198C15.9679 30.077 15.9583 29.7401 15.939 29.5091C15.9005 29.4706 15.862 29.4417 15.8235 29.4225C15.8235 29.4225 15.8043 29.4032 15.7658 29.3647C15.7658 29.3647 15.7561 29.3647 15.7369 29.3647C15.7369 29.3455 15.7369 29.3262 15.7369 29.307C15.7176 29.307 15.708 29.307 15.708 29.307C15.708 29.2877 15.6984 29.2781 15.6791 29.2781L15.6503 29.307C15.631 29.3647 15.6214 29.4225 15.6214 29.4802C15.6214 29.538 15.6021 29.615 15.5636 29.7112C15.5444 29.7882 15.5059 29.8556 15.4481 29.9134C15.4096 29.9711 15.3615 30.0385 15.3038 30.1155C15.3038 30.1348 15.2845 30.1829 15.246 30.2599C15.2075 30.2984 15.1786 30.3176 15.1594 30.3176C15.1401 30.3176 15.1305 30.3176 15.1305 30.3176C15.1305 30.3369 15.1305 30.3465 15.1305 30.3465C14.9573 30.6545 14.8129 31.001 14.6974 31.386L14.4953 32.0501C14.476 32.1079 14.4471 32.1849 14.4086 32.2811C14.3894 32.3966 14.3798 32.4255 14.3798 32.3678C14.3413 32.0598 14.322 31.7518 14.322 31.4438C14.3413 31.1358 14.3316 30.8278 14.2931 30.5198C14.2931 30.539 14.2835 30.5486 14.2643 30.5486C14.2643 30.5486 14.2643 30.5583 14.2643 30.5775C14.2258 30.7123 14.1776 30.8374 14.1199 30.9529C14.0621 31.0876 14.0044 31.2224 13.9466 31.3571C13.8504 31.5689 13.7349 31.7806 13.6001 31.9924C13.4654 32.2041 13.3114 32.3966 13.1381 32.5699C13.1189 32.5891 13.0804 32.618 13.0226 32.6565C12.9841 32.7143 12.936 32.7624 12.8783 32.8009C12.8013 32.8779 12.7243 32.9549 12.6473 33.0319C12.5895 33.1281 12.4836 33.157 12.3296 33.1185C12.2141 33.0608 12.1083 32.9838 12.012 32.8875C11.935 32.8298 11.8484 32.7528 11.7521 32.6565C11.6751 32.5603 11.5981 32.4736 11.5211 32.3966C11.3671 32.2041 11.2228 31.9924 11.088 31.7614C10.9725 31.5496 10.8474 31.3283 10.7126 31.0973C10.6741 31.0203 10.626 30.924 10.5683 30.8085C10.5105 30.7123 10.4528 30.6256 10.395 30.5486L10.3084 30.462C10.3084 30.4428 10.2891 30.4331 10.2506 30.4331C10.2506 30.4331 10.2121 30.4043 10.1351 30.3465C10.0966 30.3658 10.0774 30.4043 10.0774 30.462C10.0774 30.539 10.0581 30.5968 10.0196 30.6353C9.98113 30.7123 9.95225 30.7508 9.933 30.7508C9.91375 30.7315 9.8945 30.7026 9.87525 30.6641C9.87525 30.6256 9.86563 30.5968 9.84638 30.5775L9.75975 30.2888H9.73088C7.65188 30.2503 5.929 29.9326 4.56225 29.3359C3.21475 28.7199 2.20413 27.9595 1.53038 27.0547C1.39563 26.8815 1.28013 26.7082 1.18388 26.535C1.08763 26.381 1.01063 26.227 0.952875 26.073L0.837375 25.7842C0.779625 25.6302 0.7315 25.4762 0.693 25.3222C0.6545 25.149 0.616 24.9854 0.5775 24.8314C0.55825 24.6774 0.529375 24.5234 0.490875 24.3694C0.471625 24.1961 0.5005 24.0325 0.5775 23.8785C0.5775 23.8592 0.5775 23.8496 0.5775 23.8496C0.59675 23.8304 0.606375 23.8207 0.606375 23.8207C0.644875 23.7437 0.721875 23.6667 0.837375 23.5897C0.914375 23.5512 0.991375 23.532 1.06838 23.532C1.14538 23.5127 1.21275 23.5031 1.2705 23.5031C1.54 23.4839 1.8095 23.4839 2.079 23.5031C2.3485 23.5031 2.60838 23.5031 2.85863 23.5031H5.60175C5.698 23.5031 5.82313 23.5031 5.97713 23.5031C6.15038 23.4839 6.30438 23.4742 6.43913 23.4742C6.55463 23.4742 6.6605 23.4839 6.75675 23.5031C6.87225 23.5031 6.9685 23.5127 7.0455 23.532C7.1995 23.5512 7.32463 23.5994 7.42087 23.6764C7.53638 23.7341 7.65188 23.8111 7.76738 23.9074L8.2005 24.1961C8.33525 24.2731 8.47 24.3405 8.60475 24.3982C8.7395 24.456 8.87425 24.5041 9.009 24.5426C9.25925 24.6196 9.59613 24.6581 10.0196 24.6581C10.2506 24.6581 10.472 24.6485 10.6838 24.6292C10.8955 24.61 11.088 24.5811 11.2613 24.5426L11.55 24.456C11.5885 24.4367 11.6174 24.4271 11.6366 24.4271C11.6751 24.4271 11.704 24.4175 11.7233 24.3982C12.0313 24.2442 12.1853 24.0614 12.1853 23.8496V23.8207C12.1853 23.7052 12.1371 23.5801 12.0409 23.4454L11.8676 23.2721H11.8388C11.7618 23.2336 11.6559 23.2336 11.5211 23.2721C11.3864 23.2914 11.2709 23.3106 11.1746 23.3299C11.0976 23.3299 11.011 23.3395 10.9148 23.3587C10.8378 23.3587 10.7511 23.3587 10.6549 23.3587C10.6164 23.3587 10.5779 23.3491 10.5394 23.3299C10.5009 23.3106 10.4624 23.301 10.4239 23.301C10.3661 23.3202 10.3084 23.3395 10.2506 23.3587C10.2121 23.378 10.1736 23.3972 10.1351 23.4165C10.0389 23.455 9.933 23.4935 9.8175 23.532C9.702 23.5705 9.5865 23.6186 9.471 23.6764C9.29775 23.7534 9.11488 23.8207 8.92238 23.8785C8.74913 23.917 8.56625 23.8977 8.37375 23.8207C8.25825 23.7822 8.15238 23.7341 8.05613 23.6764C7.95988 23.6186 7.86363 23.5609 7.76738 23.5031C7.57488 23.4069 7.392 23.301 7.21875 23.1855C7.06475 23.07 6.91075 22.9449 6.75675 22.8101L6.09263 22.146L5.86163 21.9727H5.6595C5.64025 21.992 5.61138 22.0209 5.57288 22.0594C5.55363 22.0786 5.52475 22.1075 5.48625 22.146C5.40925 22.223 5.32263 22.3096 5.22638 22.4059C5.13013 22.5021 5.03388 22.5887 4.93763 22.6657C4.89913 22.685 4.84138 22.7139 4.76438 22.7524C4.70663 22.7909 4.64888 22.8005 4.59113 22.7812C4.51413 22.7427 4.44675 22.685 4.389 22.608C4.33125 22.531 4.28313 22.454 4.24462 22.377C4.18688 22.223 4.13875 22.0594 4.10025 21.8861C4.081 21.7129 4.03288 21.5589 3.95588 21.4241C3.87888 21.3664 3.79225 21.299 3.696 21.222C3.619 21.145 3.542 21.068 3.465 20.991C3.44575 20.9717 3.4265 20.9525 3.40725 20.9332C3.40725 20.914 3.388 20.8947 3.3495 20.8755C3.21475 20.7407 3.13775 20.6734 3.1185 20.6734C3.1185 20.6734 3.08 20.6541 3.003 20.6156C2.9645 20.5771 2.94525 20.5386 2.94525 20.5001C2.772 20.3461 2.60838 20.1825 2.45438 20.0092C2.39663 19.9322 2.32925 19.8649 2.25225 19.8071C2.1945 19.7301 2.14638 19.6531 2.10788 19.5761C2.03088 19.4991 1.9635 19.4125 1.90575 19.3162C1.848 19.22 1.79025 19.1334 1.7325 19.0564C1.694 18.9794 1.6555 18.912 1.617 18.8542C1.5785 18.7772 1.54 18.7002 1.5015 18.6232C1.32825 18.3345 1.1935 17.9302 1.09725 17.4105C1.02025 16.8907 0.991375 16.3806 1.01063 15.8801C1.02988 15.3604 1.08763 14.9561 1.18388 14.6674C1.22238 14.5519 1.26088 14.4364 1.29938 14.3209C1.33788 14.2054 1.37638 14.0899 1.41488 13.9744C1.45338 13.8589 1.49188 13.7722 1.53038 13.7145C1.56888 13.599 1.60738 13.5124 1.64588 13.4546C2.26188 12.2611 3.25325 11.3179 4.62 10.6249C5.98675 9.91262 7.64225 9.53725 9.5865 9.49875H9.8175C11.4153 9.49875 12.8013 9.72975 13.9755 10.1917C15.169 10.6345 16.1508 11.212 16.9208 11.9242C17.6908 12.6172 18.2394 13.3391 18.5666 14.0899C18.6051 14.2054 18.6436 14.3209 18.6821 14.4364C18.7399 14.5519 18.7784 14.6674 18.7976 14.7829C18.8361 14.8984 18.865 15.0235 18.8843 15.1583C18.9228 15.293 18.9228 15.4277 18.8843 15.5625C18.8458 15.7357 18.7688 15.8705 18.6533 15.9667C18.5763 16.0437 18.5089 16.0919 18.4511 16.1111C18.4511 16.1111 18.4319 16.1304 18.3934 16.1689C18.3741 16.1689 18.3549 16.1592 18.3356 16.14C18.3164 16.1592 18.2971 16.1689 18.2779 16.1689C18.2586 16.1496 18.2298 16.1496 18.1913 16.1689C18.1528 16.1689 18.1046 16.1881 18.0469 16.2266C18.0084 16.2459 17.9699 16.2651 17.9314 16.2844C17.7966 16.3421 17.6619 16.4095 17.5271 16.4865C17.4116 16.5635 17.2769 16.6116 17.1229 16.6309C16.9689 16.6309 16.8149 16.6116 16.6609 16.5731C16.5069 16.5154 16.3529 16.4865 16.1989 16.4865C16.0834 16.4865 15.9679 16.5154 15.8524 16.5731C15.7369 16.6116 15.6214 16.6212 15.5059 16.602C15.4289 16.5827 15.3519 16.5539 15.2749 16.5154C15.1979 16.4576 15.1209 16.4095 15.0439 16.371C14.9861 16.3517 14.9284 16.3325 14.8706 16.3132C14.8129 16.294 14.7551 16.2844 14.6974 16.2844L14.4664 16.3421C14.2739 16.3806 14.0814 16.4191 13.8889 16.4576C13.6964 16.4961 13.4943 16.525 13.2825 16.5442C13.2055 16.5635 13.1285 16.5924 13.0515 16.6309C12.9938 16.6694 12.9264 16.6982 12.8494 16.7175C12.7339 16.756 12.6088 16.7849 12.474 16.8041C12.3585 16.8234 12.2334 16.8137 12.0986 16.7752C11.9254 16.6982 11.781 16.5827 11.6655 16.4287C11.5693 16.2555 11.4634 16.1015 11.3479 15.9667C11.3094 15.909 11.2613 15.8512 11.2035 15.7935C11.1458 15.7357 11.088 15.678 11.0303 15.6202C11.011 15.6395 10.9821 15.6491 10.9436 15.6491C10.6164 15.7454 10.318 15.7069 10.0485 15.5336C9.99075 15.4951 9.933 15.4566 9.87525 15.4181C9.8175 15.3604 9.75013 15.3219 9.67313 15.3026C9.67313 15.2834 9.63463 15.2545 9.55763 15.216C9.48063 15.2352 9.40363 15.2641 9.32663 15.3026C9.24963 15.3219 9.17263 15.3507 9.09563 15.3892C9.07638 15.3892 9.0475 15.3989 9.009 15.4181C8.98975 15.4181 8.96088 15.4181 8.92238 15.4181H8.74913C8.67213 15.4181 8.624 15.4278 8.60475 15.447C8.60475 15.4662 8.5855 15.4951 8.547 15.5336C8.547 15.5529 8.53738 15.5625 8.51813 15.5625C8.51813 15.5625 8.51813 15.5721 8.51813 15.5914C8.47963 15.6684 8.46038 15.7261 8.46038 15.7646C8.44113 15.8031 8.4315 15.8609 8.4315 15.9379C8.4315 16.2074 8.5855 16.4095 8.8935 16.5442C8.932 16.5827 9.009 16.6212 9.1245 16.6597C9.29775 16.7367 9.48063 16.7945 9.67313 16.833C10.0389 16.9292 10.4528 17.0159 10.9148 17.0929L11.6366 17.1795C11.6751 17.1795 11.7136 17.1891 11.7521 17.2084C11.8099 17.2084 11.8484 17.2084 11.8676 17.2084L12.4163 17.295H12.5895C12.6088 17.3142 12.628 17.3239 12.6473 17.3239C12.705 17.3239 12.7628 17.3335 12.8205 17.3527C12.8975 17.3527 12.9745 17.3624 13.0515 17.3816C16.0545 17.9206 17.9988 18.9409 18.8843 20.4424C18.9035 20.4424 18.9131 20.452 18.9131 20.4712C19.0286 20.606 19.1153 20.7889 19.173 21.0199C19.1923 21.0584 19.2115 21.1065 19.2308 21.1642C19.25 21.2027 19.2693 21.2412 19.2885 21.2797L19.4618 21.7995C19.4618 21.8187 19.4618 21.8476 19.4618 21.8861C19.481 21.9054 19.4906 21.9246 19.4906 21.9439C19.5484 22.1171 19.5773 22.2904 19.5773 22.4636C19.5965 22.5791 19.6061 22.6946 19.6061 22.8101C19.6061 22.9064 19.6061 23.0026 19.6061 23.0989V23.4742C19.6061 24.1672 19.4906 24.8314 19.2596 25.4666C19.1249 25.9479 18.9613 26.3136 18.7688 26.5639L18.5666 26.8237ZM38.3248 29.2204C38.3055 29.2589 38.2959 29.307 38.2959 29.3647C38.2959 29.4032 38.2863 29.4417 38.267 29.4802C38.267 29.4995 38.2574 29.5187 38.2382 29.538C38.2382 29.5572 38.2285 29.5765 38.2093 29.5957C38.2093 29.5957 38.19 29.615 38.1515 29.6535C38.1323 29.7112 38.0649 29.7786 37.9494 29.8556C37.9109 29.9134 37.8628 29.9615 37.805 30C37.7473 30.077 37.6895 30.1636 37.6318 30.2599C37.5933 30.3561 37.5548 30.4428 37.5163 30.5198C37.4393 30.6738 37.3623 30.8374 37.2853 31.0106C37.2083 31.1839 37.1313 31.3571 37.0543 31.5304L36.9388 31.8191C36.9195 31.8576 36.9003 31.925 36.881 32.0213C36.8618 32.1368 36.8425 32.1656 36.8233 32.1079C36.7848 31.8384 36.7655 31.5689 36.7655 31.2994C36.7655 31.0299 36.7463 30.7604 36.7078 30.4909C36.7078 30.4909 36.6693 30.5101 36.5923 30.5486C36.573 30.5486 36.5634 30.5486 36.5634 30.5486C36.5634 30.5679 36.5538 30.5775 36.5345 30.5775C36.4575 30.7123 36.3805 30.8663 36.3035 31.0395C36.2458 31.2128 36.188 31.386 36.1303 31.5593C36.111 31.617 36.0918 31.6748 36.0725 31.7325C36.0533 31.8095 36.0244 31.8865 35.9859 31.9635C35.9474 32.0405 35.9089 32.1271 35.8704 32.2234C35.8319 32.3389 35.7645 32.4351 35.6683 32.5121C35.5335 32.6276 35.4084 32.5891 35.2929 32.3966C35.1967 32.2234 35.1293 32.0886 35.0908 31.9924C35.0523 31.9154 35.0042 31.8288 34.9464 31.7325C34.8887 31.6555 34.8405 31.5785 34.802 31.5015C34.7443 31.386 34.6865 31.2705 34.6288 31.155C34.571 31.0395 34.5229 30.924 34.4844 30.8085L34.3978 30.5486C34.34 30.5101 34.3112 30.5005 34.3112 30.5198C34.2727 30.8278 34.2534 31.1261 34.2534 31.4149C34.2534 31.7229 34.2342 32.0309 34.1957 32.3389C34.1764 32.3774 34.1572 32.3485 34.1379 32.2523C34.1187 32.1753 34.0994 32.1175 34.0802 32.079C34.0417 32.0213 34.0032 31.9346 33.9647 31.8191C33.8877 31.6651 33.8107 31.5015 33.7337 31.3283C33.6759 31.1743 33.5989 31.0299 33.5027 30.8951C33.3872 30.7026 33.2332 30.4813 33.0407 30.231C33.0214 30.3273 33.0022 30.4235 32.9829 30.5198C32.9829 30.616 32.9637 30.7123 32.9252 30.8085C32.9059 30.8278 32.8867 30.847 32.8674 30.8663C32.8482 30.8855 32.8289 30.9144 32.8097 30.9529C32.7327 30.9529 32.6942 30.9625 32.6942 30.9818L32.5498 30.6064C32.5498 30.6256 32.5402 30.6545 32.5209 30.693C32.5017 30.7315 32.4824 30.77 32.4632 30.8085C32.4439 30.8278 32.4247 30.8085 32.4054 30.7508C32.3862 30.693 32.3669 30.6545 32.3477 30.6353C32.3092 30.5583 32.2707 30.4716 32.2322 30.3754C32.1937 30.2984 32.1552 30.2214 32.1167 30.1444C32.0974 30.1059 32.0782 30.0578 32.0589 30C32.0589 29.9422 32.0397 29.8941 32.0012 29.8556C31.9627 29.8364 31.9338 29.8171 31.9145 29.7979C31.8953 29.7594 31.8664 29.7209 31.8279 29.6824C31.7894 29.6054 31.7605 29.5572 31.7413 29.538C31.7028 29.4225 31.6835 29.3262 31.6835 29.2492C31.6643 29.153 31.6547 29.0664 31.6547 28.9894C31.6739 28.8931 31.6835 28.7776 31.6835 28.6429V28.2675C31.6643 28.306 31.6258 28.3541 31.568 28.4119C31.5488 28.4696 31.4718 28.5659 31.337 28.7006L31.2504 28.7872C31.2504 28.8065 31.2408 28.8161 31.2215 28.8161C31.2215 28.8161 31.2215 28.8257 31.2215 28.845L30.8462 29.1915C30.7692 29.3647 30.7114 29.5476 30.6729 29.7401C30.6344 29.9134 30.5382 30.0578 30.3842 30.1733C30.2494 30.2888 30.1628 30.2695 30.1243 30.1155C30.105 30.1925 30.0762 30.2503 30.0377 30.2888C29.9992 30.3465 29.9318 30.4331 29.8355 30.5486L29.6912 30.693C29.5757 30.77 29.4794 30.8663 29.4024 30.9818L29.1714 31.4726C29.1522 31.5111 29.1137 31.5785 29.0559 31.6748C29.0174 31.771 28.9789 31.8384 28.9404 31.8769C28.8634 31.8961 28.8057 31.8769 28.7672 31.8191C28.7479 31.7614 28.7287 31.7133 28.7094 31.6748C28.6902 31.617 28.6709 31.5496 28.6517 31.4726C28.6324 31.4149 28.6132 31.3571 28.5939 31.2994C28.5747 31.2031 28.5554 31.1069 28.5362 31.0106C28.5362 30.9144 28.5169 30.8278 28.4784 30.7508C28.4014 30.6738 28.3437 30.6064 28.3052 30.5486H28.2763C28.257 30.5486 28.2378 30.539 28.2185 30.5198C28.1993 30.5005 28.18 30.5005 28.1608 30.5198C28.1415 30.7123 28.1223 30.9048 28.103 31.0973C28.103 31.2898 28.0838 31.4823 28.0453 31.6748C28.0453 31.694 28.0357 31.6748 28.0164 31.617C27.9972 31.5593 27.9683 31.5208 27.9298 31.5015C27.9105 31.463 27.8913 31.4341 27.872 31.4149C27.8528 31.3956 27.8335 31.3668 27.8143 31.3283C27.795 31.2128 27.7854 31.0876 27.7854 30.9529C27.7854 30.8374 27.7662 30.7219 27.7277 30.6064C27.7084 30.6256 27.6988 30.6256 27.6988 30.6064C27.6795 30.6256 27.6507 30.6353 27.6122 30.6353C27.6122 30.6545 27.6025 30.6641 27.5833 30.6641C27.564 30.6834 27.5448 30.7026 27.5255 30.7219C27.5255 30.7411 27.5063 30.7604 27.4678 30.7796C27.4485 30.7989 27.4197 30.7989 27.3812 30.7796C27.3427 30.7796 27.3042 30.7796 27.2657 30.7796C27.1117 30.7604 26.9962 30.7026 26.9192 30.6064C26.8422 30.5294 26.7748 30.4235 26.717 30.2888H26.5727C26.5342 30.2888 26.4957 30.2791 26.4572 30.2599C26.4187 30.2599 26.3802 30.2599 26.3417 30.2599C26.2262 30.2599 26.1395 30.2503 26.0818 30.231C25.9278 30.2118 25.7738 30.1829 25.6198 30.1444C25.4658 30.1251 25.3118 30.0866 25.1578 30.0289C25.023 30.0096 24.8883 29.9615 24.7535 29.8845C24.561 29.8075 24.3685 29.7209 24.176 29.6246C24.0028 29.5284 23.8295 29.4225 23.6563 29.307C23.3098 29.0567 23.021 28.7872 22.79 28.4985C22.6938 28.4022 22.6072 28.2964 22.5302 28.1809C22.4532 28.0461 22.3665 27.9114 22.2703 27.7766C22.02 27.3724 21.8083 26.9104 21.635 26.3906C21.481 25.8516 21.3752 25.2645 21.3174 24.6292C21.2597 24.1865 21.2404 23.6956 21.2597 23.1566C21.2789 22.6176 21.2885 22.146 21.2885 21.7417V15.7646C21.2885 15.5914 21.3367 15.4374 21.4329 15.3026L21.6062 15.1294C21.7409 15.0331 21.8853 14.985 22.0393 14.985C22.2125 14.985 22.3762 14.985 22.5302 14.985H27.5833C27.6603 14.985 27.7565 15.0042 27.872 15.0427C28.0453 15.1005 28.1608 15.1871 28.2185 15.3026C28.257 15.3411 28.2955 15.4181 28.334 15.5336C28.3533 15.6106 28.3629 15.7357 28.3629 15.909V23.7052C28.4014 23.9555 28.4592 24.1961 28.5362 24.4271C28.6324 24.6389 28.8249 24.8314 29.1137 25.0046C29.2292 25.0431 29.3062 25.0624 29.3447 25.0624C29.4409 25.0816 29.5179 25.1009 29.5757 25.1201C29.6527 25.1201 29.7297 25.1201 29.8067 25.1201C29.9029 25.1201 29.9799 25.1201 30.0377 25.1201C30.1147 25.1009 30.1917 25.0816 30.2687 25.0624C30.3072 25.0624 30.336 25.0527 30.3553 25.0335C30.3938 25.0142 30.4323 24.995 30.4708 24.9757C30.5285 24.9565 30.5767 24.9372 30.6152 24.918L30.8462 24.7736C30.9424 24.6389 31.0387 24.4849 31.1349 24.3116C31.1734 24.2154 31.1927 24.1191 31.1927 24.0229C31.2119 23.9266 31.2312 23.8304 31.2504 23.7341V15.7646C31.2504 15.5529 31.3274 15.37 31.4814 15.216C31.6354 15.062 31.8183 14.985 32.03 14.985H37.0543C37.3045 14.985 37.4874 14.985 37.6029 14.985C37.7377 14.985 37.8917 15.062 38.0649 15.216C38.1612 15.3122 38.2189 15.4181 38.2382 15.5336C38.2767 15.6299 38.2959 15.7261 38.2959 15.8224C38.3152 15.9186 38.3152 16.0245 38.2959 16.14C38.2959 16.2555 38.2959 16.3614 38.2959 16.4576V28.4119C38.2959 28.4889 38.2959 28.5659 38.2959 28.6429C38.2959 28.7199 38.3055 28.8065 38.3248 28.9027V29.2204ZM31.8857 29.769C31.8857 29.769 31.8953 29.7786 31.9145 29.7979C31.8953 29.7786 31.8857 29.769 31.8857 29.769ZM57.7816 22.9545C57.7816 23.0892 57.7816 23.2144 57.7816 23.3299C57.7816 23.4454 57.772 23.5512 57.7527 23.6475C57.7335 23.8977 57.7142 24.148 57.695 24.3982C57.6757 24.6292 57.6468 24.8602 57.6083 25.0912C57.5698 25.38 57.5121 25.6687 57.4351 25.9575C57.3773 26.2462 57.2811 26.5254 57.1463 26.7949L56.9153 27.228C56.7228 27.6322 56.463 28.0172 56.1357 28.383C56.1165 28.4215 56.0683 28.4792 55.9913 28.5562C55.9143 28.6525 55.8181 28.7487 55.7026 28.845C55.5871 28.922 55.4812 29.0086 55.385 29.1049C55.2695 29.2396 55.154 29.3647 55.0385 29.4802C54.9422 29.5765 54.846 29.692 54.7497 29.8267C54.7497 29.8267 54.7401 29.8364 54.7208 29.8556C54.7208 29.8556 54.7112 29.8556 54.692 29.8556L54.4321 30.2888C54.2011 30.5775 53.9893 30.9529 53.7968 31.4149C53.6043 31.8961 53.4215 32.3774 53.2482 32.8586C53.075 33.3399 52.8825 33.7249 52.6707 34.0136C52.6515 34.0329 52.6322 34.0618 52.613 34.1003C52.613 34.158 52.5937 34.2061 52.5552 34.2446C52.5552 34.2639 52.5456 34.2735 52.5263 34.2735C52.5263 34.2928 52.5071 34.3409 52.4686 34.4179C52.4108 34.5141 52.3531 34.6104 52.2953 34.7066C52.2568 34.8029 52.1895 34.8991 52.0932 34.9954C52.074 35.0531 52.0355 35.0916 51.9777 35.1109L51.8911 35.1975C51.8526 35.621 51.8237 36.1408 51.8045 36.7568C51.8045 37.392 51.7852 37.931 51.7467 38.3738C51.7467 38.393 51.7178 38.4123 51.6601 38.4315C51.6216 38.47 51.6023 38.4796 51.6023 38.4604C51.5446 38.0176 51.5157 37.4594 51.5157 36.7856C51.5157 36.1311 51.4965 35.5921 51.458 35.1686C51.4002 35.1301 51.3713 35.0916 51.3713 35.0531C51.3521 35.0339 51.3425 34.9858 51.3425 34.9088C51.3425 34.851 51.3425 34.8125 51.3425 34.7933C51.3425 34.7355 51.3521 34.6874 51.3713 34.6489C51.3521 34.6874 51.2943 34.7259 51.1981 34.7644C51.1788 34.7644 51.1596 34.7548 51.1403 34.7355C51.1403 34.7355 51.1307 34.7355 51.1115 34.7355C51.073 34.7163 51.0345 34.6874 50.996 34.6489C51.0152 34.8991 51.0345 35.1398 51.0537 35.3708C51.0922 35.6018 51.0345 35.6788 50.8805 35.6018C50.688 35.5055 50.6302 35.313 50.7072 35.0243C50.7842 34.7355 50.8035 34.4756 50.765 34.2446C50.7457 34.2446 50.7168 34.235 50.6783 34.2158C50.6591 34.1965 50.6591 34.1869 50.6783 34.1869C50.6783 34.1676 50.6687 34.1484 50.6495 34.1291C50.6687 34.3216 50.6783 34.4949 50.6783 34.6489C50.6976 34.8221 50.6495 34.8799 50.534 34.8221C50.4762 34.7836 50.4281 34.7355 50.3896 34.6778C50.4281 34.928 50.4185 35.1109 50.3607 35.2264C50.3222 35.3611 50.226 35.3804 50.072 35.2841C49.841 35.1109 49.7255 34.8703 49.7255 34.5623C49.7447 34.2735 49.7928 33.9559 49.8698 33.6094C49.9661 33.2629 50.0046 32.9453 49.9853 32.6565C49.9468 32.618 49.9083 32.5603 49.8698 32.4833C49.8506 32.464 49.841 32.4448 49.841 32.4255C49.8025 32.31 49.7832 32.1945 49.7832 32.079C49.7832 31.8673 49.8121 31.6748 49.8698 31.5015C49.9083 31.3283 49.9372 31.155 49.9565 30.9818C49.9757 30.8278 49.9757 30.6834 49.9565 30.5486C49.918 30.5101 49.8795 30.4813 49.841 30.462C49.8217 30.462 49.8025 30.4428 49.7832 30.4043C49.764 30.3658 49.764 30.3658 49.7832 30.4043H49.7255V30.7219C49.7255 30.7604 49.7255 30.8085 49.7255 30.8663C49.7447 30.924 49.7543 30.9818 49.7543 31.0395C49.7736 31.1165 49.7832 31.1935 49.7832 31.2705C49.8025 31.3668 49.8121 31.4919 49.8121 31.6459C49.7928 31.7614 49.7543 31.7999 49.6966 31.7614C49.6581 31.7229 49.61 31.6844 49.5522 31.6459C49.533 31.6459 49.5233 31.6363 49.5233 31.617C49.4463 31.5015 49.4175 31.3571 49.4367 31.1839C49.456 31.0299 49.4752 30.8855 49.4945 30.7508C49.5137 30.6545 49.5233 30.5583 49.5233 30.462C49.5426 30.385 49.5426 30.308 49.5233 30.231C49.5233 30.2118 49.5137 30.2021 49.4945 30.2021C49.4945 30.2021 49.4945 30.1925 49.4945 30.1733L49.2923 30.0866L49.2635 30.0578C49.2442 30.0578 49.2346 30.0481 49.2346 30.0289C49.2346 30.0289 49.225 30.0289 49.2057 30.0289C49.0902 29.9519 48.994 29.8556 48.917 29.7401C48.8592 29.7016 48.8015 29.6631 48.7437 29.6246C48.686 29.5669 48.6378 29.5091 48.5993 29.4514C48.5608 29.3744 48.5223 29.3262 48.4838 29.307C48.4453 29.2685 48.4068 29.2396 48.3683 29.2204C48.3298 29.1819 48.2817 29.1434 48.224 29.1049C48.1662 29.0471 48.1181 28.9894 48.0796 28.9316C48.0411 28.8931 48.0026 28.8546 47.9641 28.8161C47.9256 28.7584 47.8871 28.7006 47.8486 28.6429C47.8101 28.6044 47.7812 28.5755 47.762 28.5562C47.7235 28.4985 47.7235 28.4985 47.762 28.5562C47.8005 28.5947 47.8101 28.6717 47.7908 28.7872V34.3601C47.7908 34.4564 47.7908 34.5526 47.7908 34.6489C47.8101 34.7644 47.8005 34.8703 47.762 34.9665C47.762 34.9665 47.7427 35.005 47.7042 35.082C47.685 35.1013 47.6753 35.1109 47.6753 35.1109C47.6753 35.1301 47.6657 35.1494 47.6465 35.1686C47.608 35.2264 47.531 35.2938 47.4155 35.3708C47.3577 35.4478 47.2903 35.5248 47.2133 35.6018C47.1363 35.698 47.0401 35.7558 46.9246 35.775C46.8476 35.7943 46.7706 35.7846 46.6936 35.7461C46.6358 35.7269 46.5781 35.7076 46.5203 35.6884C46.4433 35.7654 46.376 35.8424 46.3182 35.9194C46.2605 36.0156 46.1931 36.1023 46.1161 36.1793C45.9236 36.3525 45.7311 36.391 45.5386 36.2948C45.3653 36.1985 45.1728 36.1408 44.9611 36.1215H44.7301C44.7108 36.1215 44.6916 36.1311 44.6723 36.1504C44.6531 36.1696 44.6338 36.1696 44.6146 36.1504C44.5953 36.0926 44.5857 36.0156 44.5857 35.9194L44.3547 36.1504C44.3355 36.1696 44.3066 36.1889 44.2681 36.2081C44.2296 36.2274 44.1911 36.2563 44.1526 36.2948C44.1333 36.314 44.1045 36.3525 44.066 36.4103C44.0467 36.4873 44.0082 36.5258 43.9505 36.5258C43.8735 36.5258 43.8157 36.4873 43.7772 36.4103C43.758 36.3525 43.7291 36.314 43.6906 36.2948C43.6906 36.2948 43.6906 36.2851 43.6906 36.2659C43.6906 36.2659 43.681 36.2659 43.6617 36.2659C43.6232 36.2466 43.5655 36.1985 43.4885 36.1215L43.2863 35.9483L43.1997 35.8616C43.1997 35.8616 43.1997 35.852 43.1997 35.8328C43.1997 35.8328 43.1901 35.8328 43.1708 35.8328C43.0938 35.7558 43.0361 35.7076 42.9976 35.6884L42.7088 35.7173C42.6896 35.7365 42.6415 35.7654 42.5645 35.8039C42.449 35.8616 42.3335 35.8616 42.218 35.8039C42.1987 35.8231 42.1795 35.8231 42.1602 35.8039C42.141 35.7846 42.1121 35.775 42.0736 35.775C42.0736 35.775 41.9581 35.7173 41.7271 35.6018C41.5153 35.4863 41.4095 35.4381 41.4095 35.4574C41.3325 35.4189 41.2651 35.3804 41.2073 35.3419C40.9956 35.1879 40.8897 34.9761 40.8897 34.7066V15.7646C40.8897 15.6491 40.8993 15.5625 40.9186 15.5047C40.9571 15.447 40.9956 15.3796 41.0341 15.3026C41.2073 15.0909 41.4095 14.985 41.6405 14.985C41.6982 14.985 41.756 14.985 41.8137 14.985C41.8715 14.9657 41.9292 14.9561 41.987 14.9561C42.1025 14.9561 42.2083 14.9657 42.3046 14.985C42.4201 14.985 42.526 14.985 42.6222 14.985H45.3076C45.4616 14.985 45.6156 14.985 45.7696 14.985C45.9428 14.9657 46.1065 14.9561 46.2605 14.9561C46.3375 14.9561 46.4145 14.9561 46.4915 14.9561C46.5685 14.9561 46.6455 14.9657 46.7225 14.985C46.7417 14.985 46.761 14.9946 46.7802 15.0139C46.7995 15.0139 46.8187 15.0139 46.838 15.0139C47.0112 15.0716 47.146 15.1871 47.2422 15.3604C47.2807 15.4374 47.3096 15.5047 47.3288 15.5625C47.3481 15.6202 47.3577 15.755 47.3577 15.9667V16.6309C47.3962 16.5924 47.4155 16.5635 47.4155 16.5442C47.4347 16.5442 47.4443 16.5442 47.4443 16.5442C47.4443 16.525 47.4443 16.5154 47.4443 16.5154L47.4732 16.4865C47.5502 16.4095 47.5983 16.3517 47.6176 16.3132C47.5983 16.3325 47.6368 16.294 47.7331 16.1977C47.8293 16.0822 47.8967 16.0149 47.9352 15.9956C47.993 15.9571 48.0411 15.9186 48.0796 15.8801C48.1373 15.8224 48.1855 15.7839 48.224 15.7646C48.378 15.6491 48.5223 15.5432 48.6571 15.447C48.8111 15.3507 48.9651 15.2641 49.1191 15.1871C49.1576 15.1486 49.1961 15.1294 49.2346 15.1294C49.4656 14.9946 49.7158 14.8984 49.9853 14.8406C50.2741 14.7829 50.5532 14.7444 50.8227 14.7251C50.9575 14.7251 51.0633 14.7155 51.1403 14.6962H51.6023C52.0451 14.677 52.459 14.6962 52.844 14.754C53.229 14.7925 53.5177 14.8599 53.7102 14.9561C54.0182 15.0331 54.2973 15.139 54.5476 15.2737C54.8171 15.3892 55.0385 15.524 55.2117 15.678L55.4716 15.8512C55.5486 15.909 55.616 15.9667 55.6737 16.0245C55.7507 16.0822 55.8181 16.1496 55.8758 16.2266C56.4148 16.7656 56.848 17.4586 57.1752 18.3056C57.5025 19.1334 57.695 20.1536 57.7527 21.3664C57.772 21.6359 57.7816 21.8765 57.7816 22.0882C57.7816 22.3 57.7816 22.5406 57.7816 22.8101V22.9545ZM47.8197 23.9362C47.8582 24.1095 47.9063 24.2827 47.9641 24.456C48.0411 24.61 48.147 24.7447 48.2817 24.8602C48.4742 24.995 48.7052 25.072 48.9747 25.0912C49.0132 25.1105 49.0613 25.1201 49.1191 25.1201C49.1768 25.1201 49.225 25.1201 49.2635 25.1201L49.4945 25.0912C49.5715 25.072 49.6388 25.0624 49.6966 25.0624C49.7736 25.0431 49.841 25.0239 49.8987 25.0046L50.0431 24.918C50.2548 24.764 50.3992 24.5811 50.4762 24.3694C50.5725 24.1384 50.6398 23.8304 50.6783 23.4454C50.6976 23.3491 50.7072 23.2529 50.7072 23.1566C50.7072 23.0604 50.7072 22.9737 50.7072 22.8967V22.0594C50.7072 21.9631 50.6976 21.8572 50.6783 21.7417C50.6783 21.6262 50.6687 21.5107 50.6495 21.3952C50.6495 21.299 50.6398 21.222 50.6206 21.1642C50.6013 20.9332 50.5436 20.7311 50.4473 20.5579C50.3511 20.3654 50.2452 20.221 50.1297 20.1247C50.0527 20.067 49.9757 20.0381 49.8987 20.0381C49.841 20.0381 49.764 20.0381 49.6677 20.0381C49.5137 20.0381 49.3501 20.0381 49.1768 20.0381C49.0036 20.0381 48.84 20.0477 48.686 20.067C48.6282 20.0862 48.5608 20.1055 48.4838 20.1247C48.4068 20.1247 48.3395 20.144 48.2817 20.1825C48.147 20.3172 48.0411 20.4712 47.9641 20.6445C47.9063 20.8177 47.8582 21.0006 47.8197 21.1931C47.8197 21.2701 47.8101 21.3567 47.7908 21.453C47.7908 21.53 47.7908 21.607 47.7908 21.684C47.7716 21.7802 47.762 21.8861 47.762 22.0016C47.762 22.0979 47.762 22.1941 47.762 22.2904C47.7427 22.5021 47.7331 22.7139 47.7331 22.9256C47.7523 23.1374 47.7716 23.3876 47.7908 23.6764V23.8207C47.8101 23.84 47.8197 23.8785 47.8197 23.9362ZM50.303 31.8769C50.3222 31.8384 50.3318 31.7903 50.3318 31.7325C50.3318 31.694 50.3415 31.6555 50.3607 31.617C50.38 31.5015 50.3896 31.386 50.3896 31.2705C50.4088 31.1743 50.4185 31.0684 50.4185 30.9529C50.4185 30.8759 50.4185 30.8374 50.4185 30.8374C50.4185 30.8374 50.3896 30.8278 50.3318 30.8085C50.3318 30.8085 50.3222 30.7989 50.303 30.7796C50.2837 30.7604 50.2548 30.7315 50.2163 30.693H50.1875V30.9529C50.1875 31.0491 50.1875 31.1454 50.1875 31.2416C50.2067 31.3571 50.226 31.463 50.2452 31.5593C50.2645 31.5978 50.2741 31.6459 50.2741 31.7036C50.2741 31.7614 50.2837 31.8191 50.303 31.8769ZM50.6495 30.9529V31.2128L50.7072 31.7903C50.7265 31.694 50.7361 31.6074 50.7361 31.5304C50.7553 31.4726 50.765 31.3764 50.765 31.2416V31.0106C50.7265 30.9721 50.688 30.9529 50.6495 30.9529ZM51.0537 31.2128C51.1307 31.3668 51.1692 31.5593 51.1692 31.7903C51.1692 31.848 51.1692 31.9058 51.1692 31.9635C51.1692 32.0213 51.1596 32.079 51.1403 32.1368V32.1656C51.1788 32.4736 51.227 32.7913 51.2847 33.1185C51.3425 33.4458 51.381 33.773 51.4002 34.1003V34.2735C51.4195 34.2158 51.4291 34.158 51.4291 34.1003C51.4291 34.0618 51.4387 34.0233 51.458 33.9848C51.458 33.9463 51.458 33.8885 51.458 33.8115C51.4772 33.7345 51.4868 33.696 51.4868 33.696C51.5446 33.2533 51.5735 32.7913 51.5735 32.31C51.5927 31.848 51.4772 31.4823 51.227 31.2128C51.1692 31.1358 51.1211 31.0973 51.0826 31.0973C51.0633 31.1165 51.0537 31.1454 51.0537 31.1839H51.0248C51.0248 31.1839 51.0248 31.1743 51.0248 31.155C51.0248 31.155 51.0152 31.1454 50.996 31.1261C50.9382 31.0491 50.8997 31.0106 50.8805 31.0106C50.8612 31.0299 50.8516 31.078 50.8516 31.155C50.8708 31.2513 50.8805 31.309 50.8805 31.3283C50.8997 31.4823 50.919 31.6363 50.9382 31.7903C50.9767 31.9443 51.0056 32.0983 51.0248 32.2523L51.0826 32.5699C51.1018 32.5121 51.1115 32.4544 51.1115 32.3966C51.1115 32.3389 51.1211 32.2811 51.1403 32.2234V32.1945C51.0826 31.8673 51.0441 31.6363 51.0248 31.5015C51.0248 31.386 51.0345 31.2898 51.0537 31.2128ZM50.3607 34.389C50.38 34.2543 50.3992 34.1195 50.4185 33.9848C50.4377 33.85 50.4377 33.7249 50.4185 33.6094C50.3992 33.6094 50.3703 33.5998 50.3318 33.5805C50.3126 33.5613 50.3126 33.5516 50.3318 33.5516C50.3126 33.5324 50.303 33.5131 50.303 33.4939C50.303 33.4939 50.2933 33.4843 50.2741 33.465C50.2548 33.4458 50.2452 33.4169 50.2452 33.3784C50.2452 33.3591 50.2356 33.3399 50.2163 33.3206C50.2356 33.4939 50.2548 33.6671 50.2741 33.8404C50.3126 34.0329 50.3415 34.2158 50.3607 34.389ZM70.2883 33.9559C70.269 34.0521 70.2594 34.2061 70.2594 34.4179C70.2594 34.6296 70.2305 34.6874 70.1728 34.5911C70.0958 34.4371 70.0765 34.2543 70.115 34.0425C70.1728 33.85 70.1535 33.6768 70.0573 33.5228C70.0188 33.4458 69.9995 33.4843 69.9995 33.6383C69.9995 33.8115 69.9995 33.9751 69.9995 34.1291C69.9995 34.2831 69.9803 34.3313 69.9418 34.2735C69.8648 34.081 69.8359 33.8789 69.8552 33.6671C69.8937 33.4746 69.8937 33.2821 69.8552 33.0896C69.7589 33.0126 69.6627 32.926 69.5664 32.8298C69.4894 32.7335 69.422 32.6469 69.3643 32.5699C69.2873 32.4736 69.2199 32.3774 69.1622 32.2811C69.1044 32.2041 69.0467 32.1271 68.9889 32.0501C68.8349 31.8961 68.6905 31.7036 68.5558 31.4726L68.2093 30.8663C68.2093 30.847 68.1804 30.7796 68.1227 30.6641C68.0649 30.5679 68.0168 30.5005 67.9783 30.462C67.9398 30.4235 67.9013 30.3946 67.8628 30.3754C67.7858 30.3754 67.7473 30.4043 67.7473 30.462C67.728 30.6545 67.7184 30.8374 67.7184 31.0106C67.7184 31.2031 67.6992 31.3956 67.6607 31.5881C67.6607 31.6266 67.651 31.5978 67.6318 31.5015C67.6125 31.4053 67.6029 31.3283 67.6029 31.2705C67.5837 31.1165 67.5644 30.9529 67.5452 30.7796C67.5452 30.6064 67.5355 30.4428 67.5163 30.2888H67.343C66.188 30.2503 65.1389 30.0866 64.1957 29.7979C63.2524 29.5091 62.4439 29.0664 61.7702 28.4696L61.5969 28.3252L61.3948 28.1231C60.8943 27.5841 60.4804 26.9489 60.1532 26.2174C59.8452 25.4859 59.643 24.6196 59.5468 23.6186C59.5275 23.6186 59.5179 23.5994 59.5179 23.5609C59.4987 23.5224 59.489 23.4261 59.489 23.2721C59.489 23.2529 59.489 23.2336 59.489 23.2144C59.5083 23.1951 59.5179 23.1759 59.5179 23.1566C59.4987 23.0604 59.489 22.9641 59.489 22.8679C59.489 22.7524 59.489 22.6369 59.489 22.5214V22.3192C59.5083 21.1642 59.6912 20.1344 60.0377 19.2296C60.3842 18.3249 60.8654 17.5549 61.4814 16.9196C61.5199 16.9004 61.5392 16.8811 61.5392 16.8619C61.5584 16.8426 61.5777 16.8234 61.5969 16.8041C61.6162 16.7849 61.6547 16.756 61.7124 16.7175C61.7702 16.6597 61.799 16.6309 61.799 16.6309C61.8568 16.5731 61.9049 16.5346 61.9434 16.5154C63.3679 15.3026 65.2929 14.6962 67.7184 14.6962H68.3248C68.4018 14.6962 68.4499 14.7059 68.4692 14.7251C68.6424 14.7251 68.7675 14.7347 68.8445 14.754C69.114 14.7347 69.3162 14.754 69.4509 14.8117C69.5472 14.831 69.6434 14.8502 69.7397 14.8695C69.8359 14.8695 69.9322 14.8887 70.0284 14.9272C71.0294 15.1197 71.8957 15.4566 72.6272 15.9379C73.3587 16.3999 73.965 16.9581 74.4463 17.6126C74.5425 17.6896 74.6195 17.7859 74.6773 17.9014C74.735 18.0169 74.7928 18.1227 74.8505 18.219L75.0815 18.6232C75.1008 18.681 75.12 18.7387 75.1393 18.7965C75.1778 18.835 75.2067 18.8831 75.2259 18.9409C75.2644 18.9986 75.2933 19.0564 75.3125 19.1141C75.3318 19.1719 75.351 19.2296 75.3703 19.2874C75.4665 19.5569 75.5532 19.836 75.6302 20.1247C75.7264 20.4135 75.7938 20.7022 75.8323 20.991C75.8323 21.068 75.8419 21.1257 75.8612 21.1642C75.8997 21.3182 75.9189 21.4722 75.9189 21.6262C75.9189 21.7802 75.9285 21.9342 75.9478 22.0882V23.4165C75.9478 23.686 75.8323 23.9074 75.6013 24.0806C75.5435 24.1191 75.4762 24.1769 75.3992 24.2539C75.3607 24.3501 75.3222 24.3982 75.2837 24.3982C75.2837 24.3982 75.2452 24.3597 75.1682 24.2827C75.1297 24.2827 75.0719 24.2924 74.9949 24.3116C74.9179 24.3309 74.8602 24.3501 74.8217 24.3694C74.7447 24.3886 74.6773 24.4079 74.6195 24.4271C74.5618 24.4271 74.4944 24.4271 74.4174 24.4271C74.2634 24.4464 74.119 24.4849 73.9843 24.5426C73.8495 24.6004 73.7052 24.6485 73.5512 24.687C73.4357 24.7062 73.3105 24.7159 73.1758 24.7159C73.041 24.7159 72.9063 24.7159 72.7715 24.7159C72.5983 24.7351 72.4347 24.7736 72.2807 24.8314C72.1459 24.8891 72.0015 24.9084 71.8475 24.8891C71.732 24.8699 71.6165 24.8506 71.501 24.8314C71.3855 24.7929 71.2604 24.764 71.1257 24.7447C71.0487 24.764 70.9717 24.7832 70.8947 24.8025C70.8369 24.8217 70.7695 24.841 70.6925 24.8602C70.6348 24.8795 70.577 24.8891 70.5193 24.8891C70.4615 24.8891 70.4038 24.9084 70.346 24.9469C70.2883 24.9854 70.2017 25.0624 70.0862 25.1779H74.042C74.119 25.1779 74.196 25.1779 74.273 25.1779C74.3693 25.1586 74.4655 25.149 74.5618 25.149H74.7062C74.8217 25.149 74.9564 25.1682 75.1104 25.2067C75.1489 25.2067 75.1778 25.2164 75.197 25.2356C75.2163 25.2356 75.2355 25.2356 75.2548 25.2356C75.3895 25.2934 75.4858 25.3992 75.5435 25.5532C75.582 25.6687 75.5917 25.765 75.5724 25.842C75.5724 25.9767 75.5435 26.1307 75.4858 26.304L75.3992 26.535C75.2837 26.843 75.1297 27.1029 74.9372 27.3146C74.8602 27.4109 74.7832 27.5071 74.7062 27.6034C74.6292 27.6996 74.5425 27.7959 74.4463 27.8921C74.3693 27.9691 74.2923 28.0461 74.2153 28.1231C74.1383 28.2001 74.0517 28.2771 73.9554 28.3541L73.7822 28.5274C73.6859 28.6236 73.5993 28.7391 73.5223 28.8739C73.4645 28.9894 73.3972 29.1049 73.3202 29.2204C73.2624 29.2781 73.2239 29.3262 73.2047 29.3647C73.2432 29.3262 73.2432 29.3455 73.2047 29.4225C73.1662 29.4995 73.1277 29.5187 73.0892 29.4802C73.0507 29.5765 73.0025 29.6631 72.9448 29.7401C72.9063 29.8171 72.8485 29.9326 72.7715 30.0866C72.733 30.1829 72.6849 30.2695 72.6272 30.3465C72.5887 30.4428 72.5502 30.539 72.5117 30.6353C72.3962 30.847 72.2903 31.0203 72.194 31.155C72.1748 31.2128 72.1459 31.2609 72.1074 31.2994C72.0882 31.3571 72.0593 31.4053 72.0208 31.4438L71.9053 31.617C71.886 31.6363 71.8668 31.6651 71.8475 31.7036C71.8283 31.7421 71.7994 31.7806 71.7609 31.8191C71.6454 31.9539 71.5299 32.079 71.4144 32.1945C71.2989 32.3293 71.1834 32.464 71.0679 32.5988L70.8658 32.8009C70.8273 32.8586 70.7792 32.9164 70.7214 32.9741C70.6829 33.0319 70.6348 33.08 70.577 33.1185C70.5 33.1955 70.4423 33.234 70.4038 33.234C70.3845 33.3495 70.3653 33.465 70.346 33.5805C70.346 33.7153 70.3268 33.8404 70.2883 33.9559ZM66.6789 20.5867H66.8233C67.0735 20.5867 67.3238 20.5867 67.574 20.5867C67.8243 20.5675 68.0745 20.5675 68.3248 20.5867L68.8734 20.5579V20.2114C68.8542 20.1921 68.8445 20.1729 68.8445 20.1536C68.8445 20.0766 68.8349 19.99 68.8157 19.8937C68.8157 19.7975 68.806 19.7109 68.7868 19.6339L68.6135 19.2296C68.5943 19.2104 68.5847 19.2007 68.5847 19.2007C68.5847 19.1815 68.575 19.1622 68.5558 19.143C68.4595 19.0082 68.3537 18.9216 68.2382 18.8831C68.2382 18.8639 68.2093 18.8542 68.1515 18.8542H68.1227C67.9879 18.8542 67.8532 18.8639 67.7184 18.8831C67.5837 18.8831 67.4489 18.8927 67.3142 18.912C67.2757 18.9312 67.2179 18.9505 67.1409 18.9697C67.0832 18.9697 67.0254 18.989 66.9677 19.0275C66.9484 19.0467 66.9388 19.066 66.9388 19.0852C66.9388 19.0852 66.9292 19.0949 66.9099 19.1141C66.8714 19.1526 66.8425 19.2007 66.8233 19.2585C66.804 19.3162 66.7752 19.3644 66.7367 19.4029C66.6212 19.7109 66.5634 19.9322 66.5634 20.067C66.5827 20.2017 66.6212 20.375 66.6789 20.5867ZM67.4585 26.073C67.497 26.0922 67.6125 26.1019 67.805 26.1019C67.9205 26.0634 68.0264 26.0056 68.1227 25.9286C68.2382 25.8516 68.3344 25.7746 68.4114 25.6976L68.6713 25.4377C68.8253 25.3222 68.9408 25.2549 69.0178 25.2356C69.0948 25.2164 69.1814 25.1971 69.2777 25.1779C69.1429 25.1394 69.0082 25.1009 68.8734 25.0624C68.7579 25.0239 68.6328 24.9854 68.498 24.9469C68.2863 24.8699 68.0745 24.7832 67.8628 24.687C67.6703 24.5907 67.4682 24.5041 67.2564 24.4271L66.6789 24.2539C66.6404 24.2154 66.6019 24.1961 66.5634 24.1961V24.3405C66.5634 24.3597 66.5634 24.4464 66.5634 24.6004C66.5827 24.7351 66.5923 24.8217 66.5923 24.8602C66.6115 25.072 66.6597 25.2837 66.7367 25.4955C66.8329 25.688 66.958 25.842 67.112 25.9575L67.343 26.0441C67.3623 26.0634 67.4008 26.073 67.4585 26.073ZM91.2529 19.3451C91.2529 19.4606 91.2529 19.5761 91.2529 19.6916C91.2721 19.8071 91.2818 19.9322 91.2818 20.067C91.2818 20.144 91.2818 20.221 91.2818 20.298C91.2818 20.375 91.2625 20.452 91.224 20.529C91.1663 20.683 91.07 20.8081 90.9353 20.9044C90.9353 20.9044 90.9256 20.9044 90.9064 20.9044C90.9064 20.9044 90.9064 20.914 90.9064 20.9332C90.8871 20.9332 90.8679 20.9429 90.8486 20.9621C90.8486 20.9621 90.839 20.9621 90.8198 20.9621C90.7235 21.0969 90.6369 21.2316 90.5599 21.3664C90.4829 21.5011 90.3963 21.6262 90.3 21.7417C90.2808 21.761 90.2615 21.7899 90.2423 21.8284C90.223 21.8476 90.1941 21.8669 90.1556 21.8861C90.1364 21.8861 90.1171 21.8957 90.0979 21.915C90.0979 21.915 90.0883 21.9246 90.069 21.9439C90.069 21.9439 90.0594 21.9439 90.0401 21.9439C90.0209 21.9631 89.992 22.0979 89.9535 22.3481C89.915 22.5984 89.8669 22.762 89.8091 22.839C89.7899 22.8582 89.7514 22.8486 89.6936 22.8101C89.6359 22.6946 89.607 22.5695 89.607 22.4347C89.5878 22.3385 89.5685 22.2326 89.5493 22.1171C89.5493 22.0016 89.53 21.8861 89.4915 21.7706L89.3183 21.5974C89.2798 21.5589 89.2124 21.4915 89.1161 21.3952C89.0391 21.299 88.9525 21.2124 88.8563 21.1354L88.8274 21.1065C88.8081 21.1065 88.7985 21.1161 88.7985 21.1354C88.7985 21.1354 88.7889 21.1354 88.7696 21.1354C88.7311 21.1739 88.683 21.2316 88.6253 21.3086C88.5868 21.3664 88.529 21.4049 88.452 21.4241C88.3558 21.4434 88.2788 21.4049 88.221 21.3086C88.2018 21.3279 88.1536 21.3375 88.0766 21.3375C87.9996 21.3375 87.9419 21.3279 87.9034 21.3086L87.759 21.6551C87.7013 21.7899 87.6339 21.9054 87.5569 22.0016C87.4991 22.0979 87.4221 22.1941 87.3259 22.2904C87.2681 22.3481 87.2104 22.4155 87.1526 22.4925C87.0949 22.5502 87.0371 22.5984 86.9794 22.6369C86.9024 22.7139 86.8639 22.7331 86.8639 22.6946C86.8254 22.4636 86.8061 22.2807 86.8061 22.146C86.8254 21.992 86.8061 21.7899 86.7484 21.5396C86.7099 21.5589 86.6714 21.5877 86.6329 21.6262C86.5559 21.6647 86.5174 21.6936 86.5174 21.7129C86.4789 21.8476 86.45 21.992 86.4308 22.146C86.4308 22.3 86.4115 22.4444 86.373 22.5791C86.3538 22.5984 86.3249 22.5984 86.2864 22.5791C86.2671 22.5599 86.2479 22.5406 86.2286 22.5214C86.2094 22.3674 86.1901 22.223 86.1709 22.0882C86.1709 21.9535 86.1516 21.8187 86.1131 21.684C86.1131 21.6455 86.0939 21.6262 86.0554 21.6262C86.0361 21.607 86.0169 21.5877 85.9976 21.5685C85.9976 21.5685 85.988 21.5589 85.9688 21.5396C85.9495 21.5204 85.9206 21.5011 85.8821 21.4819C85.8821 21.5781 85.8629 21.6455 85.8244 21.684C85.8244 21.684 85.7763 21.6359 85.68 21.5396H85.6223C85.603 21.5396 85.5838 21.53 85.5645 21.5108C85.5645 21.4722 85.5549 21.4434 85.5356 21.4241C85.5164 21.4434 85.4971 21.4626 85.4779 21.4819C85.4586 21.4819 85.4394 21.4915 85.4201 21.5108C85.3816 21.5685 85.3431 21.6262 85.3046 21.684C85.2661 21.7417 85.2276 21.7995 85.1891 21.8572C85.1699 21.8765 85.1603 21.9054 85.1603 21.9439C85.1603 21.9631 85.1506 21.992 85.1314 22.0305C85.0736 22.2037 85.0351 22.3866 85.0159 22.5791C85.0159 22.7716 85.0159 22.9641 85.0159 23.1566V28.8739C85.0159 28.9701 85.0159 29.076 85.0159 29.1915C85.0351 29.2877 85.0255 29.384 84.987 29.4802C84.987 29.4995 84.9774 29.5187 84.9581 29.538C84.9581 29.538 84.9581 29.5476 84.9581 29.5669C84.9581 29.5669 84.9389 29.5861 84.9004 29.6246C84.8234 29.7401 84.756 29.8171 84.6983 29.8556C84.7368 29.8171 84.7175 29.8364 84.6405 29.9134C84.5635 29.9711 84.5154 30.0193 84.4961 30.0578C84.4961 30.077 84.4865 30.0963 84.4673 30.1155C84.448 30.154 84.4288 30.2021 84.4095 30.2599C84.4095 30.3176 84.3806 30.3369 84.3229 30.3176C84.3229 30.3369 84.3133 30.3465 84.294 30.3465C84.2555 30.4235 84.2363 30.4716 84.2363 30.4909C84.1978 30.5294 84.1593 30.5775 84.1208 30.6353C84.1015 30.693 84.0726 30.7508 84.0341 30.8085C83.8801 31.078 83.7743 31.2513 83.7165 31.3283C83.678 31.4245 83.5721 31.5785 83.3989 31.7903C83.3796 31.8095 83.3508 31.8288 83.3123 31.848C83.293 31.8865 83.2641 31.925 83.2256 31.9635C83.2064 31.9828 83.1679 32.0598 83.1101 32.1945C83.0524 32.3293 83.0043 32.4063 82.9658 32.4255C82.9465 32.4448 82.908 32.4063 82.8503 32.31C82.831 32.2523 82.8214 32.1849 82.8214 32.1079C82.8214 32.0501 82.8021 31.9924 82.7636 31.9346L82.5904 31.7325C82.5134 31.6555 82.446 31.5593 82.3883 31.4438C82.2728 31.2898 82.1765 31.1261 82.0995 30.9529C82.0225 30.7796 81.9359 30.6064 81.8396 30.4331C81.8396 30.4139 81.83 30.4043 81.8108 30.4043C81.8108 30.4043 81.8108 30.3946 81.8108 30.3754C81.753 30.3176 81.7241 30.308 81.7241 30.3465C81.6856 30.5005 81.6664 30.6641 81.6664 30.8374C81.6856 31.0106 81.6664 31.1743 81.6086 31.3283C81.5894 31.386 81.5701 31.3571 81.5509 31.2416C81.5316 31.1261 81.5124 31.0395 81.4931 30.9818L81.2621 30.3176V30.2888C81.2044 30.3465 81.1659 30.3754 81.1466 30.3754C81.1081 30.3754 81.0696 30.3561 81.0311 30.3176C80.9734 30.4524 80.9156 30.5871 80.8579 30.7219C80.8194 30.8566 80.7616 31.001 80.6846 31.155C80.6654 31.1743 80.6461 31.2031 80.6269 31.2416C80.6269 31.2994 80.6076 31.3475 80.5691 31.386C80.5499 31.4053 80.5306 31.4438 80.5114 31.5015C80.4921 31.5785 80.4729 31.5978 80.4536 31.5593C80.3959 31.2513 80.3863 31.0491 80.4248 30.9529C80.4633 30.8759 80.4055 30.7123 80.2515 30.462C80.1938 30.5005 80.1456 30.5583 80.1071 30.6353C80.0879 30.77 80.0686 30.9144 80.0494 31.0684C80.0494 31.2224 80.0301 31.3764 79.9916 31.5304C79.9916 31.5496 79.9628 31.6074 79.905 31.7036C79.8665 31.8191 79.8184 31.8865 79.7606 31.9057C79.6644 31.925 79.5874 31.8576 79.5296 31.7036C79.4719 31.5496 79.4334 31.4534 79.4141 31.4149C79.3371 31.2416 79.2794 31.0588 79.2409 30.8663C79.2216 30.693 79.1735 30.5294 79.0965 30.3754C79.058 30.3369 79.0195 30.2984 78.981 30.2599C78.9425 30.2214 78.904 30.1829 78.8655 30.1444C78.8078 30.1059 78.7789 30.0674 78.7789 30.0289C78.7404 30.0096 78.6826 30 78.6056 30C78.5864 30 78.5671 30 78.5479 30C78.5479 29.9807 78.5286 29.9711 78.4901 29.9711C78.3361 29.9134 78.211 29.8171 78.1148 29.6824C78.0763 29.6439 78.0378 29.5669 77.9993 29.4514C77.9608 29.3166 77.9415 29.1626 77.9415 28.9894C77.9608 28.8161 77.9704 28.6621 77.9704 28.5274V18.1324C77.9704 17.8436 77.9704 17.526 77.9704 17.1795C77.9704 16.8137 77.9608 16.448 77.9415 16.0822C77.9415 15.986 77.9415 15.8897 77.9415 15.7935C77.9608 15.678 77.98 15.5817 77.9993 15.5047C78.057 15.3315 78.1629 15.1967 78.3169 15.1005C78.4131 15.062 78.4901 15.0331 78.5479 15.0139C78.6056 14.9946 78.6923 14.985 78.8078 14.985C78.9425 14.9657 79.0773 14.9657 79.212 14.985C79.3468 14.985 79.4719 14.985 79.5874 14.985H82.9369C83.0909 14.985 83.2545 14.9754 83.4278 14.9561C83.601 14.9369 83.7646 14.9465 83.9186 14.985C83.9764 14.985 84.0245 14.9946 84.063 15.0139C84.2555 15.0716 84.3806 15.1775 84.4384 15.3315C84.5346 15.4662 84.5828 15.6106 84.5828 15.7646V16.7752L84.756 16.602C84.7945 16.5827 84.8234 16.5635 84.8426 16.5442C84.8619 16.525 84.8715 16.5154 84.8715 16.5154C84.91 16.4769 85.0063 16.3999 85.1603 16.2844C85.3335 16.1689 85.4586 16.0919 85.5356 16.0534C85.6511 15.9571 85.7666 15.8801 85.8821 15.8224C86.0169 15.7454 86.142 15.678 86.2575 15.6202C86.4115 15.524 86.5751 15.447 86.7484 15.3892C86.9409 15.3315 87.1334 15.2834 87.3259 15.2449C87.8841 15.0716 88.4713 14.985 89.0873 14.985H89.5781C89.6744 14.985 89.7803 14.985 89.8958 14.985C90.0113 14.9657 90.1268 14.9561 90.2423 14.9561C90.377 14.9561 90.5021 14.9657 90.6176 14.985C90.7524 15.0042 90.8583 15.0524 90.9353 15.1294C91.0508 15.2064 91.1374 15.3122 91.1951 15.447C91.2336 15.5625 91.2529 15.6587 91.2529 15.7357V15.8801C91.2721 16.0149 91.2721 16.1496 91.2529 16.2844C91.2529 16.3999 91.2529 16.5154 91.2529 16.6309V19.3451ZM106.256 29.3647V29.4225C106.236 29.4417 106.227 29.461 106.227 29.4802C106.227 29.4995 106.217 29.5091 106.198 29.5091C106.198 29.5091 106.198 29.5187 106.198 29.538C106.198 29.5572 106.179 29.5861 106.14 29.6246C106.102 29.6824 106.054 29.7401 105.996 29.7979C105.957 29.8364 105.9 29.8749 105.823 29.9134C105.746 30.0289 105.688 30.1444 105.649 30.2599C105.63 30.3754 105.572 30.4813 105.476 30.5775C105.341 30.693 105.216 30.7219 105.101 30.6641C104.985 30.6256 104.889 30.539 104.812 30.4043C104.735 30.4043 104.696 30.4139 104.696 30.4331C104.677 30.5486 104.687 30.7026 104.725 30.8951C104.764 31.1069 104.783 31.2801 104.783 31.4149C104.783 31.5689 104.716 31.6363 104.581 31.617C104.388 31.5785 104.321 31.4341 104.379 31.1839C104.437 30.9529 104.465 30.7411 104.465 30.5486C104.388 30.7796 104.302 31.0395 104.206 31.3283C104.129 31.617 103.994 31.8384 103.801 31.9924C103.667 32.0886 103.541 32.0886 103.426 31.9924C103.31 31.8961 103.205 31.8095 103.108 31.7325C102.954 31.54 102.82 31.3379 102.704 31.1261C102.589 30.9144 102.483 30.693 102.386 30.462C102.386 30.4813 102.377 30.5005 102.358 30.5198C102.358 30.5583 102.358 30.5871 102.358 30.6064C102.338 30.5486 102.319 30.4909 102.3 30.4331C102.3 30.3754 102.281 30.308 102.242 30.231L102.011 30H101.982C100.673 29.9807 99.499 29.7882 98.4595 29.4225C97.42 29.0567 96.5922 28.4407 95.9762 27.5745C95.8992 27.4782 95.8222 27.3627 95.7452 27.228C95.6875 27.0932 95.6297 26.9681 95.572 26.8526C95.5335 26.7564 95.495 26.6601 95.4565 26.5639C95.418 26.4484 95.3795 26.3425 95.341 26.2462C95.264 26.0152 95.1966 25.7746 95.1388 25.5244C95.1003 25.2549 95.0715 24.995 95.0522 24.7447C94.9945 24.3597 94.9656 23.8785 94.9656 23.301C94.9656 22.7235 94.9752 22.2134 94.9945 21.7706V20.3846L94.879 20.0381L94.648 21.0776C94.648 21.1161 94.6383 21.145 94.6191 21.1642C94.5228 21.5877 94.4362 22.069 94.3592 22.608C94.3015 23.1277 94.1956 23.5994 94.0416 24.0229C94.0223 24.1384 93.9935 24.2635 93.955 24.3982C93.9165 24.5137 93.8683 24.6196 93.8106 24.7159C93.7721 24.7929 93.7528 24.8314 93.7528 24.8314C93.6566 24.9276 93.5796 24.9276 93.5218 24.8314C93.4641 24.7929 93.416 24.7351 93.3775 24.6581C93.3582 24.5619 93.3293 24.4752 93.2908 24.3982L93.2042 24.0517L93.1176 23.6186C93.0598 23.4069 93.0021 23.2047 92.9443 23.0122C92.9058 22.8005 92.8673 22.5887 92.8288 22.377C92.7711 22.1075 92.7133 21.838 92.6556 21.5685C92.5978 21.299 92.5305 21.0295 92.4535 20.76L92.3091 20.1536C92.3091 20.1151 92.2995 20.0862 92.2802 20.067C92.2802 20.0477 92.2802 20.0285 92.2802 20.0092C92.2802 19.9515 92.261 19.9034 92.2225 19.8649C92.2032 19.8456 92.184 19.8264 92.1647 19.8071C92.1455 19.7686 92.1166 19.7397 92.0781 19.7205C92.0781 19.7205 92.0492 19.6724 91.9915 19.5761C91.9915 19.5569 91.9818 19.5472 91.9626 19.5472C91.9626 19.528 91.9626 19.5087 91.9626 19.4895C91.9626 19.4702 91.953 19.451 91.9337 19.4317C91.9337 19.4125 91.9337 19.3932 91.9337 19.374C91.9145 19.2585 91.9048 19.1334 91.9048 18.9986C91.9241 18.8639 91.9337 18.7291 91.9337 18.5944V16.6597C91.9337 16.4865 91.9241 16.294 91.9048 16.0822C91.8856 15.8705 91.9048 15.678 91.9626 15.5047C92.0203 15.3122 92.1262 15.1871 92.2802 15.1294C92.3765 15.0524 92.4631 15.0139 92.5401 15.0139C92.6363 14.9946 92.723 14.985 92.8 14.985H94.9945V10.2784C94.9945 10.1051 95.0618 9.93187 95.1966 9.75862C95.2158 9.72012 95.264 9.68162 95.341 9.64312C95.3987 9.58537 95.4661 9.54687 95.5431 9.52762C95.6393 9.48912 95.7356 9.4795 95.8318 9.49875C95.9281 9.49875 96.0243 9.49875 96.1206 9.49875H100.827C101.039 9.49875 101.212 9.56612 101.347 9.70087C101.443 9.75862 101.52 9.87412 101.578 10.0474C101.616 10.1244 101.636 10.2014 101.636 10.2784C101.636 10.3361 101.636 10.4131 101.636 10.5094C101.636 10.6249 101.626 10.7404 101.607 10.8559C101.607 10.9714 101.607 11.0869 101.607 11.2024V14.985H101.838C101.973 14.9657 102.107 14.9657 102.242 14.985C102.377 14.985 102.512 14.985 102.646 14.985H104.437C104.591 14.985 104.745 14.985 104.899 14.985C105.072 14.9657 105.235 14.9657 105.389 14.985C105.755 15.0427 105.967 15.2641 106.025 15.6491C106.063 15.8031 106.073 15.9667 106.054 16.14C106.034 16.3132 106.025 16.4769 106.025 16.6309C106.025 16.9581 106.025 17.3142 106.025 17.6992C106.044 18.065 106.044 18.4211 106.025 18.7676C106.044 18.8254 106.054 18.9312 106.054 19.0852C106.054 19.2585 106.025 19.4029 105.967 19.5184C105.948 19.6146 105.9 19.7012 105.823 19.7782C105.803 19.7975 105.784 19.8167 105.765 19.836C105.746 19.8552 105.726 19.8745 105.707 19.8937C105.707 19.8937 105.697 19.9034 105.678 19.9226C105.678 19.9226 105.669 19.9226 105.649 19.9226C105.649 19.9226 105.64 19.9322 105.62 19.9515C105.62 19.9515 105.611 19.9515 105.592 19.9515C105.572 19.99 105.553 20.0285 105.534 20.067C105.534 20.1055 105.524 20.144 105.505 20.1825C105.505 20.2595 105.486 20.3365 105.447 20.4135C105.447 20.529 105.418 20.5771 105.361 20.5579C105.322 20.5579 105.303 20.5097 105.303 20.4135C105.303 20.298 105.284 20.2306 105.245 20.2114C105.245 20.1729 105.226 20.1729 105.187 20.2114C105.187 20.2114 105.168 20.2306 105.13 20.2691C105.11 20.2884 105.091 20.3172 105.072 20.3557C105.053 20.3942 105.033 20.4327 105.014 20.4712C104.956 20.5675 104.899 20.6734 104.841 20.7889C104.802 20.9044 104.745 21.0102 104.668 21.1065C104.648 21.1257 104.629 21.145 104.61 21.1642C104.61 21.1835 104.591 21.2124 104.552 21.2509C104.533 21.2701 104.514 21.299 104.494 21.3375C104.475 21.376 104.456 21.3856 104.437 21.3664C104.398 21.2701 104.379 21.1739 104.379 21.0776C104.379 20.9814 104.36 20.8851 104.321 20.7889C104.283 20.8081 104.215 20.8177 104.119 20.8177C104.003 20.8177 103.888 20.7985 103.772 20.76C103.599 20.7022 103.436 20.6252 103.282 20.529C103.147 20.4135 103.002 20.3365 102.848 20.298C102.714 20.2595 102.579 20.2306 102.444 20.2114C102.329 20.1921 102.204 20.1729 102.069 20.1536C101.953 20.1536 101.838 20.1247 101.722 20.067C101.742 20.067 101.722 20.067 101.665 20.067C101.626 20.0477 101.607 20.0381 101.607 20.0381V20.2691C101.626 20.3461 101.626 20.4809 101.607 20.6734C101.607 20.8466 101.607 21.0102 101.607 21.1642V23.2144C101.607 23.2721 101.607 23.3299 101.607 23.3876C101.607 23.4454 101.616 23.5031 101.636 23.5609C101.655 23.6379 101.674 23.7245 101.693 23.8207C101.713 23.8977 101.742 23.9747 101.78 24.0517C101.915 24.3405 102.107 24.5137 102.358 24.5715C102.608 24.6292 102.887 24.6581 103.195 24.6581H105.476C105.592 24.6581 105.726 24.6966 105.88 24.7736C106.054 24.8699 106.169 25.0142 106.227 25.2067C106.246 25.2452 106.256 25.2934 106.256 25.3511C106.294 25.4859 106.304 25.6302 106.285 25.7842C106.265 25.919 106.256 26.0537 106.256 26.1885V28.4119C106.256 28.5466 106.265 28.7006 106.285 28.8739C106.304 29.0471 106.294 29.2107 106.256 29.3647Z" fill="#005B96"/>
<path d="M115.04 29.1626C115.04 29.2589 115.021 29.3647 114.983 29.4802C114.983 29.4802 114.963 29.5187 114.925 29.5957L114.896 29.6246C114.877 29.6824 114.809 29.7594 114.694 29.8556C114.598 29.9326 114.54 29.9807 114.521 30L114.492 30.0289C114.492 30.0481 114.482 30.0578 114.463 30.0578C114.463 30.0578 114.463 30.0674 114.463 30.0866C114.424 30.1829 114.386 30.231 114.347 30.231C114.27 30.3465 114.193 30.462 114.116 30.5775C114.059 30.693 113.982 30.7989 113.885 30.8951C113.808 30.9914 113.712 31.078 113.597 31.155C113.5 31.232 113.404 31.3186 113.308 31.4149C113.212 31.5111 113.135 31.617 113.077 31.7325C113.058 31.7903 113.029 31.8384 112.99 31.8769C112.971 31.9346 112.952 31.9828 112.932 32.0213C112.798 32.2908 112.711 32.5025 112.673 32.6565C112.634 32.8105 112.528 33.0319 112.355 33.3206C112.336 33.3976 112.268 33.4746 112.153 33.5516C112.134 33.5901 112.095 33.6864 112.037 33.8404C111.999 33.9944 111.922 34.0618 111.806 34.0425C111.768 34.0425 111.72 34.004 111.662 33.927C111.623 33.8693 111.595 33.8308 111.575 33.8115C111.518 33.7153 111.469 33.619 111.431 33.5228C111.392 33.4265 111.335 33.3399 111.258 33.2629C111.219 33.2244 111.19 33.1859 111.171 33.1474C111.094 33.0896 111.007 33.003 110.911 32.8875C110.892 32.849 110.863 32.8105 110.825 32.772C110.805 32.7335 110.776 32.7046 110.738 32.6854C110.603 32.5121 110.488 32.3196 110.391 32.1079C110.295 31.9154 110.199 31.7229 110.103 31.5304C110.083 31.4726 110.064 31.4149 110.045 31.3571C110.026 31.2994 109.997 31.2416 109.958 31.1839L109.785 30.8374C109.65 30.6064 109.506 30.4139 109.352 30.2599C109.352 30.3176 109.333 30.3465 109.294 30.3465C109.275 30.3465 109.256 30.3176 109.236 30.2599C109.217 30.2214 109.198 30.1925 109.179 30.1733C109.179 30.154 109.169 30.1348 109.15 30.1155C109.092 30.308 109.054 30.5968 109.034 30.9818C109.015 31.386 109.005 31.7806 109.005 32.1656C109.025 32.5699 109.034 32.8875 109.034 33.1185C109.034 33.3495 109.025 33.3976 109.005 33.2629C108.89 32.8201 108.851 32.2811 108.89 31.6459C108.928 31.0299 108.9 30.4716 108.803 29.9711C108.765 29.9519 108.726 29.9326 108.688 29.9134C108.669 29.8941 108.64 29.8749 108.601 29.8556C108.389 29.6824 108.284 29.4899 108.284 29.2781C108.264 29.0856 108.255 28.8931 108.255 28.7006C108.274 28.5081 108.284 28.3252 108.284 28.152V10.9714C108.284 10.7789 108.274 10.5767 108.255 10.365C108.255 10.1532 108.312 9.97037 108.428 9.81637L108.601 9.64312C108.736 9.54687 108.89 9.49875 109.063 9.49875H113.885C113.982 9.49875 114.078 9.49875 114.174 9.49875C114.29 9.4795 114.395 9.48912 114.492 9.52762C114.549 9.54687 114.598 9.57575 114.636 9.61425C114.694 9.6335 114.742 9.66237 114.78 9.70087C114.819 9.73937 114.857 9.79712 114.896 9.87412C114.973 9.97037 115.011 10.1051 115.011 10.2784V28.2964C115.011 28.4311 115.021 28.5755 115.04 28.7295C115.06 28.8642 115.06 29.0086 115.04 29.1626ZM134.509 29.2204C134.49 29.2589 134.48 29.307 134.48 29.3647C134.48 29.4032 134.47 29.4417 134.451 29.4802C134.451 29.4995 134.442 29.5187 134.422 29.538C134.422 29.5572 134.413 29.5765 134.394 29.5957C134.394 29.5957 134.374 29.615 134.336 29.6535C134.316 29.7112 134.249 29.7786 134.134 29.8556C134.095 29.9134 134.047 29.9615 133.989 30C133.932 30.077 133.874 30.1636 133.816 30.2599C133.777 30.3561 133.739 30.4428 133.701 30.5198C133.624 30.6738 133.547 30.8374 133.47 31.0106C133.393 31.1839 133.315 31.3571 133.238 31.5304L133.123 31.8191C133.104 31.8576 133.085 31.925 133.065 32.0213C133.046 32.1368 133.027 32.1656 133.007 32.1079C132.969 31.8384 132.95 31.5689 132.95 31.2994C132.95 31.0299 132.93 30.7604 132.892 30.4909C132.892 30.4909 132.853 30.5101 132.777 30.5486C132.757 30.5486 132.748 30.5486 132.748 30.5486C132.748 30.5679 132.738 30.5775 132.719 30.5775C132.642 30.7123 132.565 30.8663 132.488 31.0395C132.43 31.2128 132.372 31.386 132.314 31.5593C132.295 31.617 132.276 31.6748 132.257 31.7325C132.237 31.8095 132.209 31.8865 132.17 31.9635C132.132 32.0405 132.093 32.1271 132.055 32.2234C132.016 32.3389 131.949 32.4351 131.853 32.5121C131.718 32.6276 131.593 32.5891 131.477 32.3966C131.381 32.2234 131.313 32.0886 131.275 31.9924C131.236 31.9154 131.188 31.8288 131.131 31.7325C131.073 31.6555 131.025 31.5785 130.986 31.5015C130.928 31.386 130.871 31.2705 130.813 31.155C130.755 31.0395 130.707 30.924 130.669 30.8085L130.582 30.5486C130.524 30.5101 130.495 30.5005 130.495 30.5198C130.457 30.8278 130.438 31.1261 130.438 31.4149C130.438 31.7229 130.418 32.0309 130.38 32.3389C130.361 32.3774 130.341 32.3485 130.322 32.2523C130.303 32.1753 130.284 32.1175 130.264 32.079C130.226 32.0213 130.187 31.9346 130.149 31.8191C130.072 31.6651 129.995 31.5015 129.918 31.3283C129.86 31.1743 129.783 31.0299 129.687 30.8951C129.571 30.7026 129.417 30.4813 129.225 30.231C129.206 30.3273 129.186 30.4235 129.167 30.5198C129.167 30.616 129.148 30.7123 129.109 30.8085C129.09 30.8278 129.071 30.847 129.052 30.8663C129.032 30.8855 129.013 30.9144 128.994 30.9529C128.917 30.9529 128.878 30.9625 128.878 30.9818L128.734 30.6064C128.734 30.6256 128.724 30.6545 128.705 30.693C128.686 30.7315 128.667 30.77 128.647 30.8085C128.628 30.8278 128.609 30.8085 128.59 30.7508C128.57 30.693 128.551 30.6545 128.532 30.6353C128.493 30.5583 128.455 30.4716 128.416 30.3754C128.378 30.2984 128.339 30.2214 128.301 30.1444C128.282 30.1059 128.262 30.0578 128.243 30C128.243 29.9422 128.224 29.8941 128.185 29.8556C128.147 29.8364 128.118 29.8171 128.099 29.7979C128.079 29.7594 128.051 29.7209 128.012 29.6824C127.974 29.6054 127.945 29.5572 127.925 29.538C127.887 29.4225 127.868 29.3262 127.868 29.2492C127.848 29.153 127.839 29.0664 127.839 28.9894C127.858 28.8931 127.868 28.7776 127.868 28.6429V28.2675C127.848 28.306 127.81 28.3541 127.752 28.4119C127.733 28.4696 127.656 28.5659 127.521 28.7006L127.435 28.7872C127.435 28.8065 127.425 28.8161 127.406 28.8161C127.406 28.8161 127.406 28.8257 127.406 28.845L127.03 29.1915C126.953 29.3647 126.896 29.5476 126.857 29.7401C126.819 29.9134 126.722 30.0578 126.568 30.1733C126.434 30.2888 126.347 30.2695 126.308 30.1155C126.289 30.1925 126.26 30.2503 126.222 30.2888C126.183 30.3465 126.116 30.4331 126.02 30.5486L125.875 30.693C125.76 30.77 125.664 30.8663 125.587 30.9818L125.356 31.4726C125.336 31.5111 125.298 31.5785 125.24 31.6748C125.202 31.771 125.163 31.8384 125.125 31.8769C125.048 31.8961 124.99 31.8769 124.951 31.8191C124.932 31.7614 124.913 31.7133 124.894 31.6748C124.874 31.617 124.855 31.5496 124.836 31.4726C124.817 31.4149 124.797 31.3571 124.778 31.2994C124.759 31.2031 124.74 31.1069 124.72 31.0106C124.72 30.9144 124.701 30.8278 124.663 30.7508C124.586 30.6738 124.528 30.6064 124.489 30.5486H124.46C124.441 30.5486 124.422 30.539 124.403 30.5198C124.383 30.5005 124.364 30.5005 124.345 30.5198C124.326 30.7123 124.306 30.9048 124.287 31.0973C124.287 31.2898 124.268 31.4823 124.229 31.6748C124.229 31.694 124.22 31.6748 124.201 31.617C124.181 31.5593 124.152 31.5208 124.114 31.5015C124.095 31.463 124.075 31.4341 124.056 31.4149C124.037 31.3956 124.018 31.3668 123.998 31.3283C123.979 31.2128 123.97 31.0876 123.97 30.9529C123.97 30.8374 123.95 30.7219 123.912 30.6064C123.893 30.6256 123.883 30.6256 123.883 30.6064C123.864 30.6256 123.835 30.6353 123.796 30.6353C123.796 30.6545 123.787 30.6641 123.767 30.6641C123.748 30.6834 123.729 30.7026 123.71 30.7219C123.71 30.7411 123.69 30.7604 123.652 30.7796C123.633 30.7989 123.604 30.7989 123.565 30.7796C123.527 30.7796 123.488 30.7796 123.45 30.7796C123.296 30.7604 123.18 30.7026 123.103 30.6064C123.026 30.5294 122.959 30.4235 122.901 30.2888H122.757C122.718 30.2888 122.68 30.2791 122.641 30.2599C122.603 30.2599 122.564 30.2599 122.526 30.2599C122.41 30.2599 122.324 30.2503 122.266 30.231C122.112 30.2118 121.958 30.1829 121.804 30.1444C121.65 30.1251 121.496 30.0866 121.342 30.0289C121.207 30.0096 121.072 29.9615 120.938 29.8845C120.745 29.8075 120.553 29.7209 120.36 29.6246C120.187 29.5284 120.014 29.4225 119.84 29.307C119.494 29.0567 119.205 28.7872 118.974 28.4985C118.878 28.4022 118.791 28.2964 118.714 28.1809C118.637 28.0461 118.551 27.9114 118.454 27.7766C118.204 27.3724 117.992 26.9104 117.819 26.3906C117.665 25.8516 117.559 25.2645 117.502 24.6292C117.444 24.1865 117.425 23.6956 117.444 23.1566C117.463 22.6176 117.473 22.146 117.473 21.7417V15.7646C117.473 15.5914 117.521 15.4374 117.617 15.3026L117.79 15.1294C117.925 15.0331 118.069 14.985 118.223 14.985C118.397 14.985 118.56 14.985 118.714 14.985H123.767C123.844 14.985 123.941 15.0042 124.056 15.0427C124.229 15.1005 124.345 15.1871 124.403 15.3026C124.441 15.3411 124.48 15.4181 124.518 15.5336C124.537 15.6106 124.547 15.7357 124.547 15.909V23.7052C124.586 23.9555 124.643 24.1961 124.72 24.4271C124.817 24.6389 125.009 24.8314 125.298 25.0046C125.413 25.0431 125.49 25.0624 125.529 25.0624C125.625 25.0816 125.702 25.1009 125.76 25.1201C125.837 25.1201 125.914 25.1201 125.991 25.1201C126.087 25.1201 126.164 25.1201 126.222 25.1201C126.299 25.1009 126.376 25.0816 126.453 25.0624C126.491 25.0624 126.52 25.0527 126.539 25.0335C126.578 25.0142 126.616 24.995 126.655 24.9757C126.713 24.9565 126.761 24.9372 126.799 24.918L127.03 24.7736C127.127 24.6389 127.223 24.4849 127.319 24.3116C127.358 24.2154 127.377 24.1191 127.377 24.0229C127.396 23.9266 127.415 23.8304 127.435 23.7341V15.7646C127.435 15.5529 127.512 15.37 127.666 15.216C127.82 15.062 128.002 14.985 128.214 14.985H133.238C133.489 14.985 133.672 14.985 133.787 14.985C133.922 14.985 134.076 15.062 134.249 15.216C134.345 15.3122 134.403 15.4181 134.422 15.5336C134.461 15.6299 134.48 15.7261 134.48 15.8224C134.499 15.9186 134.499 16.0245 134.48 16.14C134.48 16.2555 134.48 16.3614 134.48 16.4576V28.4119C134.48 28.4889 134.48 28.5659 134.48 28.6429C134.48 28.7199 134.49 28.8065 134.509 28.9027V29.2204ZM128.07 29.769C128.07 29.769 128.079 29.7786 128.099 29.7979C128.079 29.7786 128.07 29.769 128.07 29.769ZM153.85 29.2492V29.4225C153.831 29.461 153.821 29.4995 153.821 29.538C153.821 29.5765 153.802 29.615 153.764 29.6535L153.735 29.6824C153.735 29.6824 153.677 29.7401 153.562 29.8556C153.542 30.0866 153.523 30.3176 153.504 30.5486C153.504 30.7989 153.485 31.0491 153.446 31.2994C153.427 31.4341 153.408 31.5785 153.388 31.7325C153.388 31.8865 153.369 32.0405 153.331 32.1945C153.331 32.233 153.321 32.2811 153.302 32.3389C153.302 32.4159 153.282 32.4448 153.244 32.4255C153.186 32.3678 153.148 32.3004 153.128 32.2234C153.128 32.1464 153.128 32.0694 153.128 31.9924C153.071 31.6651 153.042 31.4053 153.042 31.2128C153.061 31.0395 153.023 30.7989 152.926 30.4909C152.869 30.5486 152.83 30.5679 152.811 30.5486C152.772 30.4716 152.753 30.4139 152.753 30.3754C152.734 30.3754 152.724 30.3754 152.724 30.3754C152.724 30.3946 152.724 30.4043 152.724 30.4043C152.705 30.4428 152.676 30.4813 152.638 30.5198C152.599 30.5775 152.561 30.6353 152.522 30.693L152.407 30.8951C152.291 31.1646 152.137 31.4053 151.945 31.617L151.887 31.6748C151.829 31.7325 151.762 31.7806 151.685 31.8191C151.608 31.9154 151.521 32.0405 151.425 32.1945C151.348 32.3485 151.232 32.4255 151.078 32.4255C150.924 32.4255 150.799 32.3293 150.703 32.1368C150.607 31.9635 150.501 31.8384 150.385 31.7614C150.328 31.7229 150.27 31.7036 150.212 31.7036C150.154 31.7229 150.097 31.7229 150.039 31.7036C149.981 31.6844 149.923 31.6555 149.866 31.617C149.808 31.5978 149.75 31.5785 149.692 31.5593C149.615 31.5208 149.567 31.5015 149.548 31.5015C149.548 31.5208 149.519 31.5111 149.461 31.4726C149.404 31.4341 149.346 31.386 149.288 31.3283C149.25 31.2705 149.211 31.2224 149.173 31.1839C149.038 31.0299 148.903 30.8566 148.768 30.6641C148.653 30.4909 148.499 30.3369 148.306 30.2021C148.287 30.2214 148.21 30.2118 148.075 30.1733C148.056 30.1925 148.046 30.308 148.046 30.5198C148.046 30.7508 147.969 30.8278 147.815 30.7508C147.738 30.7123 147.671 30.6353 147.613 30.5198C147.556 30.4235 147.507 30.3369 147.469 30.2599L147.382 30.0866L147.209 30C147.209 30.0385 147.209 30.077 147.209 30.1155C147.228 30.1733 147.19 30.1444 147.094 30.0289L147.007 29.8267C146.93 29.7497 146.882 29.692 146.863 29.6535C146.843 29.615 146.805 29.5765 146.747 29.538C146.709 29.4802 146.699 29.461 146.718 29.4802C146.718 29.461 146.709 29.4514 146.689 29.4514L146.487 29.1049C146.468 29.0856 146.439 29.0567 146.401 29.0182C146.362 28.9605 146.352 28.9412 146.372 28.9605L146.343 28.9316C146.304 28.8354 146.266 28.7584 146.227 28.7006C146.189 28.6429 146.15 28.6044 146.112 28.5851C146.093 28.5466 146.073 28.5177 146.054 28.4985C146.054 28.4792 146.044 28.46 146.025 28.4407C145.948 28.3445 145.871 28.2386 145.794 28.1231C145.717 28.0076 145.64 27.8921 145.563 27.7766C145.467 27.6226 145.371 27.4782 145.274 27.3435C145.178 27.2087 145.082 27.074 144.986 26.9392L144.899 26.7949L144.841 26.7082L144.437 27.2857C144.399 27.3242 144.36 27.382 144.322 27.459L143.195 29.0471C143.157 29.0856 143.138 29.1145 143.138 29.1337C143.099 29.1722 143.061 29.23 143.022 29.307C142.964 29.384 142.907 29.4706 142.849 29.5669C142.791 29.6439 142.724 29.7112 142.647 29.769C142.608 29.7882 142.57 29.8171 142.531 29.8556C142.512 29.8556 142.483 29.8749 142.445 29.9134C142.348 30.0481 142.252 30.1925 142.156 30.3465C142.06 30.5005 141.963 30.6545 141.867 30.8085C141.848 30.8855 141.809 30.9529 141.752 31.0106C141.732 31.0299 141.713 31.0684 141.694 31.1261C141.675 31.1839 141.655 31.1935 141.636 31.155C141.559 31.078 141.501 31.0203 141.463 30.9818C141.54 31.078 141.607 31.1839 141.665 31.2994C141.742 31.4149 141.655 31.4245 141.405 31.3283C141.27 31.2705 141.222 31.1358 141.261 30.924C141.319 30.7123 141.328 30.5294 141.29 30.3754C141.193 30.4331 141.116 30.5101 141.059 30.6064C141.001 30.7026 140.924 30.7893 140.828 30.8663C140.808 30.924 140.77 30.9625 140.712 30.9818C140.654 31.0395 140.616 31.0588 140.597 31.0395C140.577 30.9625 140.568 30.8855 140.568 30.8085C140.568 30.7315 140.558 30.6545 140.539 30.5775C140.539 30.5775 140.529 30.5775 140.51 30.5775C140.51 30.5968 140.5 30.6064 140.481 30.6064C140.481 30.6256 140.443 30.6545 140.366 30.693C140.308 30.7315 140.279 30.7604 140.279 30.7796C140.241 30.9529 140.221 31.1261 140.221 31.2994C140.221 31.4919 140.202 31.6748 140.164 31.848C140.144 31.8865 140.087 31.9057 139.99 31.9057C139.894 31.9057 139.827 31.9057 139.788 31.9057C139.711 31.9057 139.673 31.9057 139.673 31.9057C139.673 31.9828 139.596 31.9924 139.442 31.9346C139.268 31.8576 139.22 31.694 139.297 31.4438C139.374 31.1935 139.394 30.9721 139.355 30.7796C139.355 30.7604 139.336 30.7411 139.297 30.7219C139.278 30.7026 139.268 30.7026 139.268 30.7219C139.211 30.8951 139.182 31.0299 139.182 31.1261C139.163 31.0491 139.143 30.9625 139.124 30.8663C139.124 30.7893 139.105 30.693 139.066 30.5775C139.066 30.539 139.047 30.5198 139.009 30.5198C138.951 30.539 138.922 30.5005 138.922 30.4043C138.864 30.3273 138.797 30.2599 138.72 30.2021C138.701 30.2406 138.691 30.2888 138.691 30.3465C138.691 30.4043 138.681 30.462 138.662 30.5198C138.643 30.5775 138.624 30.6353 138.604 30.693C138.585 30.77 138.566 30.8374 138.547 30.8951C138.527 30.9529 138.508 31.0106 138.489 31.0684C138.47 31.1261 138.45 31.1839 138.431 31.2416C138.373 31.3764 138.287 31.54 138.171 31.7325C138.075 31.9443 137.931 32.0501 137.738 32.0501C137.603 32.0309 137.497 31.9539 137.42 31.8191C137.363 31.7036 137.315 31.6074 137.276 31.5304C137.18 31.2994 137.084 31.0684 136.987 30.8374C136.891 30.6064 136.785 30.3754 136.67 30.1444C136.65 30.2021 136.622 30.231 136.583 30.231C136.545 30.2503 136.525 30.2118 136.525 30.1155C136.487 30.077 136.468 30.0385 136.468 30C136.448 30 136.429 30 136.41 30C136.41 29.9807 136.391 29.9711 136.352 29.9711L136.092 29.7979L136.034 29.7401C135.938 29.6246 135.89 29.4802 135.89 29.307C135.89 29.2107 135.909 29.1241 135.948 29.0471C135.986 28.9701 136.034 28.8931 136.092 28.8161L136.237 28.5851L136.381 28.4119C136.419 28.3349 136.458 28.2675 136.496 28.2097C136.554 28.1327 136.612 28.0654 136.67 28.0076C136.67 27.9691 136.699 27.921 136.756 27.8632L138.085 25.9575C138.142 25.8805 138.19 25.8035 138.229 25.7265C138.287 25.6302 138.335 25.5436 138.373 25.4666C138.527 25.1971 138.681 24.9469 138.835 24.7159C139.009 24.4849 139.172 24.2731 139.326 24.0806C139.365 24.0229 139.413 23.9651 139.471 23.9074C139.528 23.8496 139.586 23.7919 139.644 23.7341C139.682 23.6764 139.721 23.6282 139.759 23.5897C139.798 23.532 139.827 23.4839 139.846 23.4454L140.337 22.7524C140.337 22.7331 140.346 22.7235 140.366 22.7235L140.51 22.5214C140.51 22.4829 140.52 22.454 140.539 22.4347C140.577 22.3962 140.606 22.3674 140.626 22.3481C140.626 22.3289 140.645 22.3 140.683 22.2615C140.722 22.223 140.722 22.223 140.683 22.2615L140.51 22.0016C140.491 21.9631 140.462 21.9246 140.423 21.8861L139.788 20.9332C139.653 20.7985 139.528 20.6445 139.413 20.4712C139.336 20.375 139.259 20.2787 139.182 20.1825C139.124 20.067 139.057 19.9515 138.98 19.836L138.575 19.143C138.537 19.066 138.498 18.9986 138.46 18.9409L137.218 17.0929C137.199 17.0544 137.18 17.0159 137.161 16.9774C137.141 16.9389 137.112 16.91 137.074 16.8907L136.641 16.2555C136.602 16.1592 136.564 16.0919 136.525 16.0534C136.448 15.9379 136.41 15.8127 136.41 15.678C136.41 15.601 136.419 15.5529 136.439 15.5336C136.439 15.4759 136.458 15.4085 136.496 15.3315C136.516 15.293 136.535 15.2641 136.554 15.2449C136.573 15.2256 136.593 15.2064 136.612 15.1871C136.67 15.1486 136.727 15.1101 136.785 15.0716C136.862 15.0331 136.939 15.0042 137.016 14.985C137.151 14.9465 137.286 14.9369 137.42 14.9561C137.555 14.9561 137.69 14.9657 137.825 14.985H141.347C141.559 14.985 141.79 14.9754 142.04 14.9561C142.291 14.9369 142.522 14.9657 142.733 15.0427C142.83 15.062 142.916 15.1005 142.993 15.1583C143.07 15.216 143.118 15.2641 143.138 15.3026L143.224 15.3892L143.455 15.7069C143.494 15.7646 143.523 15.8224 143.542 15.8801C143.58 15.9186 143.609 15.9571 143.629 15.9956L143.802 16.2555C143.917 16.448 144.033 16.6309 144.148 16.8041C144.264 16.9774 144.379 17.1506 144.495 17.3239C144.591 17.4971 144.649 17.5934 144.668 17.6126C144.707 17.6126 144.774 17.7281 144.87 17.9591L144.986 18.1035L145.101 17.9014C145.14 17.8629 145.169 17.8244 145.188 17.7859C145.226 17.7474 145.255 17.7089 145.274 17.6704C145.294 17.6319 145.313 17.5934 145.332 17.5549C145.371 17.5164 145.4 17.4779 145.419 17.4394L145.91 16.6597C145.948 16.6212 145.987 16.5731 146.025 16.5154C146.064 16.4576 146.093 16.4095 146.112 16.371C146.15 16.3132 146.189 16.2555 146.227 16.1977C146.266 16.1207 146.304 16.0534 146.343 15.9956L146.632 15.5336C146.67 15.4759 146.709 15.4277 146.747 15.3892C146.786 15.3507 146.843 15.293 146.92 15.216C146.978 15.1775 147.045 15.139 147.122 15.1005C147.219 15.0427 147.325 15.0042 147.44 14.985C147.594 14.9657 147.758 14.9657 147.931 14.985C148.104 14.985 148.258 14.985 148.393 14.985H151.714C151.81 14.985 151.983 14.985 152.233 14.985C152.484 14.9657 152.695 14.9754 152.869 15.0139C152.965 15.0331 153.032 15.0716 153.071 15.1294C153.109 15.1486 153.128 15.1679 153.128 15.1871C153.148 15.2064 153.167 15.2256 153.186 15.2449C153.244 15.3026 153.273 15.3604 153.273 15.4181C153.292 15.4759 153.302 15.5047 153.302 15.5047C153.321 15.5432 153.331 15.5914 153.331 15.6491C153.331 15.7069 153.331 15.755 153.331 15.7935C153.311 15.8512 153.292 15.8994 153.273 15.9379C153.254 15.9764 153.234 16.0149 153.215 16.0534L152.955 16.3999C152.936 16.4576 152.907 16.5154 152.869 16.5731C152.83 16.6309 152.792 16.679 152.753 16.7175L152.435 17.2084L152.378 17.2661L151.223 18.9409C151.203 18.9601 151.184 18.989 151.165 19.0275C151.165 19.066 151.146 19.1045 151.107 19.143C150.972 19.3932 150.818 19.6531 150.645 19.9226C150.491 20.1729 150.328 20.3942 150.154 20.5867C150.135 20.6445 150.097 20.7022 150.039 20.76C150 20.7985 149.962 20.837 149.923 20.8755L149.779 21.0487C149.702 21.1835 149.615 21.3182 149.519 21.453C149.423 21.5877 149.327 21.7225 149.23 21.8572C149.25 21.838 149.221 21.8861 149.144 22.0016C149.067 22.0979 149.028 22.146 149.028 22.146L148.999 22.2904C149.019 22.2904 149.038 22.3096 149.057 22.3481C149.076 22.3674 149.076 22.3674 149.057 22.3481L149.288 22.6946L149.404 22.839C149.692 23.2625 149.991 23.6475 150.299 23.994C150.51 24.2635 150.713 24.5522 150.905 24.8602C151.098 25.149 151.29 25.4474 151.483 25.7554L152.811 27.6322C153.003 27.844 153.148 28.0557 153.244 28.2675C153.282 28.306 153.321 28.3541 153.359 28.4119C153.398 28.4504 153.436 28.4985 153.475 28.5562C153.513 28.614 153.562 28.6814 153.619 28.7584C153.696 28.8161 153.744 28.8835 153.764 28.9605C153.821 29.0375 153.85 29.1337 153.85 29.2492Z" fill="#FA8443"/>
</svg>
