<svg width="64" height="64" viewBox="0 0 64 64" fill="none" xmlns="http://www.w3.org/2000/svg">
<rect width="64" height="64" rx="32" fill="#107BEF"/>
<g clip-path="url(#clip0_20009845_30780)">
<path d="M45.283 35.1609C45.0243 34.521 44.2957 34.2117 43.6557 34.4705C43.0156 34.7293 42.7065 35.4578 42.9652 36.0979L44.4374 39.7395L40.0651 37.8121C39.7486 37.6726 39.3884 37.6704 39.0702 37.8061C37.576 38.4437 35.9753 38.767 34.3125 38.767C27.6205 38.767 23.125 33.5273 23.125 28.6335C23.125 23.0459 28.1437 18.5 34.3125 18.5C40.4813 18.5 45.5 23.0459 45.5 28.6335C45.5 29.0694 45.4594 29.5914 45.3887 30.0655C45.2868 30.7483 45.7577 31.3844 46.4405 31.4863C47.1234 31.5884 47.7595 31.1172 47.8613 30.4344C47.9507 29.835 48 29.1954 48 28.6335C48 25.2379 46.5621 22.0517 43.951 19.6621C41.3709 17.3006 37.9479 16 34.3125 16C30.6771 16 27.2541 17.3006 24.674 19.662C22.3407 21.7975 20.9452 24.5692 20.6745 27.5579C17.7397 29.5014 16 32.6157 16 35.9703C16 38.0658 16.6602 40.054 17.9169 41.7651L16.0912 46.2814C15.9005 46.7531 16.0147 47.2933 16.38 47.6474C16.618 47.8783 16.9317 48 17.2503 48C17.4205 47.9999 17.5921 47.9653 17.7542 47.8938L23.0185 45.5731C24.3428 46.0661 25.7426 46.3156 27.1875 46.3156C27.2187 46.3156 27.2494 46.3132 27.2801 46.3109C29.3699 46.2951 31.4016 45.7454 33.1612 44.7168C34.7373 43.7953 36.0338 42.5294 36.9428 41.0345C37.8302 40.8751 38.6976 40.6343 39.5394 40.3125L46.2457 43.2688C46.4079 43.3402 46.5795 43.375 46.7497 43.375C47.0682 43.3749 47.382 43.2532 47.62 43.0224C47.9854 42.6683 48.0995 42.1281 47.9089 41.6565L45.283 35.1609ZM27.1876 43.8124C27.1705 43.8124 27.1539 43.8143 27.137 43.815C25.8606 43.8085 24.6321 43.5576 23.4848 43.0681C23.1667 42.9323 22.8065 42.9345 22.49 43.0741L19.5627 44.3644L20.507 42.0285C20.6816 41.5967 20.6015 41.1036 20.2994 40.7491C19.1222 39.3681 18.5 37.7156 18.5 35.9703C18.5 33.9727 19.3403 32.08 20.8106 30.6449C21.2683 33.1402 22.5599 35.5272 24.5082 37.4023C26.9326 39.7356 30.1395 41.0874 33.6023 41.2501C31.9766 42.8504 29.6501 43.8124 27.1876 43.8124Z" fill="white"/>
<path d="M34.25 29.9375C34.9404 29.9375 35.5 29.3779 35.5 28.6875C35.5 27.9971 34.9404 27.4375 34.25 27.4375C33.5596 27.4375 33 27.9971 33 28.6875C33 29.3779 33.5596 29.9375 34.25 29.9375Z" fill="white"/>
<path d="M39.25 29.9375C39.9404 29.9375 40.5 29.3779 40.5 28.6875C40.5 27.9971 39.9404 27.4375 39.25 27.4375C38.5596 27.4375 38 27.9971 38 28.6875C38 29.3779 38.5596 29.9375 39.25 29.9375Z" fill="white"/>
<path d="M29.25 29.9375C29.9404 29.9375 30.5 29.3779 30.5 28.6875C30.5 27.9971 29.9404 27.4375 29.25 27.4375C28.5596 27.4375 28 27.9971 28 28.6875C28 29.3779 28.5596 29.9375 29.25 29.9375Z" fill="white"/>
</g>
<defs>
<clipPath id="clip0_20009845_30780">
<rect width="32" height="32" fill="white" transform="translate(16 16)"/>
</clipPath>
</defs>
</svg>
