<svg width="64" height="64" viewBox="0 0 64 64" fill="none" xmlns="http://www.w3.org/2000/svg">
<rect width="64" height="64" rx="32" fill="#107BEF"/>
<path d="M19.961 26.5957C20.3916 24.1952 21.4883 22.0189 23.1325 20.3022C23.6101 19.8036 23.5931 19.0124 23.0944 18.5349C22.5958 18.0572 21.8046 18.0744 21.3271 18.5729C19.3413 20.6462 18.018 23.2678 17.5003 26.1544C17.3784 26.8339 17.8304 27.4835 18.5099 27.6054C18.5847 27.6187 18.6588 27.6252 18.7321 27.6252C19.3258 27.6252 19.8526 27.2005 19.961 26.5957Z" fill="white"/>
<path d="M44.4698 36.9872C44.4005 36.9601 43.4255 36.5671 42.7089 35.6658C42.2793 35.1254 41.493 35.0357 40.9525 35.4653C40.4121 35.8949 40.3223 36.6812 40.752 37.2217C41.3982 38.0344 42.1496 38.5749 42.7234 38.907C42.6275 39.4454 42.4249 40.047 42.0705 40.5577C41.514 41.36 40.7278 41.75 39.6673 41.75H24.4187C22.4854 41.75 21.6228 40.1302 21.3733 38.9004C21.7423 38.6868 22.1852 38.3884 22.629 37.989C24.0447 36.7154 24.793 35.0334 24.793 33.125V28.75C24.793 24.8055 27.9904 21.5534 31.9207 21.5007C31.9315 21.5006 31.9421 21.4991 31.9529 21.4986C31.9622 21.4988 31.9712 21.5 31.9805 21.5C32.0134 21.5 32.0458 21.4976 32.0781 21.4951C32.107 21.4974 32.1358 21.5003 32.1653 21.5006C36.13 21.5539 39.3555 24.8059 39.3555 28.75V30.5C39.3555 31.1904 39.9151 31.75 40.6055 31.75C41.2958 31.75 41.8555 31.1904 41.8555 30.5V28.75C41.8555 23.7929 38.0718 19.6493 33.2305 19.0698V17.25C33.2305 16.5596 32.6708 16 31.9805 16C31.2901 16 30.7305 16.5596 30.7305 17.25V19.0853C28.602 19.3679 26.6344 20.3473 25.0988 21.9084C23.2895 23.7477 22.293 26.1775 22.293 28.75V33.125C22.293 35.9164 19.778 36.9252 19.616 36.9872C19.1137 37.1619 18.793 37.6299 18.793 38.1621C18.793 39.4741 19.2603 40.9084 20.0432 41.9992C21.085 43.4506 22.639 44.25 24.4187 44.25H28.293C28.293 46.3177 29.9752 48 32.043 48C34.1107 48 35.793 46.3177 35.793 44.25H39.6673C42.0512 44.25 43.407 43.0171 44.1245 41.9829C45.1791 40.463 45.2929 38.8046 45.2929 38.1621C45.293 37.6297 44.9723 37.1618 44.4698 36.9872ZM32.043 45.5C31.3537 45.5 30.793 44.9393 30.793 44.25H33.293C33.293 44.9393 32.7323 45.5 32.043 45.5Z" fill="white"/>
<path d="M46.4983 26.1926C45.9757 23.2793 44.6019 20.5498 42.6298 18.5068C42.1503 18.0101 41.3591 17.9962 40.8623 18.4756C40.3656 18.9551 40.3517 19.7465 40.8311 20.2431C42.4628 21.9335 43.6016 24.2031 44.0376 26.634C44.1461 27.2389 44.6728 27.6635 45.2665 27.6635C45.3397 27.6635 45.4141 27.6571 45.4887 27.6437C46.1682 27.5218 46.6202 26.8721 46.4983 26.1926Z" fill="white"/>
</svg>
