<svg width="64" height="64" viewBox="0 0 64 64" fill="none" xmlns="http://www.w3.org/2000/svg">
<rect width="64" height="64" rx="32" fill="#107BEF"/>
<g clip-path="url(#clip0_20009845_30758)">
<path d="M34.529 37.0374C33.7465 36.4915 32.9103 36.0466 32.0358 35.7068C33.1991 34.6494 33.9709 33.1682 34.1051 31.51C35.8693 29.791 38.1818 28.8486 40.6608 28.8486C42.5961 28.8486 44.4543 29.4314 46.0348 30.5337C46.6012 30.9287 47.3801 30.79 47.7751 30.2236C48.1699 29.6575 48.0312 28.8784 47.465 28.4836C46.6825 27.9377 45.8461 27.4932 44.9716 27.1531C46.2553 25.9863 47.0624 24.304 47.0624 22.4368C47.0624 18.9219 44.2031 16.0625 40.6882 16.0625C37.1735 16.0625 34.3141 18.9219 34.3141 22.4368C34.3141 24.2964 35.1147 25.9727 36.3896 27.1389C36.215 27.2061 36.0414 27.2771 35.8696 27.3528C35.0873 27.697 34.352 28.1204 33.6681 28.6174C32.725 26.2744 30.4289 24.6162 27.7524 24.6162C24.2377 24.6162 21.3781 27.4756 21.3781 30.9902C21.3781 32.8447 22.1742 34.5164 23.4423 35.6821C20.0519 36.9524 17.3029 39.6807 16.1838 43.1602C15.8127 44.314 16.0092 45.5376 16.7231 46.5173C17.4369 47.4968 18.5414 48.0586 19.7533 48.0586H30.6271C31.3173 48.0586 31.8769 47.499 31.8769 46.8086C31.8769 46.1184 31.3173 45.5588 30.6271 45.5588H19.7533C19.3493 45.5588 18.9811 45.3716 18.7431 45.0449C18.505 44.7183 18.4396 44.3103 18.5631 43.9255C19.7985 40.0847 23.5661 37.4024 27.725 37.4024C29.6601 37.4024 31.5185 37.9851 33.099 39.0874C33.6652 39.4824 34.4443 39.3435 34.8393 38.7774C35.2341 38.2112 35.0954 37.4321 34.529 37.0374ZM40.6882 18.5623C42.8246 18.5623 44.5627 20.3003 44.5627 22.4368C44.5627 24.573 42.8246 26.3113 40.6882 26.3113C38.5519 26.3113 36.8136 24.573 36.8136 22.4368C36.8136 20.3003 38.5519 18.5623 40.6882 18.5623ZM27.7524 27.1157C29.8888 27.1157 31.6269 28.854 31.6269 30.9902C31.6269 33.1267 29.8888 34.8648 27.7524 34.8648C25.6159 34.8648 23.8778 33.1267 23.8778 30.9902C23.8778 28.854 25.6159 27.1157 27.7524 27.1157ZM47.9999 42.1218C47.9999 42.812 47.4404 43.3716 46.7499 43.3716H43.3129V46.8086C43.3129 47.499 42.7533 48.0586 42.0632 48.0586C41.3727 48.0586 40.8132 47.499 40.8132 46.8086V43.3716H37.3761C36.686 43.3716 36.1264 42.812 36.1264 42.1218C36.1264 41.4314 36.686 40.8718 37.3761 40.8718H40.8132V37.4348C40.8132 36.7446 41.3727 36.1851 42.0632 36.1851C42.7533 36.1851 43.3129 36.7446 43.3129 37.4348V40.8718H46.7499C47.4404 40.8718 47.9999 41.4314 47.9999 42.1218Z" fill="white"/>
</g>
<defs>
<clipPath id="clip0_20009845_30758">
<rect width="32" height="32" fill="white" transform="translate(16 16)"/>
</clipPath>
</defs>
</svg>
