<svg width="64" height="64" viewBox="0 0 64 64" fill="none" xmlns="http://www.w3.org/2000/svg">
<rect width="64" height="64" rx="32" fill="#107BEF"/>
<path d="M42.6667 20H21.3333C20.596 20 20 20.596 20 21.3333V24.7867C20 25.484 20.284 26.1693 20.7773 26.6627L28 33.8853V44C28 44.4627 28.24 44.8907 28.6333 45.1347C28.8467 45.2667 29.0893 45.3333 29.3333 45.3333C29.5373 45.3333 29.7413 45.2867 29.9293 45.1933L35.2627 42.5267C35.7147 42.3 36 41.8387 36 41.3333V33.8853L43.2227 26.6627C43.716 26.1693 44 25.484 44 24.7867V21.3333C44 20.596 43.404 20 42.6667 20ZM33.724 32.3907C33.4733 32.64 33.3333 32.9787 33.3333 33.3333V40.5093L30.6667 41.8427V33.3333C30.6667 32.9787 30.5267 32.64 30.276 32.3907L22.6667 24.7867V22.6667H41.3347L41.3373 24.7773L33.724 32.3907Z" fill="white"/>
</svg>
