<svg width="64" height="64" viewBox="0 0 64 64" fill="none" xmlns="http://www.w3.org/2000/svg">
<rect width="64" height="64" rx="32" fill="#107BEF"/>
<path d="M38.4414 39.3125H34.7539C34.0635 39.3125 33.5039 39.8721 33.5039 40.5625C33.5039 41.2529 34.0635 41.8125 34.7539 41.8125H38.4414C39.1318 41.8125 39.6914 41.2529 39.6914 40.5625C39.6914 39.8721 39.1318 39.3125 38.4414 39.3125Z" fill="white"/>
<path d="M38.4414 31.75H34.7539C34.0635 31.75 33.5039 32.3096 33.5039 33C33.5039 33.6904 34.0635 34.25 34.7539 34.25H38.4414C39.1318 34.25 39.6914 33.6904 39.6914 33C39.6914 32.3096 39.1318 31.75 38.4414 31.75Z" fill="white"/>
<path d="M43.4345 38C44.1248 38 44.6845 37.4404 44.6845 36.75V21C44.6845 18.243 42.4415 16 39.6845 16H24.3164C21.5594 16 19.3164 18.243 19.3164 21V43C19.3164 45.757 21.5594 48 24.3164 48H39.6844C42.4415 48 44.6844 45.757 44.6845 43C44.6845 42.3096 44.1248 41.75 43.4345 41.75C42.7441 41.75 42.1845 42.3096 42.1845 43C42.1845 44.3785 41.063 45.5 39.6845 45.5H24.3164C22.9379 45.5 21.8164 44.3785 21.8164 43V21C21.8164 19.6215 22.9379 18.5 24.3164 18.5H39.6845C41.063 18.5 42.1845 19.6215 42.1845 21V36.75C42.1845 37.4404 42.7441 38 43.4345 38Z" fill="white"/>
<path d="M31.9875 20.9739C31.4554 20.5342 30.6675 20.6091 30.2278 21.1414L27.5275 24.4097L26.462 23.3155C25.9804 22.8209 25.189 22.8104 24.6943 23.292C24.1998 23.7736 24.1892 24.565 24.6708 25.0596L26.0117 26.4367C26.0228 26.448 26.034 26.4592 26.0455 26.4701C26.4507 26.8558 26.9915 27.0703 27.5478 27.0703C27.5956 27.0702 27.6437 27.0686 27.6917 27.0654C28.2945 27.0252 28.8574 26.7334 29.2378 26.2645L32.155 22.7337C32.5948 22.2014 32.5198 21.4135 31.9875 20.9739Z" fill="white"/>
<path d="M31.9875 36.216C31.4554 35.7764 30.6675 35.8513 30.2278 36.3835L27.5267 39.6527L26.4595 38.5628C25.9765 38.0696 25.1851 38.0613 24.6918 38.5443C24.1986 39.0273 24.1903 39.8188 24.6733 40.312L26.0141 41.6813C26.0244 41.6918 26.0348 41.7021 26.0455 41.7122C26.4506 42.0979 26.9915 42.3125 27.5478 42.3125C27.5956 42.3123 27.6436 42.3108 27.6916 42.3076C28.2944 42.2674 28.8573 41.9756 29.2378 41.5067L32.155 37.9758C32.5948 37.4436 32.5198 36.6557 31.9875 36.216Z" fill="white"/>
<path d="M38.4414 24.0625H34.7539C34.0635 24.0625 33.5039 24.6221 33.5039 25.3125C33.5039 26.0029 34.0635 26.5625 34.7539 26.5625H38.4414C39.1318 26.5625 39.6914 26.0029 39.6914 25.3125C39.6914 24.6221 39.1318 24.0625 38.4414 24.0625Z" fill="white"/>
<path d="M31.9875 28.6535C31.4554 28.2139 30.6675 28.2889 30.2278 28.821L27.5267 32.0902L26.4595 31.0004C25.9765 30.5071 25.1851 30.4989 24.6918 30.9819C24.1986 31.4649 24.1903 32.2563 24.6733 32.7495L26.0141 34.1189C26.0244 34.1293 26.0348 34.1396 26.0455 34.1497C26.4506 34.5354 26.9915 34.75 27.5478 34.75C27.5956 34.7499 27.6436 34.7483 27.6916 34.7451C28.2944 34.7049 28.8573 34.4132 29.2378 33.9442L32.155 30.4134C32.5948 29.8811 32.5198 29.0932 31.9875 28.6535Z" fill="white"/>
</svg>
