<svg width="64" height="64" viewBox="0 0 64 64" fill="none" xmlns="http://www.w3.org/2000/svg">
<rect width="64" height="64" rx="32" fill="#107BEF"/>
<g clip-path="url(#clip0_20009845_30772)">
<path d="M31.9385 48C31.7469 48 31.5555 47.9561 31.3794 47.8682C31.2332 47.7949 27.7571 46.0325 24.1202 42.0791C21.9883 39.7622 20.2374 37.1641 18.9156 34.3572C17.2647 30.8513 16.285 27.0129 16.003 22.9487C15.98 22.6172 16.0901 22.2903 16.3086 22.04C16.5274 21.7898 16.8365 21.6367 17.1683 21.615C19.4576 21.4646 21.251 19.5474 21.251 17.25C21.251 16.5596 21.8106 16 22.501 16H41.501C42.1912 16 42.751 16.5596 42.751 17.25C42.751 19.5459 44.5433 21.4631 46.8313 21.615C47.1683 21.6372 47.4817 21.7949 47.7005 22.052C47.9195 22.3091 48.025 22.6438 47.9932 22.98C47.5657 27.4927 46.3196 31.7134 44.2894 35.5251C43.9646 36.1345 43.2076 36.3652 42.5984 36.0408C41.9891 35.7163 41.7584 34.9592 42.0828 34.3499C43.7835 31.157 44.8887 27.6462 45.3748 23.8989C42.8152 23.2241 40.8489 21.1074 40.3655 18.5H23.6365C23.1512 21.1187 21.1705 23.2419 18.595 23.9072C19.252 30.2134 21.7032 35.7271 25.8902 40.3105C28.3965 43.054 30.8538 44.6726 31.9314 45.3132C33.1106 44.5959 35.9625 42.6685 38.7388 39.3264C39.18 38.7952 39.9678 38.7224 40.4991 39.1636C41.0301 39.6047 41.1031 40.3928 40.6619 40.9238C36.7107 45.6802 32.6778 47.7759 32.5079 47.8628C32.3292 47.9543 32.1338 48 31.9385 48ZM32.9053 41.2354C33.3216 40.6843 33.2125 39.9006 32.6619 39.4844C31.5811 38.6677 30.5584 37.7417 29.6219 36.7324C26.899 33.7969 25.0516 30.3479 24.1236 26.4705C24.6236 26.0842 25.094 25.6575 25.5284 25.1956C26.2486 24.4292 26.8636 23.5735 27.3563 22.6516C27.6814 22.0427 27.4515 21.2854 26.8426 20.96C26.2337 20.6348 25.4764 20.8647 25.1512 21.4736C24.7623 22.2012 24.2764 22.8772 23.7071 23.4832C23.2051 24.0171 22.6426 24.491 22.0357 24.8921C21.6099 25.1733 21.3978 25.6853 21.5001 26.1855C22.4517 30.8391 24.5674 34.9597 27.7891 38.4326C28.8248 39.5491 29.9571 40.5742 31.1546 41.479C31.3802 41.6494 31.6448 41.7317 31.9073 41.7317C32.2857 41.7317 32.6597 41.5605 32.9053 41.2354Z" fill="white"/>
</g>
<defs>
<clipPath id="clip0_20009845_30772">
<rect width="32" height="32" fill="white" transform="translate(16 16)"/>
</clipPath>
</defs>
</svg>
