<svg width="72" height="64" viewBox="0 0 72 64" fill="none" xmlns="http://www.w3.org/2000/svg">
<rect x="4" width="64" height="64" rx="32" fill="#107BEF"/>
<path d="M35.9987 17.75C28.1872 17.75 21.832 23.9183 21.832 31.5V32.4817V37V37.1966C21.832 38.6046 23.1028 39.75 24.6654 39.75H26.082C26.8654 39.75 27.4987 39.134 27.4987 38.375V31.3034C27.4987 30.5444 26.8654 29.9284 26.082 29.9284H24.7957C25.5834 24.6071 30.3009 20.5 35.9987 20.5C41.6965 20.5 46.414 24.6071 47.2017 29.9284H45.9154C45.1319 29.9284 44.4987 30.5444 44.4987 31.3034V37V38.375V39.75C44.4987 41.2666 43.2279 42.5 41.6654 42.5H38.832V41.125H33.1654V45.25H35.9987H38.832H41.6654C44.7905 45.25 47.332 42.7833 47.332 39.75C48.8946 39.75 50.1654 38.6046 50.1654 37.1966V37V32.4817V31.5C50.1654 23.9183 43.8102 17.75 35.9987 17.75Z" fill="white"/>
</svg>
