<svg width="180" height="100" viewBox="0 0 180 100" fill="none" xmlns="http://www.w3.org/2000/svg">
<rect x="0.5" y="0.5" width="179" height="99" rx="7.5" fill="white"/>
<rect x="0.5" y="0.5" width="179" height="99" rx="7.5" stroke="#E2E5F1"/>
<path d="M33.9414 62.8258H59.5914V37.1758H33.9414V62.8258ZM54.6544 47.5328H49.2344V42.1128H54.6544V47.5328ZM38.8774 42.1128H44.3004V52.4688H54.6544V57.8888H38.8774V42.1128ZM76.2944 37.1758C73.7578 37.1758 71.2782 37.928 69.1692 39.3372C67.0601 40.7464 65.4163 42.7494 64.4456 45.0929C63.4749 47.4364 63.221 50.015 63.7158 52.5028C64.2107 54.9906 65.4321 57.2758 67.2257 59.0694C69.0193 60.8631 71.3045 62.0845 73.7923 62.5794C76.2802 63.0742 78.8588 62.8203 81.2023 61.8496C83.5458 60.8789 85.5487 59.2351 86.958 57.126C88.3672 55.0169 89.1194 52.5373 89.1194 50.0008C89.1154 46.6006 87.7629 43.3408 85.3586 40.9365C82.9543 38.5322 79.6946 37.1798 76.2944 37.1758ZM76.2944 57.8888C74.7343 57.8888 73.2092 57.4262 71.912 56.5594C70.6149 55.6927 69.6038 54.4608 69.0068 53.0194C68.4098 51.5781 68.2536 49.9921 68.5579 48.4619C68.8623 46.9318 69.6136 45.5263 70.7167 44.4231C71.8199 43.32 73.2254 42.5687 74.7555 42.2644C76.2856 41.96 77.8716 42.1162 79.313 42.7132C80.7543 43.3102 81.9863 44.3213 82.853 45.6185C83.7198 46.9156 84.1824 48.4407 84.1824 50.0008C84.1792 52.0919 83.3471 54.0964 81.8685 55.575C80.3899 57.0536 78.3854 57.8856 76.2944 57.8888ZM135.013 37.1758C132.476 37.1756 129.997 37.9276 127.888 39.3367C125.779 40.7458 124.135 42.7487 123.164 45.0922C122.193 47.4356 121.939 50.0144 122.434 52.5022C122.928 54.9901 124.15 57.2754 125.943 59.0691C127.737 60.8628 130.022 62.0844 132.51 62.5793C134.997 63.0742 137.576 62.8203 139.92 61.8497C142.263 60.879 144.266 59.2352 145.675 57.1261C147.085 55.017 147.837 52.5374 147.837 50.0008C147.833 46.6008 146.481 43.3411 144.077 40.9369C141.673 38.5326 138.413 37.18 135.013 37.1758ZM135.013 57.8888C133.453 57.889 131.928 57.4265 130.631 56.5599C129.334 55.6933 128.322 54.4614 127.725 53.0201C127.128 51.5788 126.972 49.9927 127.276 48.4625C127.58 46.9324 128.331 45.5268 129.434 44.4235C130.538 43.3202 131.943 42.5689 133.473 42.2644C135.003 41.96 136.589 42.1161 138.03 42.7131C139.472 43.3101 140.704 44.3211 141.571 45.6184C142.437 46.9156 142.9 48.4407 142.9 50.0008C142.897 52.0917 142.065 54.096 140.586 55.5746C139.108 57.0532 137.104 57.8854 135.013 57.8888ZM105.653 37.1758C103.117 37.1758 100.637 37.928 98.5282 39.3372C96.4191 40.7464 94.7753 42.7494 93.8046 45.0929C92.8339 47.4364 92.58 50.015 93.0748 52.5028C93.5697 54.9906 94.7911 57.2758 96.5847 59.0694C98.3783 60.8631 100.664 62.0845 103.151 62.5794C105.639 63.0742 108.218 62.8203 110.561 61.8496C112.905 60.8789 114.908 59.2351 116.317 57.126C117.726 55.0169 118.478 52.5373 118.478 50.0008C118.474 46.6006 117.122 43.3408 114.718 40.9365C112.313 38.5322 109.054 37.1798 105.653 37.1758ZM105.653 57.8888C104.2 57.8895 102.774 57.4886 101.534 56.7303C100.294 55.972 99.2878 54.8859 98.6261 53.5917C97.9645 52.2975 97.6732 50.8456 97.7846 49.3964C97.896 47.9471 98.4056 46.5568 99.2573 45.3789C100.109 44.201 101.27 43.2814 102.611 42.7215C103.952 42.1616 105.422 41.9832 106.859 42.206C108.295 42.4289 109.642 43.0442 110.751 43.9842C111.859 44.9242 112.687 46.1523 113.141 47.5328H105.653V52.4688H113.141C112.621 54.0441 111.617 55.4155 110.273 56.3883C108.929 57.3612 107.313 57.8861 105.653 57.8888Z" fill="#B4B7C9"/>
</svg>
