<svg width="21" height="21" viewBox="0 0 21 21" fill="none" xmlns="http://www.w3.org/2000/svg">
<path d="M1.50019 11.5002H2.50019V13.5002V18.5002C2.50019 19.6033 3.39719 20.5002 4.50019 20.5002H7.50019H13.5002H16.5002C17.6032 20.5002 18.5002 19.6033 18.5002 18.5002V13.5002V11.5002H19.5002C19.9042 11.5002 20.2702 11.2563 20.4242 10.8833C20.5792 10.5093 20.4932 10.0793 20.2072 9.79325L11.2072 0.79325C10.8162 0.40225 10.1842 0.40225 9.79319 0.79325L0.793189 9.79325C0.507189 10.0793 0.421189 10.5093 0.576189 10.8833C0.730189 11.2563 1.09619 11.5002 1.50019 11.5002ZM8.50019 18.5002V13.5002H12.5002V18.5002H8.50019ZM10.5002 2.91425L16.5002 8.91425V13.5002L16.5012 18.5002H14.5002V13.5002C14.5002 12.3973 13.6032 11.5002 12.5002 11.5002H8.50019C7.39719 11.5002 6.50019 12.3973 6.50019 13.5002V18.5002H4.50019V13.5002V10.5002V8.91425L10.5002 2.91425Z" fill="#565973"/>
</svg>
