<svg width="19" height="19" viewBox="0 0 19 19" fill="none" xmlns="http://www.w3.org/2000/svg">
<path d="M7.59497 13.7329C8.97434 13.7329 10.2424 13.2584 11.2541 12.4716L14.5389 15.7564L15.5955 14.6998L12.3107 11.415C13.0983 10.4025 13.5727 9.13449 13.5727 7.75512C13.5727 4.45912 10.891 1.77734 7.59497 1.77734C4.29897 1.77734 1.61719 4.45912 1.61719 7.75512C1.61719 11.0511 4.29897 13.7329 7.59497 13.7329ZM7.59497 3.27179C10.0675 3.27179 12.0783 5.28256 12.0783 7.75512C12.0783 10.2277 10.0675 12.2385 7.59497 12.2385C5.12241 12.2385 3.11163 10.2277 3.11163 7.75512C3.11163 5.28256 5.12241 3.27179 7.59497 3.27179Z" fill="#9397AD"/>
<path d="M8.6472 6.69689C8.93039 6.98084 9.08656 7.35594 9.08656 7.75346H10.581C10.581 6.95767 10.2702 6.20746 9.70377 5.64032C8.57247 4.51052 6.61102 4.51052 5.48047 5.64032L6.53555 6.69839C7.10344 6.13199 8.0823 6.13349 8.6472 6.69689Z" fill="#9397AD"/>
</svg>
