<svg width="86" height="87" viewBox="0 0 86 87" fill="none" xmlns="http://www.w3.org/2000/svg">
<g filter="url(#filter0_dd_20009845_32468)">
<rect x="11" y="7" width="64" height="64" rx="32" fill="white"/>
<g clip-path="url(#clip0_20009845_32468)">
<path d="M56.283 42.1609C56.0243 41.521 55.2957 41.2117 54.6557 41.4705C54.0156 41.7293 53.7065 42.4578 53.9652 43.0979L55.4374 46.7395L51.0651 44.8121C50.7486 44.6726 50.3884 44.6704 50.0702 44.8061C48.576 45.4437 46.9753 45.767 45.3125 45.767C38.6205 45.767 34.125 40.5273 34.125 35.6335C34.125 30.0459 39.1437 25.5 45.3125 25.5C51.4813 25.5 56.5 30.0459 56.5 35.6335C56.5 36.0694 56.4594 36.5914 56.3887 37.0655C56.2868 37.7483 56.7577 38.3844 57.4405 38.4863C58.1234 38.5884 58.7595 38.1172 58.8613 37.4344C58.9507 36.835 59 36.1954 59 35.6335C59 32.2379 57.5621 29.0517 54.951 26.6621C52.3709 24.3006 48.9479 23 45.3125 23C41.6771 23 38.2541 24.3006 35.674 26.662C33.3407 28.7975 31.9452 31.5692 31.6745 34.5579C28.7397 36.5014 27 39.6157 27 42.9703C27 45.0658 27.6602 47.054 28.9169 48.7651L27.0912 53.2814C26.9005 53.7531 27.0147 54.2933 27.38 54.6474C27.618 54.8783 27.9317 55 28.2503 55C28.4205 54.9999 28.5921 54.9653 28.7542 54.8938L34.0185 52.5731C35.3428 53.0661 36.7426 53.3156 38.1875 53.3156C38.2187 53.3156 38.2494 53.3132 38.2801 53.3109C40.3699 53.2951 42.4016 52.7454 44.1612 51.7168C45.7373 50.7953 47.0338 49.5294 47.9428 48.0345C48.8302 47.8751 49.6976 47.6343 50.5394 47.3125L57.2457 50.2688C57.4079 50.3402 57.5795 50.375 57.7497 50.375C58.0682 50.3749 58.382 50.2532 58.62 50.0224C58.9854 49.6683 59.0995 49.1281 58.9089 48.6565L56.283 42.1609ZM38.1876 50.8124C38.1705 50.8124 38.1539 50.8143 38.137 50.815C36.8606 50.8085 35.6321 50.5576 34.4848 50.0681C34.1667 49.9323 33.8065 49.9345 33.49 50.0741L30.5627 51.3644L31.507 49.0285C31.6816 48.5967 31.6015 48.1036 31.2994 47.7491C30.1222 46.3681 29.5 44.7156 29.5 42.9703C29.5 40.9727 30.3403 39.08 31.8106 37.6449C32.2683 40.1402 33.5599 42.5272 35.5082 44.4023C37.9326 46.7356 41.1395 48.0874 44.6023 48.2501C42.9766 49.8504 40.6501 50.8124 38.1876 50.8124Z" fill="#107BEF"/>
<path d="M45.25 36.9375C45.9404 36.9375 46.5 36.3779 46.5 35.6875C46.5 34.9971 45.9404 34.4375 45.25 34.4375C44.5596 34.4375 44 34.9971 44 35.6875C44 36.3779 44.5596 36.9375 45.25 36.9375Z" fill="#107BEF"/>
<path d="M50.25 36.9375C50.9404 36.9375 51.5 36.3779 51.5 35.6875C51.5 34.9971 50.9404 34.4375 50.25 34.4375C49.5596 34.4375 49 34.9971 49 35.6875C49 36.3779 49.5596 36.9375 50.25 36.9375Z" fill="#107BEF"/>
<path d="M40.25 36.9375C40.9404 36.9375 41.5 36.3779 41.5 35.6875C41.5 34.9971 40.9404 34.4375 40.25 34.4375C39.5596 34.4375 39 34.9971 39 35.6875C39 36.3779 39.5596 36.9375 40.25 36.9375Z" fill="#107BEF"/>
</g>
</g>
<defs>
<filter id="filter0_dd_20009845_32468" x="0" y="0.4" width="86" height="86" filterUnits="userSpaceOnUse" color-interpolation-filters="sRGB">
<feFlood flood-opacity="0" result="BackgroundImageFix"/>
<feColorMatrix in="SourceAlpha" type="matrix" values="0 0 0 0 0 0 0 0 0 0 0 0 0 0 0 0 0 0 127 0" result="hardAlpha"/>
<feMorphology radius="1" operator="erode" in="SourceAlpha" result="effect1_dropShadow_20009845_32468"/>
<feOffset dy="2"/>
<feGaussianBlur stdDeviation="3.2"/>
<feColorMatrix type="matrix" values="0 0 0 0 0.0745098 0 0 0 0 0.0627451 0 0 0 0 0.133333 0 0 0 0.03 0"/>
<feBlend mode="normal" in2="BackgroundImageFix" result="effect1_dropShadow_20009845_32468"/>
<feColorMatrix in="SourceAlpha" type="matrix" values="0 0 0 0 0 0 0 0 0 0 0 0 0 0 0 0 0 0 127 0" result="hardAlpha"/>
<feMorphology radius="1" operator="erode" in="SourceAlpha" result="effect2_dropShadow_20009845_32468"/>
<feOffset dy="4.4"/>
<feGaussianBlur stdDeviation="6"/>
<feColorMatrix type="matrix" values="0 0 0 0 0.0745098 0 0 0 0 0.0627451 0 0 0 0 0.133333 0 0 0 0.06 0"/>
<feBlend mode="normal" in2="effect1_dropShadow_20009845_32468" result="effect2_dropShadow_20009845_32468"/>
<feBlend mode="normal" in="SourceGraphic" in2="effect2_dropShadow_20009845_32468" result="shape"/>
</filter>
<clipPath id="clip0_20009845_32468">
<rect width="32" height="32" fill="white" transform="translate(27 23)"/>
</clipPath>
</defs>
</svg>
