<svg width="100" height="100" viewBox="0 0 100 100" fill="none" xmlns="http://www.w3.org/2000/svg">
<g filter="url(#filter0_d_20009845_32498)">
<rect x="10" y="2" width="80" height="80" rx="8" fill="#107BEF"/>
</g>
<path d="M59.375 62C61.3135 62 62.8906 60.4229 62.8906 58.4844V25.5156C62.8906 23.5771 61.3135 22 59.375 22H40.625C38.6865 22 37.1094 23.5771 37.1094 25.5156V58.4844C37.1094 60.4229 38.6865 62 40.625 62H59.375ZM39.4531 25.5156C39.4531 24.8696 39.9789 24.3438 40.625 24.3438H59.375C60.0211 24.3438 60.5469 24.8696 60.5469 25.5156V26.6875H39.4531V25.5156ZM39.4531 29.0312H60.5469V54.9688H39.4531V29.0312ZM39.4531 58.4844V57.3125H60.5469V58.4844C60.5469 59.1304 60.0211 59.6562 59.375 59.6562H40.625C39.9789 59.6562 39.4531 59.1304 39.4531 58.4844Z" fill="white"/>
<path d="M50 31.4531C45.4767 31.4531 41.7969 35.1329 41.7969 39.6562C41.7969 44.1719 45.47 47.8594 50 47.8594C54.5319 47.8594 58.2031 44.1707 58.2031 39.6562C58.2031 35.1329 54.5233 31.4531 50 31.4531ZM50 45.5156C48.9365 45.5156 47.9388 45.2294 47.0782 44.7319C47.7209 43.7743 48.8104 43.1719 50 43.1719C51.1893 43.1719 52.2791 43.7743 52.9218 44.7319C52.0612 45.2294 51.0635 45.5156 50 45.5156ZM48.8281 39.6562C48.8281 39.0102 49.3539 38.4844 50 38.4844C50.6461 38.4844 51.1719 39.0102 51.1719 39.6562C51.1719 40.3023 50.6461 40.8281 50 40.8281C49.3539 40.8281 48.8281 40.3023 48.8281 39.6562ZM54.6857 43.17C54.2068 42.5338 53.6044 42.0046 52.9205 41.6109C53.2962 41.0515 53.5156 40.3792 53.5156 39.6562C53.5156 37.7178 51.9385 36.1406 50 36.1406C48.0615 36.1406 46.4844 37.7178 46.4844 39.6562C46.4844 40.3792 46.7038 41.0515 47.0795 41.6109C46.3953 42.0046 45.7932 42.5341 45.3143 43.17C44.5776 42.1904 44.1406 40.9734 44.1406 39.6562C44.1406 36.4254 46.7691 33.7969 50 33.7969C53.2309 33.7969 55.8594 36.4254 55.8594 39.6562C55.8594 40.9734 55.4224 42.1904 54.6857 43.17Z" fill="white"/>
<path d="M51.1719 51.375C51.1719 52.0223 50.6473 52.5469 50 52.5469C49.3527 52.5469 48.8281 52.0223 48.8281 51.375C48.8281 50.7277 49.3527 50.2031 50 50.2031C50.6473 50.2031 51.1719 50.7277 51.1719 51.375Z" fill="white"/>
<path d="M55.8594 51.375C55.8594 52.0223 55.3348 52.5469 54.6875 52.5469C54.0402 52.5469 53.5156 52.0223 53.5156 51.375C53.5156 50.7277 54.0402 50.2031 54.6875 50.2031C55.3348 50.2031 55.8594 50.7277 55.8594 51.375Z" fill="white"/>
<path d="M46.4844 51.375C46.4844 52.0223 45.9598 52.5469 45.3125 52.5469C44.6652 52.5469 44.1406 52.0223 44.1406 51.375C44.1406 50.7277 44.6652 50.2031 45.3125 50.2031C45.9598 50.2031 46.4844 50.7277 46.4844 51.375Z" fill="white"/>
<defs>
<filter id="filter0_d_20009845_32498" x="0" y="0" width="100" height="100" filterUnits="userSpaceOnUse" color-interpolation-filters="sRGB">
<feFlood flood-opacity="0" result="BackgroundImageFix"/>
<feColorMatrix in="SourceAlpha" type="matrix" values="0 0 0 0 0 0 0 0 0 0 0 0 0 0 0 0 0 0 127 0" result="hardAlpha"/>
<feMorphology radius="8" operator="erode" in="SourceAlpha" result="effect1_dropShadow_20009845_32498"/>
<feOffset dy="8"/>
<feGaussianBlur stdDeviation="9"/>
<feColorMatrix type="matrix" values="0 0 0 0 0.388235 0 0 0 0 0.4 0 0 0 0 0.945098 0 0 0 0.9 0"/>
<feBlend mode="normal" in2="BackgroundImageFix" result="effect1_dropShadow_20009845_32498"/>
<feBlend mode="normal" in="SourceGraphic" in2="effect1_dropShadow_20009845_32498" result="shape"/>
</filter>
</defs>
</svg>
