<svg width="100" height="100" viewBox="0 0 100 100" fill="none" xmlns="http://www.w3.org/2000/svg">
<g filter="url(#filter0_d_20009845_32512)">
<rect x="10" y="2" width="80" height="80" rx="8" fill="#107BEF"/>
</g>
<g clip-path="url(#clip0_20009845_32512)">
<path d="M65.6527 26.3778C59.7 20.4366 50.014 20.4366 44.0612 26.3778C38.9655 31.4635 38.2326 39.2788 41.8606 45.1507L31.0692 55.9206C29.6957 57.2918 29.6957 59.5226 31.0692 60.8938C32.4427 62.2646 34.6783 62.2646 36.0518 60.8938L41.0344 55.921C41.0344 55.921 41.0344 55.9206 41.0347 55.9206L46.8431 50.1235C52.7427 53.7545 60.5693 53.0004 65.6524 47.9272C71.6055 41.986 71.6055 32.3189 65.6527 26.3778ZM34.3911 59.2361C33.9334 59.6932 33.1882 59.6932 32.7302 59.2361C32.2724 58.7789 32.2724 58.0355 32.7302 57.5784L33.5607 56.7495L35.2216 58.4072L34.3911 59.2361ZM36.8823 56.7495L35.2216 55.0918L36.8823 53.4344L38.5432 55.0918L36.8823 56.7495ZM40.2042 53.4344L38.5432 51.7767L43.2622 47.0669C43.5157 47.3614 43.7817 47.6485 44.0612 47.9272C44.3407 48.2061 44.6281 48.4719 44.9232 48.7246L40.2042 53.4344ZM63.9918 46.2698C58.9548 51.2966 50.7592 51.2966 45.7219 46.2698C40.6852 41.2426 40.6852 33.0626 45.7219 28.0355C50.7589 23.0083 58.9545 23.008 63.9918 28.0355C69.0288 33.0626 69.0288 41.2426 63.9918 46.2698Z" fill="white"/>
<path d="M62.3308 29.6934C58.206 25.5763 51.5083 25.576 47.3828 29.6934C43.258 33.8103 43.2577 40.4948 47.3828 44.6123C51.508 48.7291 58.2057 48.7294 62.3308 44.6123C66.456 40.4951 66.456 33.8106 62.3308 29.6934ZM60.6699 42.9546C57.4645 46.1537 52.2492 46.1537 49.0438 42.9546C45.8384 39.7554 45.8384 34.55 49.0438 31.3512C52.2492 28.152 57.4645 28.1517 60.6699 31.3512C63.8753 34.55 63.8753 39.7554 60.6699 42.9546Z" fill="white"/>
<path d="M59.853 33.9872C59.2729 33.6979 58.5675 33.9325 58.2773 34.5115L56.979 37.1033L55.6807 34.5115C55.4816 34.1144 55.075 33.8636 54.6301 33.8636C54.1852 33.8636 53.7788 34.1144 53.5797 34.5115L52.2814 37.1033L50.9828 34.5115C50.6929 33.9325 49.9872 33.6979 49.4071 33.9872C48.8271 34.2768 48.592 34.9808 48.8821 35.56L51.2308 40.2485C51.4298 40.6455 51.8365 40.8964 52.2814 40.8964C52.7263 40.8964 53.1327 40.6455 53.3317 40.2485L54.6304 37.6566L55.9287 40.2485C56.1274 40.6455 56.5341 40.8964 56.979 40.8964C57.4239 40.8964 57.8306 40.6455 58.0296 40.2485L60.3783 35.56C60.6685 34.9808 60.4333 34.2768 59.853 33.9872Z" fill="white"/>
</g>
<defs>
<filter id="filter0_d_20009845_32512" x="0" y="0" width="100" height="100" filterUnits="userSpaceOnUse" color-interpolation-filters="sRGB">
<feFlood flood-opacity="0" result="BackgroundImageFix"/>
<feColorMatrix in="SourceAlpha" type="matrix" values="0 0 0 0 0 0 0 0 0 0 0 0 0 0 0 0 0 0 127 0" result="hardAlpha"/>
<feMorphology radius="8" operator="erode" in="SourceAlpha" result="effect1_dropShadow_20009845_32512"/>
<feOffset dy="8"/>
<feGaussianBlur stdDeviation="9"/>
<feColorMatrix type="matrix" values="0 0 0 0 0.388235 0 0 0 0 0.4 0 0 0 0 0.945098 0 0 0 0.9 0"/>
<feBlend mode="normal" in2="BackgroundImageFix" result="effect1_dropShadow_20009845_32512"/>
<feBlend mode="normal" in="SourceGraphic" in2="effect1_dropShadow_20009845_32512" result="shape"/>
</filter>
<clipPath id="clip0_20009845_32512">
<rect width="40" height="40" fill="white" transform="translate(30 22)"/>
</clipPath>
</defs>
</svg>
