<svg width="100" height="100" viewBox="0 0 100 100" fill="none" xmlns="http://www.w3.org/2000/svg">
<g filter="url(#filter0_d_20009845_32315)">
<rect x="10" y="2" width="80" height="80" rx="8" fill="#107BEF"/>
</g>
<g clip-path="url(#clip0_20009845_32315)">
<path d="M66.6038 45.9511C66.2804 45.1512 65.3696 44.7646 64.5696 45.0882C63.7695 45.4116 63.3831 46.3223 63.7066 47.1224L65.5468 51.6744L60.0813 49.2651C59.6857 49.0907 59.2355 49.088 58.8378 49.2577C56.97 50.0546 54.9691 50.4587 52.8906 50.4587C44.5256 50.4587 38.9063 43.9091 38.9063 37.7918C38.9063 30.8073 45.1796 25.125 52.8906 25.125C60.6016 25.125 66.875 30.8073 66.875 37.7918C66.875 38.3368 66.8242 38.9893 66.7358 39.5819C66.6085 40.4354 67.1972 41.2305 68.0507 41.3579C68.9043 41.4855 69.6994 40.8965 69.8266 40.043C69.9384 39.2938 70 38.4943 70 37.7918C70 33.5473 68.2026 29.5647 64.9388 26.5776C61.7137 23.6257 57.4348 22 52.8906 22C48.3464 22 44.0677 23.6257 40.8425 26.5775C37.9259 29.2469 36.1815 32.7115 35.8432 36.4474C32.1747 38.8768 30.0001 42.7696 30.0001 46.9628C30.0001 49.5822 30.8253 52.0675 32.3961 54.2063L30.114 59.8518C29.8756 60.4413 30.0183 61.1166 30.475 61.5592C30.7726 61.8478 31.1647 62 31.5629 62C31.7756 61.9999 31.9901 61.9566 32.1928 61.8672L38.7732 58.9664C40.4285 59.5826 42.1782 59.8945 43.9843 59.8945C44.0234 59.8945 44.0617 59.8915 44.1001 59.8887C46.7124 59.8689 49.252 59.1818 51.4515 57.8959C53.4216 56.7441 55.0423 55.1617 56.1784 53.2931C57.2877 53.0938 58.372 52.7929 59.4243 52.3906L67.8072 56.0859C68.0099 56.1752 68.2244 56.2188 68.4371 56.2188C68.8353 56.2187 69.2275 56.0665 69.5251 55.778C69.9817 55.3353 70.1244 54.6602 69.8861 54.0706L66.6038 45.9511ZM43.9845 56.7656C43.9632 56.7656 43.9424 56.7679 43.9212 56.7688C42.3257 56.7606 40.7901 56.447 39.356 55.8352C38.9584 55.6654 38.5082 55.6681 38.1125 55.8426L34.4534 57.4556L35.6338 54.5356C35.852 53.9959 35.7519 53.3795 35.3743 52.9364C33.9028 51.2101 33.125 49.1446 33.125 46.9628C33.125 44.4659 34.1754 42.1 36.0132 40.3061C36.5854 43.4253 38.1999 46.409 40.6353 48.7529C43.6658 51.6696 47.6744 53.3592 52.0029 53.5627C49.9707 55.5631 47.0626 56.7656 43.9845 56.7656Z" fill="white"/>
<path d="M52.8125 39.4219C53.6754 39.4219 54.375 38.7223 54.375 37.8594C54.375 36.9964 53.6754 36.2969 52.8125 36.2969C51.9496 36.2969 51.25 36.9964 51.25 37.8594C51.25 38.7223 51.9496 39.4219 52.8125 39.4219Z" fill="white"/>
<path d="M59.0625 39.4219C59.9254 39.4219 60.625 38.7223 60.625 37.8594C60.625 36.9964 59.9254 36.2969 59.0625 36.2969C58.1996 36.2969 57.5 36.9964 57.5 37.8594C57.5 38.7223 58.1996 39.4219 59.0625 39.4219Z" fill="white"/>
<path d="M46.5625 39.4219C47.4254 39.4219 48.125 38.7223 48.125 37.8594C48.125 36.9964 47.4254 36.2969 46.5625 36.2969C45.6996 36.2969 45 36.9964 45 37.8594C45 38.7223 45.6996 39.4219 46.5625 39.4219Z" fill="white"/>
</g>
<defs>
<filter id="filter0_d_20009845_32315" x="0" y="0" width="100" height="100" filterUnits="userSpaceOnUse" color-interpolation-filters="sRGB">
<feFlood flood-opacity="0" result="BackgroundImageFix"/>
<feColorMatrix in="SourceAlpha" type="matrix" values="0 0 0 0 0 0 0 0 0 0 0 0 0 0 0 0 0 0 127 0" result="hardAlpha"/>
<feMorphology radius="8" operator="erode" in="SourceAlpha" result="effect1_dropShadow_20009845_32315"/>
<feOffset dy="8"/>
<feGaussianBlur stdDeviation="9"/>
<feColorMatrix type="matrix" values="0 0 0 0 0.388235 0 0 0 0 0.4 0 0 0 0 0.945098 0 0 0 0.9 0"/>
<feBlend mode="normal" in2="BackgroundImageFix" result="effect1_dropShadow_20009845_32315"/>
<feBlend mode="normal" in="SourceGraphic" in2="effect1_dropShadow_20009845_32315" result="shape"/>
</filter>
<clipPath id="clip0_20009845_32315">
<rect width="40" height="40" fill="white" transform="translate(30 22)"/>
</clipPath>
</defs>
</svg>
