<svg width="100" height="100" viewBox="0 0 100 100" fill="none" xmlns="http://www.w3.org/2000/svg">
<g filter="url(#filter0_d_20009845_32327)">
<rect x="10" y="2" width="80" height="80" rx="8" fill="#107BEF"/>
</g>
<path d="M34.9522 35.2447C35.4905 32.244 36.8613 29.5236 38.9166 27.3777C39.5136 26.7545 39.4923 25.7654 38.869 25.1686C38.2457 24.5715 37.2567 24.5929 36.6599 25.2161C34.1776 27.8077 32.5235 31.0847 31.8764 34.6929C31.724 35.5423 32.289 36.3544 33.1384 36.5068C33.2318 36.5234 33.3245 36.5315 33.4161 36.5315C34.1582 36.5315 34.8167 36.0007 34.9522 35.2447Z" fill="white"/>
<path d="M65.5883 48.234C65.5016 48.2001 64.2829 47.7089 63.3871 46.5822C62.8501 45.9067 61.8672 45.7946 61.1916 46.3316C60.5161 46.8687 60.4039 47.8516 60.9409 48.5271C61.7487 49.543 62.688 50.2187 63.4052 50.6337C63.2853 51.3067 63.0321 52.0588 62.5891 52.6971C61.8934 53.7 60.9107 54.1875 59.5852 54.1875H40.5243C38.1077 54.1875 37.0295 52.1627 36.7177 50.6255C37.1788 50.3585 37.7324 49.9855 38.2873 49.4862C40.0568 47.8942 40.9922 45.7918 40.9922 43.4062V37.9375C40.9922 33.0069 44.989 28.9418 49.9018 28.8759C49.9154 28.8757 49.9286 28.8738 49.9421 28.8733C49.9537 28.8735 49.9649 28.875 49.9766 28.875C50.0177 28.875 50.0582 28.872 50.0986 28.8688C50.1348 28.8718 50.1708 28.8753 50.2076 28.8758C55.1634 28.9423 59.1953 33.0074 59.1953 37.9375V40.125C59.1953 40.988 59.8948 41.6875 60.7578 41.6875C61.6208 41.6875 62.3203 40.988 62.3203 40.125V37.9375C62.3203 31.7412 57.5908 26.5616 51.5391 25.8372V23.5625C51.5391 22.6995 50.8395 22 49.9766 22C49.1136 22 48.4141 22.6995 48.4141 23.5625V25.8566C45.7535 26.2098 43.294 27.4341 41.3745 29.3855C39.1128 31.6847 37.8672 34.7219 37.8672 37.9375V43.4062C37.8672 46.8955 34.7235 48.1566 34.5209 48.2341C33.893 48.4524 33.4922 49.0374 33.4922 49.7027C33.4922 51.3426 34.0764 53.1355 35.0549 54.499C36.3572 56.3133 38.2997 57.3125 40.5243 57.3125H45.3672C45.3672 59.8972 47.47 62 50.0547 62C52.6394 62 54.7422 59.8972 54.7422 57.3125H59.5851C62.5649 57.3125 64.2597 55.7713 65.1566 54.4786C66.4748 52.5788 66.6171 50.5057 66.6171 49.7027C66.6172 49.0371 66.2164 48.4522 65.5883 48.234ZM50.0547 58.875C49.1931 58.875 48.4922 58.1741 48.4922 57.3125H51.6172C51.6172 58.1741 50.9163 58.875 50.0547 58.875Z" fill="white"/>
<path d="M68.1239 34.7408C67.4706 31.0991 65.7533 27.6872 63.2882 25.1335C62.6889 24.5127 61.6998 24.4953 61.0789 25.0946C60.458 25.6939 60.4406 26.6831 61.0399 27.3039C63.0795 29.4168 64.5029 32.2539 65.048 35.2925C65.1835 36.0486 65.842 36.5794 66.5841 36.5794C66.6757 36.5794 66.7685 36.5714 66.8618 36.5546C67.7112 36.4023 68.2763 35.5902 68.1239 34.7408Z" fill="white"/>
<defs>
<filter id="filter0_d_20009845_32327" x="0" y="0" width="100" height="100" filterUnits="userSpaceOnUse" color-interpolation-filters="sRGB">
<feFlood flood-opacity="0" result="BackgroundImageFix"/>
<feColorMatrix in="SourceAlpha" type="matrix" values="0 0 0 0 0 0 0 0 0 0 0 0 0 0 0 0 0 0 127 0" result="hardAlpha"/>
<feMorphology radius="8" operator="erode" in="SourceAlpha" result="effect1_dropShadow_20009845_32327"/>
<feOffset dy="8"/>
<feGaussianBlur stdDeviation="9"/>
<feColorMatrix type="matrix" values="0 0 0 0 0.388235 0 0 0 0 0.4 0 0 0 0 0.945098 0 0 0 0.9 0"/>
<feBlend mode="normal" in2="BackgroundImageFix" result="effect1_dropShadow_20009845_32327"/>
<feBlend mode="normal" in="SourceGraphic" in2="effect1_dropShadow_20009845_32327" result="shape"/>
</filter>
</defs>
</svg>
