<svg width="86" height="87" viewBox="0 0 86 87" fill="none" xmlns="http://www.w3.org/2000/svg">
<g filter="url(#filter0_dd_20009845_32455)">
<rect x="11" y="7" width="64" height="64" rx="32" fill="white"/>
<path d="M58.6848 47.8089C58.6471 47.7226 58.5998 47.6409 58.5438 47.5654L55.7784 43.832C55.5904 43.3794 55.1445 43.0609 54.6239 43.0609H32.6259V29.9371C32.6259 28.5588 33.7473 27.4374 35.1257 27.4374H50.8742C52.2526 27.4374 53.3739 28.5588 53.3739 29.9371V38.0614C53.3739 38.7517 53.9335 39.3113 54.6238 39.3113C55.3141 39.3113 55.8737 38.7517 55.8737 38.0614V29.9371C55.8737 27.1803 53.6309 24.9375 50.8742 24.9375H35.1258C32.369 24.9375 30.1263 27.1803 30.1263 29.9371V43.9608L27.4561 47.5653C27.4001 47.6409 27.3528 47.7226 27.3152 47.8088C26.8069 48.9721 26.9184 50.3009 27.6135 51.3633C28.3086 52.4256 29.4816 53.0599 30.7511 53.0599H55.2488C56.5184 53.0599 57.6913 52.4257 58.3864 51.3633C59.0816 50.3009 59.1931 48.9722 58.6848 47.8089ZM56.2948 49.9945C56.0596 50.3539 55.6784 50.5601 55.2489 50.5601H47.3746C47.3746 49.8697 46.815 49.3102 46.1247 49.3102H39.8753C39.1849 49.3102 38.6254 49.8697 38.6254 50.5601H30.7511C30.3216 50.5601 29.9404 50.3539 29.7053 49.9945C29.4919 49.6685 29.4423 49.2829 29.5633 48.9204L32.0057 45.623H53.9943L56.4368 48.9204C56.5576 49.2829 56.5081 49.6686 56.2948 49.9945Z" fill="#107BEF"/>
<path d="M39.625 35.4998V35.5623V39.2495V39.312C39.625 40.0023 40.1846 40.5619 40.8749 40.5619C41.5652 40.5619 42.1248 40.0023 42.1248 39.312V39.2495V35.5624V35.4999C42.1248 34.8096 41.5652 34.25 40.8749 34.25C40.1846 34.2499 39.625 34.8095 39.625 35.4998Z" fill="#107BEF"/>
<path d="M35.25 34.2499V34.3124V39.2494V39.3119C35.25 40.0022 35.8096 40.5618 36.4999 40.5618C37.1902 40.5618 37.7498 40.0022 37.7498 39.3119V39.2494V34.3124V34.2499C37.7498 33.5596 37.1902 33 36.4999 33C35.8096 33 35.25 33.5596 35.25 34.2499Z" fill="#107BEF"/>
<path d="M44 31.1249V31.1874V39.2491V39.3116C44 40.0019 44.5596 40.5615 45.2499 40.5615C45.9402 40.5615 46.4998 40.0019 46.4998 39.3116V39.2491V31.1874V31.1249C46.4998 30.4346 45.9402 29.875 45.2499 29.875C44.5596 29.8749 44 30.4346 44 31.1249Z" fill="#107BEF"/>
<path d="M48.375 37.4374V37.4999V39.2497V39.3122C48.375 40.0025 48.9346 40.5621 49.6249 40.5621C50.3152 40.5621 50.8748 40.0025 50.8748 39.3122V39.2497V37.4999V37.4374C50.8748 36.7471 50.3152 36.1875 49.6249 36.1875C48.9346 36.1875 48.375 36.7471 48.375 37.4374Z" fill="#107BEF"/>
</g>
<defs>
<filter id="filter0_dd_20009845_32455" x="0" y="0.4" width="86" height="86" filterUnits="userSpaceOnUse" color-interpolation-filters="sRGB">
<feFlood flood-opacity="0" result="BackgroundImageFix"/>
<feColorMatrix in="SourceAlpha" type="matrix" values="0 0 0 0 0 0 0 0 0 0 0 0 0 0 0 0 0 0 127 0" result="hardAlpha"/>
<feMorphology radius="1" operator="erode" in="SourceAlpha" result="effect1_dropShadow_20009845_32455"/>
<feOffset dy="2"/>
<feGaussianBlur stdDeviation="3.2"/>
<feColorMatrix type="matrix" values="0 0 0 0 0.0745098 0 0 0 0 0.0627451 0 0 0 0 0.133333 0 0 0 0.03 0"/>
<feBlend mode="normal" in2="BackgroundImageFix" result="effect1_dropShadow_20009845_32455"/>
<feColorMatrix in="SourceAlpha" type="matrix" values="0 0 0 0 0 0 0 0 0 0 0 0 0 0 0 0 0 0 127 0" result="hardAlpha"/>
<feMorphology radius="1" operator="erode" in="SourceAlpha" result="effect2_dropShadow_20009845_32455"/>
<feOffset dy="4.4"/>
<feGaussianBlur stdDeviation="6"/>
<feColorMatrix type="matrix" values="0 0 0 0 0.0745098 0 0 0 0 0.0627451 0 0 0 0 0.133333 0 0 0 0.06 0"/>
<feBlend mode="normal" in2="effect1_dropShadow_20009845_32455" result="effect2_dropShadow_20009845_32455"/>
<feBlend mode="normal" in="SourceGraphic" in2="effect2_dropShadow_20009845_32455" result="shape"/>
</filter>
</defs>
</svg>
