<svg width="100" height="100" viewBox="0 0 100 100" fill="none" xmlns="http://www.w3.org/2000/svg">
<g filter="url(#filter0_d_20009845_32327)">
<rect x="10" y="2" width="80" height="80" rx="8" fill="#107BEF"/>
</g>
<path d="M68.8281 49.0312H67.6562V29.1094C67.6562 27.1709 66.0791 25.5938 64.1406 25.5938H35.8594C33.9209 25.5938 32.3517 27.1709 32.3517 29.1094V49.0312H31.1798C30.5325 49.0312 30 49.5558 30 50.2031V52.5469C30 55.7778 32.6285 58.4062 35.8594 58.4062H64.1406C67.3715 58.4062 70 55.7778 70 52.5469V50.2031C70 49.5558 69.4754 49.0312 68.8281 49.0312ZM34.6875 29.1094C34.6875 28.4633 35.2133 27.9375 35.8594 27.9375H64.1406C64.7867 27.9375 65.3204 28.4633 65.3204 29.1094V49.0312H57.1094C56.4624 49.0312 55.9454 49.5558 55.9454 50.2031V50.2047V51.375H44.0625V50.2031C44.0625 49.5558 43.5379 49.0312 42.8906 49.0312H34.6875V29.1094ZM67.6642 52.5469C67.6642 54.4854 66.0791 56.0625 64.1406 56.0625H35.8594C33.9209 56.0625 32.3438 54.4854 32.3438 52.5469V51.375H41.7267V52.5469C41.7267 53.1942 42.2433 53.7188 42.8906 53.7188H57.1094C57.7567 53.7188 58.2812 53.1942 58.2812 52.5469V51.375H67.6642V52.5469Z" fill="white"/>
<path d="M62.9688 45.5156C62.9688 44.8683 62.4438 44.3438 61.7969 44.3438H41.0489L47.6526 37.7944L51.5149 41.6567C51.9702 42.112 52.7075 42.1147 53.1662 41.6628L57.9315 36.9658C58.392 37.188 58.9084 37.3125 59.4531 37.3125C61.3916 37.3125 62.9688 35.7354 62.9688 33.7969C62.9688 31.8584 61.3916 30.2812 59.4531 30.2812C57.5146 30.2812 55.9375 31.8584 55.9375 33.7969C55.9375 34.3364 56.0599 34.8476 56.2778 35.3047L52.3495 39.1768L48.4848 35.3121C48.0283 34.8555 47.2891 34.854 46.8311 35.3084L39.375 42.7028V31.4531C39.375 30.8058 38.8501 30.2812 38.2031 30.2812C37.5558 30.2812 37.0312 30.8058 37.0312 31.4531V45.5156C37.0312 46.1684 37.5656 46.6875 38.2028 46.6875H38.2034H61.7969C62.4438 46.6875 62.9688 46.1629 62.9688 45.5156ZM59.4531 32.625C60.0992 32.625 60.625 33.1508 60.625 33.7969C60.625 34.4429 60.0992 34.9688 59.4531 34.9688C58.8068 34.9688 58.2812 34.4429 58.2812 33.7969C58.2812 33.1508 58.8068 32.625 59.4531 32.625Z" fill="white"/>
<defs>
<filter id="filter0_d_20009845_32327" x="0" y="0" width="100" height="100" filterUnits="userSpaceOnUse" color-interpolation-filters="sRGB">
<feFlood flood-opacity="0" result="BackgroundImageFix"/>
<feColorMatrix in="SourceAlpha" type="matrix" values="0 0 0 0 0 0 0 0 0 0 0 0 0 0 0 0 0 0 127 0" result="hardAlpha"/>
<feMorphology radius="8" operator="erode" in="SourceAlpha" result="effect1_dropShadow_20009845_32327"/>
<feOffset dy="8"/>
<feGaussianBlur stdDeviation="9"/>
<feColorMatrix type="matrix" values="0 0 0 0 0.388235 0 0 0 0 0.4 0 0 0 0 0.945098 0 0 0 0.9 0"/>
<feBlend mode="normal" in2="BackgroundImageFix" result="effect1_dropShadow_20009845_32327"/>
<feBlend mode="normal" in="SourceGraphic" in2="effect1_dropShadow_20009845_32327" result="shape"/>
</filter>
</defs>
</svg>
