<svg width="100" height="100" viewBox="0 0 100 100" fill="none" xmlns="http://www.w3.org/2000/svg">
<g filter="url(#filter0_d_20009845_32338)">
<rect x="10" y="2" width="80" height="80" rx="8" fill="#107BEF"/>
</g>
<path d="M50 31.5312C42.8922 31.5312 37.1094 37.3168 37.1094 44.4219C37.1094 51.5297 42.8949 57.3125 50 57.3125C57.1271 57.3125 62.8906 51.5139 62.8906 44.4219C62.8906 37.314 57.1051 31.5312 50 31.5312ZM59.375 45.5928H60.4813C60.2557 47.6241 59.4513 49.4838 58.2367 51.0012L57.4579 50.2224C57.0001 49.7649 56.2582 49.7649 55.8005 50.2224C55.3427 50.6801 55.343 51.422 55.8005 51.8798L56.5793 52.6586C55.062 53.8732 53.2031 54.6776 51.1719 54.9031V53.7969C51.1719 53.1496 50.6473 52.625 50 52.625C49.3527 52.625 48.8281 53.1496 48.8281 53.7969V54.9031C46.7969 54.6776 44.938 53.8732 43.4207 52.6586L44.1995 51.8798C44.657 51.422 44.6573 50.6801 44.1995 50.2224C43.7421 49.7649 42.9999 49.7649 42.5421 50.2224L41.7633 51.0015C40.5487 49.4838 39.7443 47.625 39.5187 45.5938H40.625C41.2723 45.5938 41.7969 45.0692 41.7969 44.4219C41.7969 43.7746 41.2723 43.25 40.625 43.25H39.5187C39.7443 41.2188 40.5487 39.3599 41.7633 37.8426L42.5421 38.6214C42.9999 39.0792 43.7418 39.0789 44.1995 38.6214C44.6573 38.1636 44.657 37.4218 44.1995 36.964L43.4207 36.1852C44.938 34.9706 46.7969 34.1661 48.8281 33.9406V35.0469C48.8281 35.6942 49.3527 36.2188 50 36.2188C50.6473 36.2188 51.1719 35.6942 51.1719 35.0469V33.9406C53.2031 34.1661 55.062 34.9706 56.5793 36.1852L55.8005 36.964C55.343 37.4218 55.3427 38.1636 55.8005 38.6214C56.2579 39.0789 57.0001 39.0789 57.4579 38.6214L58.2367 37.8423C59.4513 39.3599 60.2557 41.2188 60.4813 43.25H59.375C58.7277 43.25 58.2031 43.7746 58.2031 44.4219C58.2031 45.0692 58.7277 45.5928 59.375 45.5928Z" fill="white"/>
<path d="M51.1719 43.9363V39.7344C51.1719 39.0871 50.6473 38.5625 50 38.5625C49.3527 38.5625 48.8281 39.0871 48.8281 39.7344V44.4219C48.8281 44.7325 48.9514 45.0307 49.1714 45.2504L51.5152 47.5942C51.9727 48.0519 52.7148 48.0519 53.1723 47.5942C53.6301 47.1364 53.6301 46.3945 53.1723 45.9371L51.1719 43.9363Z" fill="white"/>
<path d="M64.8911 31.1879C65.3488 30.7302 65.3488 29.9883 64.8911 29.5308C64.4336 29.0731 63.6914 29.0731 63.2339 29.5308L61.5732 31.1913C59.2581 29.1606 56.4938 27.7953 53.5156 27.1938V23.1719C53.5156 22.5246 52.991 22 52.3438 22H47.6562C47.009 22 46.4844 22.5246 46.4844 23.1719V27.1938C43.5446 27.7874 40.813 29.1246 38.5165 31.1122L36.7236 29.4902C36.2436 29.056 35.5026 29.0935 35.0684 29.5732C34.6341 30.0533 34.6713 30.7943 35.1514 31.2285L36.8466 32.762C33.9862 35.9798 32.4219 40.0804 32.4219 44.4219C32.4219 54.1368 40.2838 62 50 62C59.715 62 67.5781 54.1381 67.5781 44.4219C67.5781 40.1195 66.0419 36.0536 63.2303 32.8487L64.8911 31.1879ZM48.8281 24.3438H51.1719V26.8831C50.7834 26.8578 50.3928 26.8438 50 26.8438C49.6072 26.8438 49.2166 26.8578 48.8281 26.8831V24.3438ZM65.2344 44.4219C65.2344 52.8221 58.4003 59.6562 50 59.6562C41.5997 59.6562 34.7656 52.8221 34.7656 44.4219C34.7656 36.0216 41.5997 29.1875 50 29.1875C58.4003 29.1875 65.2344 36.0216 65.2344 44.4219Z" fill="white"/>
<defs>
<filter id="filter0_d_20009845_32338" x="0" y="0" width="100" height="100" filterUnits="userSpaceOnUse" color-interpolation-filters="sRGB">
<feFlood flood-opacity="0" result="BackgroundImageFix"/>
<feColorMatrix in="SourceAlpha" type="matrix" values="0 0 0 0 0 0 0 0 0 0 0 0 0 0 0 0 0 0 127 0" result="hardAlpha"/>
<feMorphology radius="8" operator="erode" in="SourceAlpha" result="effect1_dropShadow_20009845_32338"/>
<feOffset dy="8"/>
<feGaussianBlur stdDeviation="9"/>
<feColorMatrix type="matrix" values="0 0 0 0 0.388235 0 0 0 0 0.4 0 0 0 0 0.945098 0 0 0 0.9 0"/>
<feBlend mode="normal" in2="BackgroundImageFix" result="effect1_dropShadow_20009845_32338"/>
<feBlend mode="normal" in="SourceGraphic" in2="effect1_dropShadow_20009845_32338" result="shape"/>
</filter>
</defs>
</svg>
