<svg width="87" height="87" viewBox="0 0 87 87" fill="none" xmlns="http://www.w3.org/2000/svg">
<g filter="url(#filter0_dd_20009845_32433)">
<rect x="11.5" y="7" width="64" height="64" rx="32" fill="white"/>
<g clip-path="url(#clip0_20009845_32433)">
<path d="M36.7858 41.4486C36.4028 41.7956 36.2728 42.3426 36.4588 42.8248C36.6447 43.3069 37.1082 43.625 37.6251 43.625H41.5001C42.1904 43.625 42.7501 43.0654 42.7501 42.375C42.7501 41.6846 42.1904 41.125 41.5001 41.125H40.6047C42.4307 39.0553 42.6695 38.0349 42.6695 37.375C42.6695 35.6519 41.2676 34.25 39.5445 34.25C39.537 34.25 39.5297 34.251 39.5223 34.2511C39.5148 34.251 39.5076 34.25 39.5001 34.25C37.7769 34.25 36.3751 35.6519 36.3751 37.375C36.3751 38.0654 36.9347 38.625 37.6251 38.625C38.3154 38.625 38.8751 38.0654 38.8751 37.375C38.8751 37.0362 39.1612 36.75 39.5001 36.75C39.5076 36.75 39.5148 36.749 39.5222 36.7489C39.5297 36.749 39.5369 36.75 39.5444 36.75C39.8789 36.75 40.162 37.0289 40.1693 37.3619C40.1571 37.4262 40.0031 38.0701 38.5324 39.6919C37.6611 40.6528 36.7943 41.441 36.7858 41.4486Z" fill="#107BEF"/>
<path d="M50.4836 50.5561C48.384 51.828 45.9691 52.5002 43.5 52.5002C42.8096 52.5002 42.25 53.0598 42.25 53.7502C42.25 54.4406 42.8096 55.0002 43.5 55.0002C46.4258 55.0002 49.2886 54.2028 51.7789 52.6943C52.3693 52.3366 52.5581 51.568 52.2004 50.9775C51.8426 50.387 51.074 50.1984 50.4836 50.5561Z" fill="#107BEF"/>
<path d="M54.8137 27.6863C51.7917 24.6643 47.7738 23 43.5 23C39.2262 23 35.2083 24.6643 32.1863 27.6863C29.1643 30.7083 27.5 34.7262 27.5 39C27.5 42.0206 28.3462 44.9625 29.9472 47.5079C31.2159 49.525 32.9127 51.228 34.9086 52.5H31.4375C30.7471 52.5 30.1875 53.0596 30.1875 53.75C30.1875 54.4404 30.7471 55 31.4375 55H35.2536C37.4592 55 39.2536 53.2056 39.2536 51V47.3125C39.2536 46.6221 38.694 46.0625 38.0036 46.0625C37.3132 46.0625 36.7536 46.6221 36.7536 47.3125V50.6966C32.5686 48.2854 30 43.8722 30 39C30 31.5561 36.0561 25.5 43.5 25.5C50.9439 25.5 57 31.5561 57 39C57 41.6618 56.2084 44.2528 54.7109 46.4928C54.3272 47.0666 54.4814 47.8429 55.0553 48.2267C55.6292 48.6103 56.4055 48.4561 56.7891 47.8822C58.5626 45.2296 59.5 42.1581 59.5 39C59.5 34.7262 57.8357 30.7083 54.8137 27.6863Z" fill="#107BEF"/>
<path d="M45.8125 34.25C45.1221 34.25 44.5625 34.8096 44.5625 35.5V37.0312C44.5625 38.9095 46.0905 40.4375 47.9688 40.4375C48.2826 40.4375 48.5862 40.3939 48.875 40.3141V42.375C48.875 43.0654 49.4346 43.625 50.125 43.625C50.8154 43.625 51.375 43.0654 51.375 42.375V35.5C51.375 34.8096 50.8154 34.25 50.125 34.25C49.4346 34.25 48.875 34.8096 48.875 35.5V37.0312C48.875 37.5309 48.4684 37.9375 47.9688 37.9375C47.4691 37.9375 47.0625 37.5309 47.0625 37.0312V35.5C47.0625 34.8096 46.5029 34.25 45.8125 34.25Z" fill="#107BEF"/>
</g>
</g>
<defs>
<filter id="filter0_dd_20009845_32433" x="0.5" y="0.4" width="86" height="86" filterUnits="userSpaceOnUse" color-interpolation-filters="sRGB">
<feFlood flood-opacity="0" result="BackgroundImageFix"/>
<feColorMatrix in="SourceAlpha" type="matrix" values="0 0 0 0 0 0 0 0 0 0 0 0 0 0 0 0 0 0 127 0" result="hardAlpha"/>
<feMorphology radius="1" operator="erode" in="SourceAlpha" result="effect1_dropShadow_20009845_32433"/>
<feOffset dy="2"/>
<feGaussianBlur stdDeviation="3.2"/>
<feColorMatrix type="matrix" values="0 0 0 0 0.0745098 0 0 0 0 0.0627451 0 0 0 0 0.133333 0 0 0 0.03 0"/>
<feBlend mode="normal" in2="BackgroundImageFix" result="effect1_dropShadow_20009845_32433"/>
<feColorMatrix in="SourceAlpha" type="matrix" values="0 0 0 0 0 0 0 0 0 0 0 0 0 0 0 0 0 0 127 0" result="hardAlpha"/>
<feMorphology radius="1" operator="erode" in="SourceAlpha" result="effect2_dropShadow_20009845_32433"/>
<feOffset dy="4.4"/>
<feGaussianBlur stdDeviation="6"/>
<feColorMatrix type="matrix" values="0 0 0 0 0.0745098 0 0 0 0 0.0627451 0 0 0 0 0.133333 0 0 0 0.06 0"/>
<feBlend mode="normal" in2="effect1_dropShadow_20009845_32433" result="effect2_dropShadow_20009845_32433"/>
<feBlend mode="normal" in="SourceGraphic" in2="effect2_dropShadow_20009845_32433" result="shape"/>
</filter>
<clipPath id="clip0_20009845_32433">
<rect width="32" height="32" fill="white" transform="translate(27.5 23)"/>
</clipPath>
</defs>
</svg>
