<svg width="100" height="100" viewBox="0 0 100 100" fill="none" xmlns="http://www.w3.org/2000/svg">
<g filter="url(#filter0_d_20009845_32315)">
<rect x="10" y="2" width="80" height="80" rx="8" fill="#107BEF"/>
</g>
<g clip-path="url(#clip0_20009845_32315)">
<path d="M59.6987 40.6091C61.9833 38.3246 61.9833 34.6075 59.6987 32.323C57.409 30.0333 53.7027 30.0327 51.4126 32.323C49.1281 34.6072 49.1281 38.3246 51.4126 40.6091C53.7023 42.8989 57.4087 42.8992 59.6987 40.6091ZM53.0697 33.9801C54.4436 32.6065 56.6674 32.6062 58.0416 33.9801C59.4122 35.351 59.4122 37.5812 58.0416 38.952C56.6677 40.3259 54.4439 40.3262 53.0697 38.952C51.6992 37.5812 51.6992 35.351 53.0697 33.9801Z" fill="white"/>
<path d="M30.054 60.4762C29.9231 60.8925 30.0342 61.3469 30.3421 61.6557C30.6504 61.9646 31.1048 62.0769 31.521 61.9469C32.5385 61.6292 41.5326 58.7746 43.9551 56.3524C44.6039 55.7033 45.1321 54.9702 45.5218 54.1853C45.7449 54.1985 45.9448 54.1521 46.1236 54.0608C47.0135 53.6067 47.9611 53.1352 48.9624 52.6341C49.4278 58.6995 49.3908 57.7141 49.3924 58.3879C49.3945 59.2625 50.3176 59.8213 51.091 59.4319C51.383 59.2378 54.4146 58.13 56.5514 54.6657C57.7377 52.7428 58.3569 50.5315 58.3569 48.2713V47.466C60.1211 46.3246 61.7629 45.1057 63.1087 43.8063C68.9312 38.1853 70.2458 31.266 69.9648 23.166C69.9434 22.5508 69.4493 22.0567 68.8341 22.0354C60.7363 21.7543 53.8156 23.0681 48.1936 28.8914C46.9198 30.211 45.7226 31.7598 44.6005 33.4849H43.6258C39.0652 33.4849 34.823 36.0915 32.7466 40.2464L32.4652 40.8061C32.2824 41.169 32.3007 41.6002 32.5135 41.9463C32.7262 42.2923 33.1027 42.5038 33.5089 42.5047C34.1739 42.5066 33.1482 42.4596 39.3765 43.0165C38.8852 43.9986 38.3963 44.9803 37.9395 45.8763C37.8372 46.0765 37.7975 46.2959 37.8159 46.5092C37.0386 46.898 36.3123 47.4226 35.669 48.0659C33.2474 50.4872 30.3739 59.4609 30.054 60.4762ZM45.8191 51.5874L40.4126 46.1809C40.7562 45.4997 41.1038 44.8018 41.5188 43.9726L48.0273 50.4814C47.174 50.9083 46.5088 51.2398 45.8191 51.5874ZM51.6174 56.4702L51.2228 51.4934C52.7966 50.6886 54.4213 49.8283 56.0003 48.9113C55.8035 52.0076 54.1839 54.7841 51.6174 56.4702ZM67.65 24.3498C67.6894 26.9096 67.5411 29.1753 67.1843 31.2126C63.8585 30.7426 61.2575 28.1413 60.7876 24.8158C62.8246 24.4591 65.0902 24.3108 67.65 24.3498ZM49.8797 30.5193C52.3348 27.9762 55.0741 26.2907 58.4957 25.3322C58.8256 27.3698 59.7829 29.2503 61.2664 30.7335C62.7498 32.2169 64.63 33.1746 66.6677 33.5042C65.7091 36.9258 64.0236 39.6654 61.4806 42.1202C58.6431 44.8598 54.2806 47.2948 50.2294 49.369L42.6312 41.7705C44.7052 37.7193 47.1402 33.3571 49.8797 30.5193ZM35.4154 40.2974C37.1304 37.6741 39.9826 36.0371 43.1531 35.8885C42.214 37.4989 41.3339 39.1597 40.5118 40.7674L35.4154 40.2974ZM39.3204 48.4032L40.6406 49.7234L38.1546 52.2093C37.6968 52.6668 37.6968 53.409 38.1546 53.8664C38.6121 54.3242 39.3542 54.3242 39.8117 53.8664L42.2977 51.3805L43.6178 52.7006C43.3371 53.4236 42.8885 54.1042 42.2977 54.695C40.9546 56.0384 36.2457 57.8648 33.024 58.9806C34.1464 55.7655 35.9815 51.0677 37.3261 49.7234C37.9169 49.1325 38.5974 48.6839 39.3204 48.4032Z" fill="white"/>
<path d="M49.7348 42.265C49.2773 41.8075 48.5352 41.8075 48.0777 42.265C47.6199 42.7227 47.6199 43.4646 48.0777 43.9224C48.5352 44.3798 49.2773 44.3798 49.7348 43.9224C50.1926 43.4646 50.1926 42.7227 49.7348 42.265Z" fill="white"/>
</g>
<defs>
<filter id="filter0_d_20009845_32315" x="0" y="0" width="100" height="100" filterUnits="userSpaceOnUse" color-interpolation-filters="sRGB">
<feFlood flood-opacity="0" result="BackgroundImageFix"/>
<feColorMatrix in="SourceAlpha" type="matrix" values="0 0 0 0 0 0 0 0 0 0 0 0 0 0 0 0 0 0 127 0" result="hardAlpha"/>
<feMorphology radius="8" operator="erode" in="SourceAlpha" result="effect1_dropShadow_20009845_32315"/>
<feOffset dy="8"/>
<feGaussianBlur stdDeviation="9"/>
<feColorMatrix type="matrix" values="0 0 0 0 0.388235 0 0 0 0 0.4 0 0 0 0 0.945098 0 0 0 0.9 0"/>
<feBlend mode="normal" in2="BackgroundImageFix" result="effect1_dropShadow_20009845_32315"/>
<feBlend mode="normal" in="SourceGraphic" in2="effect1_dropShadow_20009845_32315" result="shape"/>
</filter>
<clipPath id="clip0_20009845_32315">
<rect width="40" height="40" fill="white" transform="translate(30 22)"/>
</clipPath>
</defs>
</svg>
