<svg width="121" height="120" viewBox="0 0 121 120" fill="none" xmlns="http://www.w3.org/2000/svg">
<g id="icons / bx-check-circle">
<path id="Vector" d="M60.5 10C32.93 10 10.5 32.43 10.5 60C10.5 87.57 32.93 110 60.5 110C88.07 110 110.5 87.57 110.5 60C110.5 32.43 88.07 10 60.5 10ZM60.5 100C38.445 100 20.5 82.055 20.5 60C20.5 37.945 38.445 20 60.5 20C82.555 20 100.5 37.945 100.5 60C100.5 82.055 82.555 100 60.5 100Z" fill="#22C55E"/>
<path id="Vector_2" d="M50.4964 67.9351L39.0014 56.4601L31.9414 63.5401L50.5064 82.0651L84.0364 48.5351L76.9664 41.4651L50.4964 67.9351Z" fill="#22C55E"/>
</g>
</svg>
