<svg width="1243" height="940" viewBox="0 0 1243 940" fill="none" xmlns="http://www.w3.org/2000/svg">
<g clip-path="url(#clip0_1_22)">
<rect width="1243" height="939.923" rx="7.67284" fill="#107BEF"/>
<g opacity="0.15">
<path d="M1197.17 911.448C1200.29 908.903 1203.55 906.231 1206.57 903.76C1208.34 902.294 1209.94 900.95 1211.19 899.882C1211.92 899.442 1212.84 898.676 1213.56 898.148C1213.14 898.427 1213.21 898.239 1213.51 898.009C1215.64 896.311 1213.59 897.821 1215.69 896.053C1216.81 895.054 1219.57 892.844 1222.37 890.626C1226.33 887.503 1230.34 884.333 1232.24 882.823C1231.84 882.559 1231.58 882.423 1231.39 882.284C1230.07 881.612 1228.78 880.843 1227.51 880.099C1226.86 879.724 1226.24 879.336 1225.61 878.966C1225.35 878.83 1225.1 878.675 1224.87 878.544C1224.69 878.45 1224.52 878.361 1224.36 878.272L1224.51 878.317C1223.12 877.559 1215.5 872.792 1213.89 871.909L1214.1 872.053C1212.65 871.323 1212.96 871.265 1211.91 870.563C1211.94 870.823 1210.7 870.237 1210.23 869.976L1210.28 869.949C1209.58 869.582 1207.94 868.815 1206.8 868.174L1206.9 868.099C1205.9 867.644 1204.16 866.555 1203.5 866.156C1201.99 865.198 1199.72 863.602 1197.58 862.505L1196.42 861.418L1196.21 861.337L1191.39 859.198C1190.29 858.734 1191.58 864.265 1191.42 864.284C1191.39 863.896 1191.33 863.503 1191.36 863.406C1191.31 863.517 1191.36 864.268 1191.46 864.672L1191.63 864.722C1191.81 865.653 1191.57 864.955 1191.69 865.85C1191.56 865.919 1191.42 865.082 1191.32 864.359C1191.38 865.027 1191.35 865.692 1191.54 865.933C1191.56 866.57 1191.36 865.883 1191.4 866.628C1191.5 867.16 1191.73 867.834 1191.71 868.46L1191.69 868.454C1191.73 869.953 1192.18 870.713 1192.21 872.084L1192.14 871.94C1192.13 872.419 1192.34 873.362 1192.36 874.248C1192.35 873.993 1192.44 873.766 1192.52 874.293C1192.54 875.287 1192.73 875.969 1192.7 876.717L1192.92 877.41C1193.31 880.879 1195.16 894.545 1195.61 898.031L1195.56 897.892C1195.89 901.262 1196.5 906.158 1197.17 911.448Z" fill="white"/>
<path d="M1155.65 909.58C1154.31 905.774 1152.91 901.805 1151.62 898.119C1150.85 895.968 1150.12 893.994 1149.53 892.462C1149.37 891.619 1148.95 890.513 1148.69 889.662C1148.81 890.156 1148.66 890.009 1148.53 889.657C1147.65 887.076 1148.38 889.51 1147.44 886.932C1146.9 885.538 1145.74 882.203 1144.61 878.816C1143.02 874.038 1141.4 869.185 1140.63 866.887C1140.25 867.178 1140.03 867.366 1139.84 867.521C1138.75 868.531 1137.62 869.485 1136.44 870.428C1135.87 870.893 1135.29 871.377 1134.74 871.828C1134.52 872.016 1134.3 872.204 1134.08 872.373C1133.94 872.5 1133.8 872.627 1133.66 872.755L1133.73 872.63C1132.55 873.695 1125.48 879.241 1124.08 880.456L1124.28 880.326C1123.11 881.435 1123.15 881.133 1122.14 881.891C1122.39 881.944 1121.4 882.918 1121.01 883.267L1121 883.222C1120.41 883.745 1119.13 885.037 1118.14 885.884L1118.09 885.765C1117.31 886.55 1115.7 887.806 1115.1 888.329C1113.68 889.43 1111.41 891.026 1109.64 892.658L1108.22 893.382L1108.07 893.548L1104.41 897.367C1103.59 898.244 1109.23 898.919 1109.21 899.06C1108.84 898.974 1108.46 898.887 1108.35 898.835C1108.43 898.921 1109.17 899.132 1109.58 899.185L1109.68 899.047C1110.6 899.206 1109.87 899.186 1110.76 899.378C1110.78 899.53 1109.95 899.355 1109.23 899.212C1109.88 899.377 1110.5 899.619 1110.8 899.536C1111.39 899.728 1110.69 899.674 1111.41 899.899C1111.93 899.986 1112.65 900.006 1113.24 900.237L1113.21 900.251C1114.65 900.726 1115.49 900.57 1116.8 901.006L1116.64 901.025C1117.09 901.217 1118.05 901.324 1118.89 901.607C1118.66 901.521 1118.47 901.382 1118.97 901.483C1119.93 901.8 1120.62 901.873 1121.3 902.131L1122 902.165C1125.4 902.973 1138.89 905.902 1142.31 906.651L1142.17 906.632C1145.62 907.309 1150.45 908.401 1155.65 909.58Z" fill="white"/>
<path d="M1048.33 937.732C1050.23 936.956 1052.25 936.149 1054.1 935.401C1055.17 934.953 1056.17 934.547 1056.94 934.202C1057.37 934.094 1057.92 933.854 1058.36 933.708C1058.11 933.782 1058.17 933.696 1058.36 933.625C1059.66 933.116 1058.43 933.539 1059.72 933.006C1060.41 932.702 1062.09 932.031 1063.8 931.365C1066.2 930.44 1068.63 929.501 1069.79 929.057C1069.63 928.865 1069.54 928.754 1069.46 928.668C1068.92 928.136 1068.41 927.57 1067.9 927.004C1067.65 926.721 1067.39 926.438 1067.14 926.155C1067.04 926.044 1066.95 925.933 1066.83 925.836C1066.76 925.775 1066.68 925.689 1066.62 925.628L1066.69 925.67C1066.12 925.087 1063.14 921.607 1062.47 920.933L1062.54 921.038C1061.95 920.469 1062.1 920.47 1061.69 919.976C1061.67 920.117 1061.14 919.629 1060.97 919.432L1060.99 919.418C1060.7 919.124 1060.02 918.508 1059.57 918.023L1059.64 918.001C1059.22 917.629 1058.55 916.827 1058.25 916.533C1057.66 915.837 1056.81 914.711 1055.92 913.849L1055.51 913.145L1055.43 913.078L1053.4 911.299C1052.93 910.892 1052.73 913.792 1052.64 913.789C1052.68 913.59 1052.71 913.39 1052.75 913.338C1052.7 913.385 1052.61 913.759 1052.61 913.969L1052.68 914.011C1052.63 914.479 1052.61 914.116 1052.54 914.579C1052.47 914.601 1052.54 914.158 1052.6 913.797C1052.52 914.133 1052.41 914.457 1052.47 914.601C1052.38 914.911 1052.4 914.559 1052.29 914.927C1052.26 915.191 1052.26 915.567 1052.17 915.878L1052.15 915.872C1051.94 916.609 1052.05 917.038 1051.85 917.717L1051.83 917.628C1051.75 917.855 1051.71 918.348 1051.59 918.775C1051.62 918.658 1051.69 918.553 1051.66 918.816C1051.52 919.32 1051.5 919.672 1051.38 920.016L1051.38 920.373C1051.05 922.124 1049.87 929.068 1049.57 930.849L1049.57 930.785C1049.27 932.566 1048.83 935.042 1048.33 937.732Z" fill="white"/>
<path d="M1216.21 751.157C1215.48 749.227 1214.72 747.204 1214.02 745.344C1213.59 744.258 1213.21 743.246 1212.89 742.481C1212.8 742.057 1212.58 741.491 1212.44 741.051C1212.49 741.297 1212.43 741.236 1212.36 741.048C1211.89 739.74 1212.27 740.981 1211.77 739.662C1211.47 738.947 1210.84 737.256 1210.22 735.546C1209.35 733.112 1208.48 730.659 1208.06 729.49C1207.86 729.645 1207.75 729.739 1207.65 729.813C1207.1 730.347 1206.54 730.837 1205.95 731.34C1205.67 731.595 1205.37 731.844 1205.09 732.079C1204.98 732.173 1204.87 732.267 1204.76 732.361C1204.69 732.428 1204.61 732.489 1204.55 732.574L1204.59 732.502C1203.99 733.064 1200.45 735.971 1199.76 736.613L1199.86 736.539C1199.28 737.125 1199.3 736.964 1198.79 737.363C1198.93 737.382 1198.43 737.889 1198.22 738.082L1198.21 738.057C1197.92 738.331 1197.29 739.009 1196.78 739.452L1196.76 739.383C1196.37 739.795 1195.57 740.448 1195.26 740.716C1194.55 741.289 1193.41 742.135 1192.53 742.996L1191.81 743.377L1191.75 743.463L1189.92 745.455C1189.51 745.926 1192.39 746.187 1192.39 746.27C1192.19 746.234 1192 746.178 1191.94 746.162C1191.99 746.217 1192.36 746.303 1192.56 746.32L1192.61 746.248C1193.07 746.318 1192.71 746.32 1193.17 746.41C1193.17 746.473 1192.75 746.415 1192.39 746.334C1192.73 746.409 1193.05 746.523 1193.19 746.479C1193.5 746.568 1193.15 746.551 1193.52 746.657C1193.78 746.69 1194.16 746.693 1194.46 746.802L1194.46 746.821C1195.19 747.052 1195.62 746.945 1196.29 747.159L1196.21 747.156C1196.43 747.242 1196.92 747.298 1197.35 747.421C1197.23 747.387 1197.13 747.315 1197.39 747.349C1197.89 747.493 1198.24 747.53 1198.58 747.649L1198.94 747.647C1200.68 748.02 1207.6 749.356 1209.36 749.716L1209.3 749.718C1211.08 750.103 1213.56 750.605 1216.21 751.157Z" fill="white"/>
<path d="M1226.96 841.852C1230.58 840.078 1234.38 838.232 1237.89 836.533C1239.95 835.508 1241.81 834.574 1243.26 833.816C1244.1 833.551 1245.15 833.035 1245.96 832.681C1245.5 832.841 1245.6 832.683 1245.96 832.534C1248.41 831.371 1246.09 832.382 1248.55 831.136C1249.88 830.428 1253.05 828.903 1256.28 827.375C1260.85 825.247 1265.49 823.073 1267.67 822.042C1267.33 821.692 1267.13 821.509 1266.95 821.332C1265.82 820.377 1264.75 819.337 1263.67 818.291C1263.12 817.778 1262.6 817.251 1262.07 816.763C1261.86 816.555 1261.66 816.372 1261.44 816.183C1261.29 816.055 1261.16 815.933 1261 815.806L1261.15 815.869C1259.97 814.815 1253.64 808.424 1252.27 807.192L1252.43 807.384C1251.19 806.357 1251.48 806.357 1250.64 805.423C1250.61 805.686 1249.53 804.831 1249.15 804.471L1249.2 804.443C1248.62 803.919 1247.2 802.797 1246.23 801.912L1246.35 801.863C1245.47 801.191 1244.05 799.732 1243.47 799.188C1242.22 797.907 1240.38 795.827 1238.54 794.27L1237.66 792.948L1237.47 792.809L1233.27 789.609C1232.3 788.89 1232.28 794.592 1232.14 794.572C1232.19 794.187 1232.24 793.802 1232.27 793.686C1232.18 793.766 1232.07 794.531 1232.06 794.927L1232.22 795.016C1232.19 795.949 1232.1 795.212 1232.01 796.129C1231.87 796.173 1231.92 795.329 1232.01 794.597C1231.93 795.245 1231.74 795.905 1231.86 796.193C1231.73 796.805 1231.7 796.104 1231.57 796.844C1231.54 797.381 1231.61 798.093 1231.46 798.7L1231.44 798.694C1231.14 800.162 1231.39 800.988 1231.11 802.334L1231.09 802.182C1230.96 802.647 1230.95 803.611 1230.77 804.461C1230.82 804.223 1230.94 804.007 1230.89 804.539C1230.69 805.531 1230.71 806.207 1230.52 806.929L1230.57 807.636C1230.16 811.107 1228.8 824.838 1228.43 828.32L1228.43 828.193C1228.07 831.636 1227.54 836.542 1226.96 841.852Z" fill="white"/>
<path d="M1170.54 845.869C1172.46 842.328 1174.47 838.624 1176.34 835.194C1177.42 833.175 1178.39 831.315 1179.13 829.847C1179.66 829.161 1180.19 828.117 1180.67 827.35C1180.38 827.752 1180.37 827.561 1180.58 827.22C1181.89 824.847 1180.59 827.015 1181.86 824.587C1182.54 823.25 1184.22 820.146 1185.98 817.04C1188.45 812.652 1190.95 808.186 1192.15 806.074C1191.66 805.998 1191.39 805.94 1191.14 805.912C1189.67 805.783 1188.2 805.57 1186.71 805.352C1185.96 805.243 1185.24 805.14 1184.52 805.017C1184.23 804.978 1183.95 804.939 1183.67 804.9C1183.46 804.883 1183.28 804.871 1183.1 804.841L1183.25 804.821C1181.66 804.659 1172.81 803.124 1170.98 802.914L1171.21 802.981C1169.61 802.857 1169.85 802.674 1168.6 802.42C1168.74 802.67 1167.36 802.588 1166.83 802.521L1166.87 802.468C1166.07 802.387 1164.27 802.31 1162.98 802.128L1163.05 802.023C1161.95 801.98 1159.93 801.631 1159.15 801.511C1157.39 801.196 1154.67 800.583 1152.27 800.378L1150.8 799.808L1150.57 799.805L1145.29 799.651C1144.07 799.639 1147.38 804.281 1147.25 804.35C1147.06 804 1146.88 803.657 1146.85 803.562C1146.83 803.684 1147.18 804.372 1147.4 804.707L1147.57 804.694C1148.08 805.489 1147.59 804.929 1148.06 805.714C1147.97 805.813 1147.52 805.098 1147.16 804.469C1147.47 805.062 1147.71 805.677 1147.95 805.852C1148.21 806.429 1147.78 805.866 1148.09 806.562C1148.38 807.002 1148.85 807.557 1149.06 808.142L1149.04 808.136C1149.65 809.508 1150.34 810.041 1150.88 811.308L1150.77 811.192C1150.93 811.657 1151.48 812.425 1151.83 813.24C1151.74 813.002 1151.72 812.766 1151.99 813.221C1152.4 814.136 1152.8 814.693 1153.09 815.383L1153.54 815.933C1155.22 818.996 1162.11 830.962 1163.84 833.998L1163.74 833.887C1165.49 836.928 1167.91 841.231 1170.54 845.869Z" fill="white"/>
<path d="M1230.17 980.57C1231.63 976.812 1233.17 972.891 1234.6 969.249C1235.42 967.114 1236.15 965.143 1236.7 963.6C1237.13 962.842 1237.55 961.745 1237.91 960.926C1237.68 961.363 1237.65 961.166 1237.8 960.809C1238.81 958.289 1237.77 960.593 1238.74 958.037C1239.23 956.625 1240.53 953.346 1241.87 950.04C1243.78 945.363 1245.71 940.628 1246.64 938.399C1246.16 938.387 1245.88 938.367 1245.63 938.359C1244.14 938.415 1242.66 938.388 1241.16 938.356C1240.4 938.349 1239.68 938.329 1238.95 938.309C1238.65 938.308 1238.38 938.314 1238.09 938.313C1237.89 938.321 1237.7 938.329 1237.51 938.337L1237.67 938.299C1236.09 938.327 1227.1 937.928 1225.26 937.948L1225.51 937.976C1223.89 938.057 1224.12 937.85 1222.86 937.762C1223.03 937.979 1221.64 938.063 1221.11 938.079L1221.13 938.02C1220.33 938.042 1218.55 938.181 1217.22 938.179L1217.28 938.068C1216.18 938.172 1214.13 938.067 1213.34 938.049C1211.54 937.953 1208.78 937.686 1206.39 937.775L1204.84 937.393L1204.6 937.41L1199.36 937.918C1198.16 938.058 1202.02 942.249 1201.89 942.318C1201.67 942.002 1201.44 941.686 1201.39 941.586C1201.39 941.714 1201.82 942.34 1202.09 942.648L1202.27 942.615C1202.88 943.336 1202.33 942.842 1202.87 943.586C1202.79 943.71 1202.27 943.056 1201.83 942.468C1202.22 943.02 1202.53 943.613 1202.81 943.735C1203.14 944.27 1202.63 943.768 1203.03 944.409C1203.38 944.822 1203.91 945.31 1204.21 945.859L1204.19 945.873C1204.95 947.162 1205.71 947.59 1206.42 948.779L1206.3 948.682C1206.53 949.126 1207.17 949.813 1207.62 950.573C1207.5 950.349 1207.46 950.127 1207.78 950.535C1208.31 951.4 1208.78 951.891 1209.14 952.539L1209.67 953.028C1211.71 955.859 1220.05 966.857 1222.14 969.68L1222.04 969.588C1224.04 972.325 1226.99 976.299 1230.17 980.57Z" fill="white"/>
</g>
<g opacity="0.2">
<path d="M39.7567 337.921C41.6512 336.377 43.6315 334.756 45.4621 333.258C46.5322 332.368 47.5047 331.552 48.2635 330.905C48.7093 330.638 49.2628 330.173 49.6986 329.853C49.4462 330.022 49.4918 329.908 49.6718 329.768C50.9606 328.738 49.7173 329.654 50.9927 328.582C51.6758 327.976 53.3465 326.635 55.0441 325.289C57.4467 323.395 59.8829 321.471 61.037 320.555C60.7901 320.395 60.6356 320.313 60.5198 320.228C59.7202 319.821 58.9375 319.354 58.1633 318.903C57.7703 318.675 57.3924 318.44 57.0111 318.216C56.8566 318.133 56.7055 318.039 56.5627 317.96C56.4518 317.902 56.3527 317.848 56.2536 317.794L56.3477 317.821C55.4995 317.362 50.881 314.47 49.9018 313.934L50.0294 314.022C49.1509 313.579 49.3392 313.543 48.6977 313.117C48.716 313.275 47.9651 312.92 47.6795 312.761L47.7098 312.745C47.2899 312.522 46.2904 312.057 45.6001 311.668L45.664 311.623C45.056 311.346 43.9979 310.686 43.5965 310.444C42.6812 309.863 41.3042 308.894 40.0058 308.229L39.304 307.569L39.178 307.52L36.2534 306.222C35.5831 305.941 36.3638 309.297 36.2714 309.308C36.2498 309.073 36.2165 308.834 36.2334 308.775C36.2014 308.843 36.2361 309.298 36.2929 309.544L36.3988 309.574C36.5039 310.139 36.3583 309.715 36.4316 310.258C36.3559 310.3 36.2725 309.792 36.2075 309.354C36.2439 309.759 36.23 310.162 36.3407 310.308C36.357 310.695 36.2349 310.278 36.2578 310.73C36.3179 311.053 36.4552 311.462 36.448 311.841L36.4363 311.838C36.4553 312.747 36.7304 313.208 36.7462 314.04L36.7076 313.953C36.7005 314.244 36.8292 314.815 36.8403 315.353C36.8338 315.198 36.886 315.061 36.9344 315.38C36.9521 315.984 37.0625 316.397 37.0468 316.851L37.1808 317.271C37.4168 319.376 38.5376 327.667 38.8089 329.782L38.7821 329.698C38.9846 331.742 39.354 334.712 39.7567 337.921Z" fill="white"/>
<path d="M14.5714 336.788C13.7575 334.479 12.9083 332.071 12.1245 329.835C11.6589 328.53 11.2133 327.332 10.8565 326.403C10.7613 325.891 10.5084 325.22 10.351 324.704C10.4179 325.004 10.3289 324.914 10.2502 324.701C9.71937 323.135 10.1612 324.612 9.59172 323.048C9.26167 322.202 8.5566 320.179 7.87343 318.124C6.91061 315.225 5.92265 312.281 5.45714 310.887C5.22834 311.063 5.09372 311.178 4.97763 311.271C4.31799 311.884 3.62983 312.463 2.91814 313.035C2.56986 313.317 2.21821 313.611 1.88508 313.885C1.75047 313.999 1.61588 314.113 1.48465 314.215C1.39883 314.292 1.31299 314.37 1.22717 314.447L1.27435 314.371C0.554166 315.017 -3.73437 318.382 -4.58241 319.119L-4.45795 319.04C-5.17312 319.713 -5.146 319.53 -5.76174 319.99C-5.60547 320.022 -6.20793 320.613 -6.44687 320.824L-6.45186 320.797C-6.81026 321.114 -7.58272 321.898 -8.18845 322.412L-8.21862 322.34C-8.68648 322.816 -9.66902 323.578 -10.0274 323.895C-10.8939 324.563 -12.2666 325.531 -13.3402 326.522L-14.2046 326.961L-14.2972 327.062L-16.5154 329.378C-17.0119 329.911 -13.5903 330.32 -13.6022 330.406C-13.829 330.353 -14.0559 330.301 -14.1231 330.269C-14.0744 330.321 -13.6275 330.449 -13.3821 330.482L-13.3198 330.398C-12.7619 330.494 -13.204 330.482 -12.6646 330.598C-12.6529 330.691 -13.157 330.584 -13.5906 330.498C-13.1991 330.598 -12.8211 330.745 -12.6412 330.694C-12.2799 330.811 -12.7035 330.778 -12.2717 330.915C-11.9557 330.967 -11.5137 330.98 -11.1593 331.12L-11.1744 331.128C-10.3024 331.417 -9.79134 331.321 -9.0017 331.586L-9.09417 331.598C-8.82203 331.714 -8.24225 331.779 -7.73151 331.951C-7.86926 331.899 -7.98511 331.815 -7.68433 331.875C-7.10302 332.068 -6.6829 332.112 -6.26963 332.269L-5.84274 332.29C-3.78104 332.78 4.40383 334.556 6.47566 335.011L6.38995 334.999C8.48705 335.41 11.4158 336.073 14.5714 336.788Z" fill="white"/>
<path d="M51.3094 240.678C50.8689 239.507 50.4065 238.28 49.9793 237.151C49.723 236.492 49.4918 235.878 49.294 235.414C49.2406 235.157 49.1099 234.814 49.0212 234.547C49.0546 234.696 49.0143 234.659 48.9708 234.545C48.6894 233.751 48.9187 234.504 48.6138 233.704C48.4328 233.27 48.0526 232.244 47.6757 231.207C47.1447 229.73 46.6172 228.242 46.3626 227.533C46.2465 227.627 46.1792 227.684 46.1153 227.729C45.7804 228.053 45.4405 228.35 45.0854 228.656C44.9138 228.81 44.7304 228.961 44.5622 229.104C44.4949 229.161 44.4276 229.218 44.3603 229.275C44.3232 229.315 44.2744 229.352 44.234 229.404L44.2593 229.36C43.8942 229.701 41.7456 231.465 41.3282 231.854L41.3922 231.809C41.0354 232.165 41.0507 232.068 40.7394 232.309C40.8251 232.321 40.5205 232.628 40.3977 232.746L40.3893 232.731C40.2143 232.897 39.8288 233.308 39.5226 233.577L39.5092 233.535C39.2719 233.785 38.789 234.181 38.6023 234.344C38.1715 234.691 37.4768 235.204 36.945 235.726L36.5093 235.958L36.4689 236.01L35.3581 237.219C35.1107 237.504 36.8601 237.663 36.8584 237.713C36.7374 237.691 36.6198 237.657 36.5845 237.647C36.6131 237.681 36.8399 237.733 36.9643 237.743L36.9895 237.7C37.2702 237.742 37.0534 237.744 37.3306 237.798C37.3323 237.836 37.0751 237.801 36.86 237.752C37.0634 237.797 37.2599 237.867 37.344 237.84C37.5322 237.894 37.3187 237.883 37.5422 237.948C37.7018 237.968 37.9304 237.97 38.1152 238.036L38.1118 238.047C38.5554 238.187 38.816 238.122 39.2243 238.252L39.1739 238.25C39.3116 238.303 39.6074 238.337 39.8662 238.411C39.7956 238.391 39.7317 238.347 39.8914 238.367C40.1972 238.455 40.4073 238.477 40.6156 238.55L40.8324 238.548C41.8877 238.775 46.0852 239.585 47.1556 239.803L47.117 239.805C48.1957 240.038 49.6997 240.343 51.3094 240.678Z" fill="white"/>
<path d="M95.1476 362.21C96.399 360.113 97.7043 357.916 98.9238 355.885C99.6245 354.686 100.271 353.586 100.75 352.717C101.081 352.316 101.438 351.693 101.733 351.243C101.55 351.483 101.557 351.371 101.68 351.164C102.542 349.757 101.69 351.04 102.524 349.598C102.97 348.797 104.066 346.973 105.208 345.124C106.822 342.519 108.445 339.879 109.222 338.638C108.933 338.581 108.765 338.545 108.62 338.516C107.724 338.399 106.842 338.235 105.948 338.068C105.503 337.978 105.054 337.9 104.633 337.817C104.465 337.782 104.293 337.758 104.125 337.722C104.016 337.704 103.891 337.694 103.782 337.675L103.875 337.663C102.92 337.529 97.5852 336.38 96.4895 336.205L96.6307 336.246C95.6576 336.132 95.8124 336.036 95.0647 335.847C95.1367 335.995 94.3083 335.91 93.9923 335.857L94.0108 335.837C93.5352 335.764 92.4429 335.667 91.6631 335.545L91.707 335.481C91.0465 335.432 89.8266 335.158 89.351 335.085C88.2874 334.844 86.6693 334.405 85.2173 334.23L84.3337 333.849L84.1942 333.847L81.001 333.618C80.275 333.575 82.1555 336.47 82.0798 336.511C81.9742 336.303 81.8686 336.094 81.8535 336.014C81.8451 336.088 82.0294 336.51 82.1619 336.713L82.2661 336.705C82.558 337.196 82.276 336.848 82.5292 337.341C82.4736 337.401 82.2188 336.959 82.0159 336.557C82.1902 336.925 82.3225 337.307 82.4703 337.413C82.6094 337.771 82.366 337.421 82.5386 337.84C82.7131 338.119 82.9715 338.461 83.0988 338.815L83.0871 338.812C83.4171 339.658 83.8302 339.993 84.1267 340.778L84.0579 340.708C84.1432 340.987 84.462 341.473 84.6614 341.976C84.6128 341.834 84.6029 341.691 84.7538 341.964C84.9867 342.527 85.2182 342.874 85.3605 343.309L85.6307 343.654C86.5746 345.555 90.4546 352.97 91.4254 354.866L91.3801 354.802C92.3106 356.66 93.6704 359.329 95.1476 362.21Z" fill="white"/>
<path d="M57.833 295.698C60.0261 294.622 62.3335 293.502 64.4627 292.471C65.7106 291.849 66.8408 291.282 67.7238 290.823C68.2282 290.662 68.8656 290.349 69.3601 290.134C69.0776 290.231 69.1432 290.136 69.3602 290.045C70.8485 289.339 69.4376 289.953 70.9278 289.197C71.7384 288.767 73.659 287.842 75.6183 286.915C78.3949 285.624 81.2051 284.305 82.5304 283.68C82.3239 283.468 82.203 283.357 82.0939 283.249C81.4072 282.67 80.7609 282.039 80.1028 281.404C79.7721 281.093 79.4565 280.773 79.1342 280.477C79.0049 280.351 78.884 280.24 78.7514 280.125C78.659 280.048 78.5784 279.974 78.4861 279.896L78.5768 279.935C77.8566 279.295 74.0175 275.418 73.1881 274.671L73.2821 274.787C72.5316 274.164 72.7097 274.164 72.1978 273.597C72.1774 273.757 71.5243 273.238 71.2943 273.02L71.3245 273.003C70.9703 272.685 70.1089 272.005 69.5247 271.468L69.597 271.437C69.0647 271.03 68.1985 270.145 67.8476 269.815C67.0906 269.038 65.9761 267.776 64.8596 266.831L64.3261 266.029L64.2103 265.945L61.6613 264.004C61.0735 263.567 61.0608 267.026 60.9751 267.015C61.004 266.781 61.0328 266.547 61.0531 266.477C61.0009 266.526 60.9314 266.989 60.9261 267.23L61.0252 267.284C61.0026 267.85 60.9528 267.403 60.8949 267.959C60.8108 267.986 60.8434 267.473 60.8944 267.03C60.8452 267.423 60.7304 267.823 60.8075 267.998C60.7263 268.369 60.7083 267.944 60.6305 268.392C60.6133 268.718 60.6547 269.15 60.5618 269.518L60.5501 269.515C60.3708 270.406 60.5198 270.907 60.349 271.723L60.3373 271.631C60.2563 271.913 60.2539 272.498 60.144 273.014C60.1727 272.869 60.2485 272.738 60.2195 273.061C60.0978 273.663 60.1073 274.073 59.9942 274.511L60.0239 274.94C59.7759 277.046 58.9503 285.376 58.7257 287.489L58.7224 287.411C58.5047 289.5 58.185 292.477 57.833 295.698Z" fill="white"/>
<path d="M23.6068 298.136C24.7709 295.988 25.989 293.741 27.121 291.659C27.7781 290.435 28.3695 289.306 28.816 288.416C29.1392 288 29.461 287.366 29.7473 286.901C29.5756 287.145 29.5707 287.029 29.6937 286.822C30.4888 285.383 29.7039 286.698 30.4705 285.225C30.8816 284.413 31.9059 282.53 32.9689 280.646C34.4715 277.984 35.9875 275.275 36.7119 273.993C36.4195 273.947 36.2515 273.912 36.1036 273.895C35.2095 273.816 34.3172 273.687 33.4131 273.555C32.9611 273.489 32.5207 273.426 32.0838 273.352C31.9124 273.328 31.741 273.304 31.5696 273.281C31.4453 273.27 31.3327 273.264 31.2234 273.245L31.3159 273.233C30.3512 273.135 24.9789 272.203 23.8698 272.076L24.0109 272.116C23.0395 272.041 23.1859 271.931 22.428 271.777C22.5119 271.928 21.6733 271.878 21.354 271.837L21.3759 271.806C20.8935 271.756 19.7994 271.709 19.0163 271.599L19.0601 271.535C18.3928 271.509 17.1678 271.298 16.6922 271.225C15.6269 271.034 13.9768 270.662 12.5231 270.537L11.6293 270.192L11.4898 270.19L8.28302 270.097C7.54685 270.089 9.55187 272.905 9.47618 272.947C9.35879 272.735 9.25314 272.527 9.23136 272.469C9.22286 272.543 9.43413 272.96 9.56666 273.164L9.67086 273.156C9.97784 273.638 9.68076 273.299 9.96422 273.775C9.90867 273.835 9.63864 273.401 9.41726 273.019C9.60674 273.379 9.75415 273.752 9.90192 273.859C10.0561 274.208 9.79771 273.867 9.98207 274.289C10.1599 274.556 10.4452 274.893 10.5725 275.248L10.5608 275.244C10.9328 276.077 11.3493 276.4 11.6761 277.169L11.6072 277.098C11.7044 277.38 12.0416 277.846 12.2561 278.341C12.1958 278.196 12.1859 278.053 12.3486 278.329C12.5967 278.884 12.8433 279.222 13.0159 279.641L13.2894 279.974C14.309 281.833 18.4884 289.092 19.5383 290.934L19.4812 290.867C20.5428 292.712 22.0086 295.322 23.6068 298.136Z" fill="white"/>
<path d="M59.7802 379.857C60.6638 377.577 61.6013 375.198 62.4646 372.989C62.9638 371.694 63.409 370.498 63.7413 369.562C64.0007 369.102 64.2554 368.436 64.4745 367.939C64.3346 368.204 64.318 368.085 64.4056 367.868C65.0227 366.34 64.3924 367.737 64.9776 366.187C65.2744 365.33 66.0618 363.341 66.8795 361.335C68.0378 358.497 69.2062 355.625 69.7726 354.273C69.4818 354.265 69.3071 354.253 69.1558 354.248C68.2548 354.282 67.3556 354.266 66.4447 354.246C65.9875 354.243 65.5455 354.23 65.1035 354.218C64.9253 354.218 64.7589 354.221 64.5808 354.221C64.4648 354.226 64.3488 354.23 64.2328 354.235L64.3286 354.212C63.3689 354.229 57.9134 353.987 56.8023 353.999L56.9503 354.016C55.9687 354.065 56.1066 353.939 55.3453 353.886C55.4476 354.018 54.6055 354.069 54.2845 354.078L54.2946 354.043C53.8072 354.056 52.7263 354.14 51.9246 354.139L51.9566 354.072C51.2892 354.135 50.0472 354.071 49.5665 354.061C48.4758 354.002 46.8036 353.84 45.3497 353.894L44.4104 353.662L44.2675 353.672L41.0854 353.981C40.3609 354.066 42.699 356.608 42.6233 356.65C42.4874 356.459 42.3516 356.267 42.318 356.206C42.3213 356.284 42.5813 356.664 42.7441 356.851L42.8517 356.831C43.2226 357.268 42.8885 356.968 43.2174 357.419C43.1702 357.495 42.8514 357.098 42.5846 356.741C42.8194 357.076 43.0089 357.436 43.1786 357.51C43.3782 357.835 43.071 357.53 43.3159 357.919C43.524 358.169 43.8464 358.465 44.0308 358.798L44.0157 358.807C44.4786 359.589 44.9388 359.848 45.3682 360.57L45.296 360.511C45.4352 360.78 45.8245 361.198 46.0996 361.658C46.0241 361.522 45.9991 361.388 46.1955 361.635C46.5158 362.16 46.7995 362.458 47.0175 362.851L47.3398 363.147C48.5781 364.865 53.639 371.537 54.9042 373.25L54.8437 373.194C56.0602 374.855 57.8506 377.266 59.7802 379.857Z" fill="white"/>
<path d="M31.2875 371.898C28.9504 372.59 26.4871 373.321 24.2189 373.994C22.8922 374.402 21.6648 374.776 20.7249 375.079C20.2088 375.147 19.5244 375.358 18.9998 375.5C19.2957 375.445 19.2183 375.537 18.9846 375.597C17.4041 376.048 18.8954 375.686 17.3014 376.184C16.4304 376.468 14.3875 377.066 12.2942 377.661C9.34674 378.483 6.35727 379.318 4.94491 379.715C5.11773 379.955 5.2167 380.098 5.29891 380.211C5.87792 380.899 6.41991 381.627 6.96189 382.356C7.22868 382.713 7.50386 383.084 7.7589 383.438C7.86964 383.584 7.972 383.715 8.07436 383.846C8.1482 383.944 8.22543 384.03 8.30264 384.116L8.23043 384.057C8.84297 384.805 11.9821 389.258 12.6735 390.132L12.598 389.995C13.2375 390.739 13.0543 390.712 13.4804 391.356C13.5243 391.203 14.0849 391.823 14.2779 392.082L14.251 392.087C14.5497 392.465 15.2849 393.275 15.7799 393.9L15.6992 393.916C16.1575 394.404 16.8705 395.423 17.1575 395.798C17.7799 396.69 18.6689 398.116 19.6071 399.238L20.0043 400.116L20.105 400.209L22.2989 402.545C22.8092 403.073 23.3933 399.663 23.4757 399.687C23.4115 399.91 23.3474 400.134 23.3036 400.198C23.3558 400.149 23.5076 399.709 23.5516 399.467L23.4676 399.405C23.5876 398.853 23.5636 399.292 23.7037 398.759C23.7928 398.76 23.6661 399.245 23.553 399.684C23.6762 399.299 23.8464 398.928 23.7962 398.748C23.9362 398.393 23.8768 398.822 24.0404 398.385C24.1046 398.073 24.1405 397.637 24.2922 397.286L24.3006 397.301C24.6328 396.455 24.5561 395.923 24.8646 395.159L24.8645 395.248C24.9926 394.979 25.0807 394.406 25.2847 393.917C25.2324 394.055 25.1365 394.168 25.2125 393.859C25.4284 393.284 25.4961 392.871 25.6765 392.464L25.7123 392.029C26.3082 389.997 28.4882 381.916 29.0522 379.862L29.0403 379.948C29.6127 377.91 30.4197 375.01 31.2875 371.898Z" fill="white"/>
</g>
<g opacity="0.1">
<path d="M1232.93 172.639C1154.92 172.639 1091.46 109.178 1091.46 31.171C1091.46 -46.8362 1154.92 -110.297 1232.93 -110.297C1310.94 -110.297 1374.4 -46.8362 1374.4 31.171C1374.38 109.178 1310.92 172.639 1232.93 172.639ZM1232.93 -105.543C1157.55 -105.543 1096.22 -44.2131 1096.22 31.171C1096.22 106.555 1157.55 167.885 1232.93 167.885C1308.32 167.885 1369.64 106.555 1369.64 31.171C1369.64 -44.2131 1308.32 -105.543 1232.93 -105.543Z" fill="white"/>
<path d="M1232.93 157.201C1163.45 157.201 1106.92 100.671 1106.92 31.1887C1106.92 -38.2934 1163.45 -94.824 1232.93 -94.824C1302.41 -94.824 1358.94 -38.2934 1358.94 31.1887C1358.93 100.671 1302.4 157.201 1232.93 157.201ZM1232.93 -90.0696C1166.07 -90.0696 1111.67 -35.6703 1111.67 31.1887C1111.67 98.0477 1166.07 152.447 1232.93 152.447C1299.79 152.447 1354.19 98.0477 1354.19 31.1887C1354.19 -35.6703 1299.79 -90.0696 1232.93 -90.0696Z" fill="white"/>
<path d="M1232.93 141.735C1171.97 141.735 1122.37 92.1343 1122.37 31.1773C1122.37 -29.7798 1171.97 -79.3801 1232.93 -79.3801C1293.89 -79.3801 1343.49 -29.7798 1343.49 31.1773C1343.47 92.1343 1293.89 141.735 1232.93 141.735ZM1232.93 -74.6257C1174.58 -74.6257 1127.13 -27.1567 1127.13 31.1773C1127.13 89.5261 1174.6 136.98 1232.93 136.98C1291.26 136.98 1338.73 89.5112 1338.73 31.1773C1338.73 -27.1567 1291.26 -74.6257 1232.93 -74.6257Z" fill="white"/>
</g>
</g>
<defs>
<clipPath id="clip0_1_22">
<rect width="1243" height="939.923" rx="7.67284" fill="white"/>
</clipPath>
</defs>
</svg>
