<svg width="97" height="28" viewBox="0 0 97 28" fill="none" xmlns="http://www.w3.org/2000/svg">
<g clip-path="url(#clip0_20006880_8767)">
<path d="M25.2207 0H29.6827V28H25.2207V0Z" fill="white"/>
<path d="M45.2025 19.1271C45.2025 23.4652 41.7105 23.8595 40.5465 23.8595C37.8305 23.8595 37.4425 21.2962 37.4425 19.9159V9.0708H32.9805V19.7187C32.9805 22.2821 33.7565 24.6483 35.3085 26.0285C36.6665 27.4088 38.4125 28.0004 40.5465 28.0004C42.0985 28.0004 44.0385 27.606 45.2025 26.4229V28.0004H49.6645V9.0708H45.2025V19.1271Z" fill="white"/>
<path d="M58.3948 2.16919H53.9328V9.0706H50.6348V13.4086H53.9328V28.0002H58.3948V13.4086H61.6928V9.0706H58.3948V2.16919Z" fill="white"/>
<path d="M75.6608 22.2812C74.6908 23.0699 73.3328 23.6614 71.9748 23.6614C68.8708 23.6614 66.7367 21.2952 66.7367 18.1403C66.7367 14.9854 68.8708 12.8164 71.9748 12.8164C73.3328 12.8164 74.6908 13.2107 75.6608 14.1967L76.2428 14.7882L79.3468 11.8305L78.5708 11.2389C76.8248 9.66145 74.4968 8.67554 71.9748 8.67554C66.5428 8.67554 62.4688 12.8164 62.4688 18.3375C62.4688 23.8586 66.5428 27.9995 71.9748 27.9995C74.4968 27.9995 76.8248 27.0136 78.5708 25.4361L79.3468 24.8445L76.2428 21.6896L75.6608 22.2812Z" fill="white"/>
<path d="M95.0605 10.6479C93.7025 9.26761 92.3445 8.67606 90.2105 8.67606C88.6585 8.67606 87.1065 9.07042 85.9425 10.2535V0H81.4805V28H85.9425V17.5493C85.9425 13.2113 88.8525 12.8169 90.0165 12.8169C92.7325 12.8169 92.5385 15.3803 92.5385 16.7606V27.8028H97.0005V16.9578C97.0005 14.3944 96.4185 12.0282 95.0605 10.6479Z" fill="white"/>
<path d="M71.7798 21.4927C73.4941 21.4927 74.8838 20.0802 74.8838 18.3378C74.8838 16.5954 73.4941 15.1829 71.7798 15.1829C70.0655 15.1829 68.6758 16.5954 68.6758 18.3378C68.6758 20.0802 70.0655 21.4927 71.7798 21.4927Z" fill="#EF4444"/>
<path d="M19.012 21.0987C17.46 22.6761 15.132 23.6621 12.61 23.6621C7.76 23.6621 4.268 19.7184 4.268 14.3944C4.268 9.0705 7.76 5.12684 12.804 5.12684C15.132 5.12684 17.46 6.11275 19.206 7.8874L19.788 8.47895L22.698 5.5212L22.116 4.92965C19.594 2.36627 16.296 0.98599 12.804 0.98599C5.432 0.788807 0 6.7043 0 14.3944C0 22.0846 5.432 28.0001 12.61 28.0001C16.102 28.0001 19.594 26.6198 21.922 24.0564L22.504 23.4649L19.594 20.5071L19.012 21.0987Z" fill="white"/>
</g>
<defs>
<clipPath id="clip0_20006880_8767">
<rect width="97" height="28" fill="white"/>
</clipPath>
</defs>
</svg>
