<svg width="16" height="16" viewBox="0 0 16 16" fill="none" xmlns="http://www.w3.org/2000/svg">
<path d="M14.6316 6.11925C14.5456 5.86725 14.3183 5.68925 14.053 5.66859L10.2523 5.36659L8.60765 1.72592C8.50031 1.48659 8.26231 1.33325 8.00031 1.33325C7.73831 1.33325 7.50031 1.48659 7.39298 1.72525L5.74831 5.36659L1.94764 5.66859C1.68698 5.68925 1.46231 5.86059 1.37364 6.10659C1.28498 6.35259 1.34764 6.62792 1.53498 6.81059L4.34364 9.54859L3.35031 13.8499C3.28898 14.1159 3.39631 14.3926 3.62098 14.5479C3.73565 14.6266 3.86764 14.6666 4.00031 14.6666C4.12898 14.6666 4.25831 14.6293 4.37031 14.5546L8.00031 12.1346L11.6303 14.5546C11.8623 14.7093 12.167 14.7033 12.3936 14.5386C12.619 14.3739 12.7183 14.0853 12.6416 13.8173L11.4223 9.55059L14.4463 6.82925C14.6443 6.65059 14.717 6.37192 14.6316 6.11925Z" fill="#FFBA08"/>
</svg>
