<svg width="81" height="80" viewBox="0 0 81 80" fill="none" xmlns="http://www.w3.org/2000/svg">
<rect x="0.800781" width="80" height="80" rx="8" fill="#107BEF"/>
<g clip-path="url(#clip0_20009845_32233)">
<path d="M30.1758 35.8594H27.0884C27.6099 28.75 33.5606 23.125 40.8008 23.125C46.53 23.125 51.7142 26.7336 53.7012 32.1046C54.0005 32.9139 54.8993 33.3273 55.7087 33.028C56.518 32.7285 56.9315 31.8298 56.6321 31.0204C55.4479 27.8191 53.3441 25.0798 50.5482 23.0984C47.688 21.0714 44.3174 20 40.8008 20C36.2934 20 32.0556 21.7553 28.8684 24.9426C25.7227 28.0883 23.973 32.2573 23.9279 36.699C22.0605 37.781 20.8008 39.8002 20.8008 42.1094V47.4219C20.8008 50.8681 23.6045 53.6719 27.0508 53.6719H30.1758C31.0387 53.6719 31.7383 52.9723 31.7383 52.1094V37.4219C31.7383 36.5589 31.0387 35.8594 30.1758 35.8594ZM28.6133 50.5469H27.0508C25.3277 50.5469 23.9258 49.145 23.9258 47.4219V42.1094C23.9258 40.3862 25.3277 38.9844 27.0508 38.9844H28.6133V50.5469Z" fill="white"/>
<path d="M54.5508 35.8594H51.4258C50.5628 35.8594 49.8633 36.5589 49.8633 37.4219V48.125V52.1094V53.75C49.8633 54.6116 49.1623 55.3125 48.3008 55.3125H43.5352V55.362C43.0022 54.4009 41.9777 53.75 40.8008 53.75C39.0749 53.75 37.6758 55.1491 37.6758 56.875C37.6758 58.6009 39.0749 60 40.8008 60C41.9777 60 43.0022 59.3491 43.5352 58.388V58.4375H48.3008C50.8855 58.4375 52.9883 56.3347 52.9883 53.75V53.6719H54.5508C57.997 53.6719 60.8008 50.8681 60.8008 47.4219V42.1094C60.8008 38.6631 57.997 35.8594 54.5508 35.8594ZM57.6758 47.4219C57.6758 49.145 56.2739 50.5469 54.5508 50.5469H52.9883V48.125V38.9844H54.5508C56.2739 38.9844 57.6758 40.3863 57.6758 42.1094V47.4219Z" fill="white"/>
</g>
<defs>
<clipPath id="clip0_20009845_32233">
<rect width="40" height="40" fill="white" transform="translate(20.8008 20)"/>
</clipPath>
</defs>
</svg>
