<svg width="81" height="81" viewBox="0 0 81 81" fill="none" xmlns="http://www.w3.org/2000/svg">
<rect x="0.800781" y="0.5" width="80" height="80" rx="8" fill="#107BEF"/>
<g clip-path="url(#clip0_20009845_32214)">
<path d="M43.962 46.7967C42.9839 46.1143 41.9387 45.5583 40.8455 45.1335C42.2997 43.8118 43.2644 41.9603 43.4322 39.8875C45.6374 37.7388 48.528 36.5608 51.6268 36.5608C54.0459 36.5608 56.3686 37.2893 58.3443 38.6671C59.0523 39.1609 60.0258 38.9876 60.5196 38.2795C61.0131 37.5718 60.8398 36.598 60.132 36.1046C59.154 35.4222 58.1084 34.8665 57.0153 34.4414C58.6199 32.9829 59.6288 30.8799 59.6288 28.546C59.6288 24.1523 56.0546 20.5781 51.661 20.5781C47.2677 20.5781 43.6934 24.1523 43.6934 28.546C43.6934 30.8705 44.6941 32.9658 46.2877 34.4237C46.0695 34.5076 45.8526 34.5964 45.6377 34.691C44.6599 35.1213 43.7407 35.6505 42.8859 36.2718C41.7071 33.343 38.8369 31.2703 35.4912 31.2703C31.0979 31.2703 27.5234 34.8445 27.5234 39.2378C27.5234 41.5559 28.5186 43.6455 30.1037 45.1027C25.8657 46.6905 22.4294 50.1008 21.0305 54.4502C20.5666 55.8925 20.8123 57.422 21.7046 58.6467C22.5969 59.871 23.9776 60.5733 25.4924 60.5733H39.0847C39.9474 60.5733 40.6469 59.8738 40.6469 59.0108C40.6469 58.148 39.9474 57.4486 39.0847 57.4486H25.4924C24.9874 57.4486 24.5272 57.2145 24.2296 56.8062C23.9321 56.3978 23.8503 55.8879 24.0047 55.4069C25.5489 50.6059 30.2584 47.2529 35.4571 47.2529C37.8759 47.2529 40.1989 47.9814 42.1746 49.3593C42.8823 49.853 43.8561 49.6794 44.3499 48.9717C44.8433 48.264 44.67 47.2902 43.962 46.7967ZM51.661 23.7028C54.3316 23.7028 56.5041 25.8754 56.5041 28.546C56.5041 31.2163 54.3316 33.3891 51.661 33.3891C48.9907 33.3891 46.8178 31.2163 46.8178 28.546C46.8178 25.8754 48.9907 23.7028 51.661 23.7028ZM35.4912 34.3947C38.1618 34.3947 40.3344 36.5675 40.3344 39.2378C40.3344 41.9084 38.1618 44.0809 35.4912 44.0809C32.8206 44.0809 30.6481 41.9084 30.6481 39.2378C30.6481 36.5675 32.8206 34.3947 35.4912 34.3947ZM60.8007 53.1523C60.8007 54.015 60.1012 54.7145 59.2382 54.7145H54.9419V59.0108C54.9419 59.8738 54.2425 60.5733 53.3797 60.5733C52.5167 60.5733 51.8172 59.8738 51.8172 59.0108V54.7145H47.521C46.6582 54.7145 45.9588 54.015 45.9588 53.1523C45.9588 52.2893 46.6582 51.5898 47.521 51.5898H51.8172V47.2935C51.8172 46.4308 52.5167 45.7313 53.3797 45.7313C54.2425 45.7313 54.9419 46.4308 54.9419 47.2935V51.5898H59.2382C60.1012 51.5898 60.8007 52.2893 60.8007 53.1523Z" fill="white"/>
</g>
<defs>
<clipPath id="clip0_20009845_32214">
<rect width="40" height="40" fill="white" transform="translate(20.8008 20.5)"/>
</clipPath>
</defs>
</svg>
