<svg width="72" height="72" viewBox="0 0 72 72" fill="none" xmlns="http://www.w3.org/2000/svg">
<g filter="url(#filter0_d_20006808_4553)">
<rect x="10" y="2" width="52" height="52" rx="8" fill="#107BEF"/>
<path d="M48 18.4336C44.7719 17.9111 42.3743 18.5286 40.807 20.2861C39.2398 22.0436 38.4561 24.6323 38.4561 28.0522V37.742H48V28.0522H43.0877C42.8304 26.3422 43.0643 24.9529 43.7895 23.8842C44.538 22.8154 45.7544 22.3523 47.4386 22.4948L48 18.4336ZM33.5439 18.4336C30.3158 17.9111 27.9181 18.5286 26.3509 20.2861C24.7836 22.0436 24 24.6323 24 28.0522V37.742H33.5439V28.0522H28.6316C28.3743 26.3422 28.6082 24.9529 29.3333 23.8842C30.0819 22.8154 31.2982 22.3523 32.9825 22.4948L33.5439 18.4336Z" fill="white"/>
</g>
<defs>
<filter id="filter0_d_20006808_4553" x="0" y="0" width="72" height="72" filterUnits="userSpaceOnUse" color-interpolation-filters="sRGB">
<feFlood flood-opacity="0" result="BackgroundImageFix"/>
<feColorMatrix in="SourceAlpha" type="matrix" values="0 0 0 0 0 0 0 0 0 0 0 0 0 0 0 0 0 0 127 0" result="hardAlpha"/>
<feMorphology radius="8" operator="erode" in="SourceAlpha" result="effect1_dropShadow_20006808_4553"/>
<feOffset dy="8"/>
<feGaussianBlur stdDeviation="9"/>
<feColorMatrix type="matrix" values="0 0 0 0 0.388235 0 0 0 0 0.4 0 0 0 0 0.945098 0 0 0 0.9 0"/>
<feBlend mode="normal" in2="BackgroundImageFix" result="effect1_dropShadow_20006808_4553"/>
<feBlend mode="normal" in="SourceGraphic" in2="effect1_dropShadow_20006808_4553" result="shape"/>
</filter>
</defs>
</svg>
