<svg width="360" height="444" viewBox="0 0 360 444" fill="none" xmlns="http://www.w3.org/2000/svg">
<path opacity="0.08" fill-rule="evenodd" clip-rule="evenodd" d="M240.875 615.747C389.472 695.312 562.783 640.475 631.69 504.819C700.598 369.164 645.201 191.865 496.604 112.3C348.008 32.7345 174.696 87.5719 105.789 223.227C36.882 358.883 92.2785 536.181 240.875 615.747ZM208.043 680.382C388.036 776.758 605.894 713.248 694.645 538.528C783.395 363.808 709.429 144.041 529.436 47.6646C349.444 -48.7115 131.585 14.7988 42.8348 189.519C-45.9155 364.239 28.0509 584.006 208.043 680.382Z" fill="#107BEF"/>
<path opacity="0.08" fill-rule="evenodd" clip-rule="evenodd" d="M262.678 572.819C382.907 637.195 526.685 594.131 584.804 479.714C642.923 365.296 595.027 219.602 474.798 155.225C354.568 90.8489 210.791 133.913 152.672 248.331C94.553 362.748 142.449 508.443 262.678 572.819ZM253.923 590.055C382.524 658.914 538.181 613.537 601.592 488.703C665.002 363.868 612.154 206.848 483.553 137.989C354.951 69.13 199.295 114.507 135.884 239.342C72.4737 364.176 125.321 521.196 253.923 590.055Z" fill="#107BEF"/>
</svg>
