<svg width="81" height="80" viewBox="0 0 81 80" fill="none" xmlns="http://www.w3.org/2000/svg">
<rect x="0.800781" width="80" height="80" rx="8" fill="#107BEF"/>
<g clip-path="url(#clip0_20009845_32222)">
<path d="M50.4995 38.1091C52.784 35.8246 52.784 32.1075 50.4995 29.823C48.2098 27.5333 44.5034 27.5327 42.2134 29.823C39.9289 32.1072 39.9289 35.8246 42.2134 38.1091C44.5031 40.3989 48.2095 40.3992 50.4995 38.1091ZM43.8705 31.4801C45.2444 30.1065 47.4682 30.1062 48.8424 31.4801C50.2129 32.851 50.2129 35.0812 48.8424 36.452C47.4685 37.8259 45.2447 37.8262 43.8705 36.452C42.5 35.0812 42.5 32.851 43.8705 31.4801Z" fill="white"/>
<path d="M20.8548 57.9762C20.7239 58.3925 20.835 58.8469 21.1429 59.1557C21.4511 59.4646 21.9055 59.5769 22.3218 59.4469C23.3393 59.1292 32.3334 56.2746 34.7558 53.8524C35.4046 53.2033 35.9329 52.4702 36.3226 51.6853C36.5457 51.6985 36.7456 51.6521 36.9244 51.5608C37.8143 51.1067 38.7619 50.6352 39.7631 50.1341C40.2285 56.1995 40.1916 55.2141 40.1931 55.8879C40.1953 56.7625 41.1184 57.3213 41.8917 56.9319C42.1838 56.7378 45.2154 55.63 47.3522 52.1657C48.5384 50.2428 49.1576 48.0315 49.1576 45.7713V44.966C50.9219 43.8246 52.5637 42.6057 53.9095 41.3063C59.7319 35.6853 61.0466 28.766 60.7656 20.666C60.7442 20.0508 60.2501 19.5567 59.6349 19.5354C51.5371 19.2543 44.6163 20.5681 38.9944 26.3914C37.7206 27.711 36.5234 29.2598 35.4013 30.9849H34.4266C29.866 30.9849 25.6238 33.5915 23.5474 37.7464L23.266 38.3061C23.0832 38.669 23.1015 39.1002 23.3142 39.4463C23.5269 39.7923 23.9035 40.0038 24.3097 40.0047C24.9747 40.0066 23.949 39.9596 30.1773 40.5165C29.686 41.4986 29.1971 42.4803 28.7402 43.3763C28.638 43.5765 28.5983 43.7959 28.6166 44.0092C27.8394 44.398 27.113 44.9226 26.4697 45.5659C24.0482 47.9872 21.1747 56.9609 20.8548 57.9762ZM36.6198 49.0874L31.2134 43.6809C31.557 42.9997 31.9046 42.3018 32.3196 41.4726L38.8281 47.9814C37.9748 48.4083 37.3095 48.7398 36.6198 49.0874ZM42.4182 53.9702L42.0236 48.9934C43.5974 48.1886 45.2221 47.3283 46.8011 46.4113C46.6042 49.5076 44.9847 52.2841 42.4182 53.9702ZM58.4508 21.8498C58.4902 24.4096 58.3419 26.6753 57.9851 28.7126C54.6593 28.2426 52.0583 25.6413 51.5884 22.3158C53.6254 21.9591 55.891 21.8108 58.4508 21.8498ZM40.6805 28.0193C43.1356 25.4762 45.8749 23.7907 49.2965 22.8322C49.6264 24.8698 50.5837 26.7503 52.0672 28.2335C53.5506 29.7169 55.4308 30.6746 57.4685 31.0042C56.5099 34.4258 54.8244 37.1654 52.2814 39.6202C49.4439 42.3598 45.0814 44.7948 41.0302 46.869L33.432 39.2705C35.506 35.2193 37.9409 30.8571 40.6805 28.0193ZM26.2161 37.7974C27.9312 35.1741 30.7834 33.5371 33.9538 33.3885C33.0148 34.9989 32.1347 36.6597 31.3126 38.2674L26.2161 37.7974ZM30.1212 45.9032L31.4413 47.2234L28.9554 49.7093C28.4976 50.1668 28.4976 50.909 28.9554 51.3664C29.4128 51.8242 30.155 51.8242 30.6125 51.3664L33.0984 48.8805L34.4186 50.2006C34.1379 50.9236 33.6893 51.6042 33.0984 52.195C31.7554 53.5384 27.0465 55.3648 23.8248 56.4806C24.9472 53.2655 26.7822 48.5677 28.1268 47.2234C28.7177 46.6325 29.3982 46.1839 30.1212 45.9032Z" fill="white"/>
<path d="M40.5356 39.765C40.0781 39.3075 39.3359 39.3075 38.8785 39.765C38.4207 40.2227 38.4207 40.9646 38.8785 41.4224C39.3359 41.8798 40.0781 41.8798 40.5356 41.4224C40.9933 40.9646 40.9933 40.2227 40.5356 39.765Z" fill="white"/>
</g>
<defs>
<clipPath id="clip0_20009845_32222">
<rect width="40" height="40" fill="white" transform="translate(20.8008 19.5)"/>
</clipPath>
</defs>
</svg>
